STARTFONT 2.1
COMMENT
COMMENT Converted from OpenType font "font.ttf" by "otf2bdf 3.0".
COMMENT
FONT -FreeType-Century Gothic-Medium-R-Normal--50-360-100-100-P-251-ISO10646-1
SIZE 36 100 100
FONTBOUNDINGBOX 67 70 -9 -15
STARTPROPERTIES 19
FOUNDRY "FreeType"
FAMILY_NAME "Century Gothic"
WEIGHT_NAME "Medium"
SLANT "R"
SETWIDTH_NAME "Normal"
ADD_STYLE_NAME ""
PIXEL_SIZE 50
POINT_SIZE 360
RESOLUTION_X 100
RESOLUTION_Y 100
SPACING "P"
AVERAGE_WIDTH 251
CHARSET_REGISTRY "ISO10646"
CHARSET_ENCODING "1"
FONT_ASCENT 50
FONT_DESCENT 11
COPYRIGHT "Typeface © The Monotype Corporation plc. Data © The Monotype Corporation plc / Type Solutions Inc. 1990-91 All Rights Reserved"
_OTF_FONTFILE "font.ttf"
_OTF_PSNAME "CenturyGothic"
ENDPROPERTIES
CHARS 668
STARTCHAR 0020
ENCODING 32
SWIDTH 280 0
DWIDTH 14 0
BBX 0 0 0 0
BITMAP
ENDCHAR
STARTCHAR 0021
ENCODING 33
SWIDTH 280 0
DWIDTH 14 0
BBX 5 37 4 0
BITMAP
70
70
70
70
70
70
70
70
70
70
70
70
70
70
70
70
70
70
70
70
70
70
70
70
70
70
70
00
00
00
00
70
F8
F8
F8
F8
70
ENDCHAR
STARTCHAR 0022
ENCODING 34
SWIDTH 300 0
DWIDTH 15 0
BBX 13 11 1 26
BITMAP
E038
E038
E038
E038
E038
E038
E038
E038
E038
C030
C030
ENDCHAR
STARTCHAR 0023
ENCODING 35
SWIDTH 720 0
DWIDTH 36 0
BBX 27 37 4 0
BITMAP
00380E00
00380E00
00380E00
00701C00
00701C00
00701C00
00701C00
00701C00
00701C00
00E03800
00E03800
7FFFFFE0
7FFFFFE0
7FFFFFE0
00E03800
01E07800
01C07000
01C07000
01C07000
01C07000
01C07000
01C07000
FFFFFFC0
FFFFFFC0
FFFFFFC0
0380E000
0380E000
0380E000
0701C000
0701C000
0701C000
0701C000
0701C000
0701C000
0E038000
0E038000
0E038000
ENDCHAR
STARTCHAR 0024
ENCODING 36
SWIDTH 560 0
DWIDTH 28 0
BBX 25 49 1 -9
BITMAP
000E0000
000E0000
000E0000
007F8000
01FFE000
07FFF800
0F8EFC00
1E0E3E00
1C0E1C00
380E0800
380E0000
380E0000
380E0000
380E0000
3C0E0000
1E0E0000
0F8E0000
07EE0000
03FE0000
01FE0000
007F8000
000FE000
000FF000
000EFC00
000E7E00
000E1E00
000E0F00
000E0700
000E0780
000E0380
000E0380
000E0380
000E0380
200E0380
700E0700
F80E0F00
7E0E1E00
3F8E7E00
0FFFFC00
07FFF000
00FFC000
000E0000
000E0000
000E0000
000E0000
000E0000
000E0000
000E0000
000E0000
ENDCHAR
STARTCHAR 0025
ENCODING 37
SWIDTH 780 0
DWIDTH 39 0
BBX 37 40 1 -2
BITMAP
0000000F80
03F000FF00
0FFFFFFE00
3FFFFFFE00
3C1FFF1C00
780F003800
7007003800
E003807000
E00380E000
E00380E000
E00381C000
E003838000
F007038000
780F070000
3C1E0E0000
3FFE1E0000
1FF81C0000
03F0380000
0000780000
0000700000
0000E00000
0001C00000
0001C03E00
000380FF80
000703FFE0
000703C1E0
000E0780F0
001C0F0070
001C0E0038
00380E0038
00700E0038
00700E0038
00E00E0038
01C00F0070
01C00780F0
038003C1E0
070003FFE0
070000FF80
0E00003E00
1C00000000
ENDCHAR
STARTCHAR 0026
ENCODING 38
SWIDTH 760 0
DWIDTH 38 0
BBX 31 38 4 -1
BITMAP
007E0000
01FF8000
03FFC000
07C3E000
0700E000
0E007000
0E007000
0E007000
0E007000
0E00F000
0700E000
0701E000
0383C000
03C7C000
01CF8000
01FF0000
00FE0000
00FC0000
01FC0000
03FC0000
07CE0000
0F8F0000
1F078000
3E03C000
7C01E010
7800F030
700078F8
E0003DF0
E0001FC0
E0000F80
E0001F80
E0003FC0
F000F8E0
7803F070
3E0FC038
3FFF801C
0FFE000E
03F80000
ENDCHAR
STARTCHAR 0027
ENCODING 39
SWIDTH 200 0
DWIDTH 10 0
BBX 3 11 3 26
BITMAP
E0
E0
E0
E0
E0
E0
E0
E0
E0
C0
C0
ENDCHAR
STARTCHAR 0028
ENCODING 40
SWIDTH 340 0
DWIDTH 17 0
BBX 8 47 6 -10
BITMAP
07
0E
0E
0E
1C
1C
1C
38
38
38
38
70
70
70
70
70
E0
E0
E0
E0
E0
E0
E0
E0
E0
E0
E0
E0
E0
E0
E0
E0
E0
70
70
70
70
70
70
38
38
38
38
1C
1C
1C
0E
ENDCHAR
STARTCHAR 0029
ENCODING 41
SWIDTH 340 0
DWIDTH 17 0
BBX 8 47 3 -10
BITMAP
70
38
38
38
1C
1C
1C
1C
0E
0E
0E
0E
0E
0E
07
07
07
07
07
07
07
07
07
07
07
07
07
07
07
07
0E
0E
0E
0E
0E
0E
1C
1C
1C
1C
38
38
38
70
70
70
E0
ENDCHAR
STARTCHAR 002A
ENCODING 42
SWIDTH 420 0
DWIDTH 21 0
BBX 17 18 2 19
BITMAP
01C000
01C000
01C000
41C100
71C700
F88F80
7E9F00
0FF800
03E000
03E000
0FF800
7C9F00
F8CF80
71C700
41C100
01C000
01C000
01C000
ENDCHAR
STARTCHAR 002B
ENCODING 43
SWIDTH 620 0
DWIDTH 31 0
BBX 25 25 3 5
BITMAP
001C0000
001C0000
001C0000
001C0000
001C0000
001C0000
001C0000
001C0000
001C0000
001C0000
001C0000
FFFFFF80
FFFFFF80
FFFFFF80
001C0000
001C0000
001C0000
001C0000
001C0000
001C0000
001C0000
001C0000
001C0000
001C0000
001C0000
ENDCHAR
STARTCHAR 002C
ENCODING 44
SWIDTH 260 0
DWIDTH 13 0
BBX 7 11 3 -4
BITMAP
08
1E
1E
1C
3C
38
78
70
70
E0
60
ENDCHAR
STARTCHAR 002D
ENCODING 45
SWIDTH 340 0
DWIDTH 17 0
BBX 14 3 1 12
BITMAP
FFFC
FFFC
FFFC
ENDCHAR
STARTCHAR 002E
ENCODING 46
SWIDTH 260 0
DWIDTH 13 0
BBX 6 6 4 0
BITMAP
78
FC
FC
FC
FC
78
ENDCHAR
STARTCHAR 002F
ENCODING 47
SWIDTH 440 0
DWIDTH 22 0
BBX 19 42 2 -5
BITMAP
0000E0
0001C0
0001C0
0003C0
000380
000380
000780
000700
000700
000E00
000E00
001E00
001C00
001C00
003C00
003800
003800
007000
007000
00F000
00E000
00E000
01E000
01C000
01C000
038000
038000
078000
070000
070000
0F0000
0E0000
0E0000
1C0000
1C0000
3C0000
380000
380000
780000
700000
700000
E00000
ENDCHAR
STARTCHAR 0030
ENCODING 48
SWIDTH 560 0
DWIDTH 28 0
BBX 25 38 1 -1
BITMAP
007F0000
01FFC000
07FFE000
0FC1F000
1F007800
1E003C00
3C001E00
38000E00
78000E00
70000700
70000700
70000700
E0000780
E0000380
E0000380
E0000380
E0000380
E0000380
E0000380
E0000380
E0000380
E0000380
E0000380
E0000380
E0000380
E0000780
70000700
70000700
70000700
78000E00
38000E00
3C001E00
1E003C00
1F007800
0FC1F000
07FFE000
01FFC000
007F0000
ENDCHAR
STARTCHAR 0031
ENCODING 49
SWIDTH 560 0
DWIDTH 28 0
BBX 9 36 7 0
BITMAP
3F80
7F80
FF80
0380
0380
0380
0380
0380
0380
0380
0380
0380
0380
0380
0380
0380
0380
0380
0380
0380
0380
0380
0380
0380
0380
0380
0380
0380
0380
0380
0380
0380
0380
0380
0380
0380
ENDCHAR
STARTCHAR 0032
ENCODING 50
SWIDTH 560 0
DWIDTH 28 0
BBX 25 37 1 0
BITMAP
003F8000
01FFF000
07FFF800
0FC0FC00
1F003E00
1C000F00
3C000700
38000700
78000380
70000380
70000380
00000380
00000380
00000380
00000700
00000700
00000E00
00001E00
00003C00
00007800
0000F000
0000E000
0001C000
00038000
00070000
000E0000
001C0000
00380000
00700000
00E00000
01C00000
03800000
0F000000
1E000000
3FFFFF80
7FFFFF80
FFFFFF80
ENDCHAR
STARTCHAR 0033
ENCODING 51
SWIDTH 560 0
DWIDTH 28 0
BBX 25 38 1 -1
BITMAP
007F0000
03FFC000
07FFF000
0F81F800
1E007800
3C001C00
38001E00
78000E00
70000E00
00000E00
00000E00
00001E00
00003C00
00007C00
0003F800
003FF000
003FE000
003FF800
0003FC00
00003E00
00001F00
00000F00
00000700
00000780
00000380
00000380
00000380
00000380
E0000380
F0000700
70000700
78000F00
38001E00
3E003C00
1F80F800
0FFFF000
03FFE000
00FF0000
ENDCHAR
STARTCHAR 0034
ENCODING 52
SWIDTH 560 0
DWIDTH 28 0
BBX 25 37 1 0
BITMAP
00000800
00001800
00001800
00003800
00007800
00007800
0000F800
0001F800
0003F800
0003B800
00073800
000F3800
000E3800
001C3800
003C3800
00783800
00703800
00E03800
01E03800
01C03800
03803800
07803800
07003800
0E003800
1C003800
3C003800
3FFFFF80
7FFFFF80
FFFFFF80
00003800
00003800
00003800
00003800
00003800
00003800
00003800
00003800
ENDCHAR
STARTCHAR 0035
ENCODING 53
SWIDTH 560 0
DWIDTH 28 0
BBX 24 37 2 -1
BITMAP
00FFFE
00FFFE
01FFFE
01C000
01C000
01C000
03C000
038000
038000
038000
038000
070000
077F00
07FFC0
07FFF0
0F01F8
08007C
00001C
00001E
00000E
00000F
000007
000007
000007
000007
000007
000007
00000F
E0000E
E0001E
70001C
78003C
3C00F8
1F03F0
0FFFE0
07FFC0
00FE00
ENDCHAR
STARTCHAR 0036
ENCODING 54
SWIDTH 560 0
DWIDTH 28 0
BBX 22 38 3 -1
BITMAP
000100
000380
000780
000700
000E00
001E00
001C00
003800
007800
007000
00E000
01E000
01C000
038000
078000
070000
0EFC00
1FFF80
1FFFC0
3F07E0
3C01F0
780078
700038
F00038
E0001C
E0001C
E0001C
E0001C
E0001C
E0001C
700038
700038
780078
3C00F0
1F03E0
0FFFC0
07FF80
00FC00
ENDCHAR
STARTCHAR 0037
ENCODING 55
SWIDTH 560 0
DWIDTH 28 0
BBX 22 37 4 -1
BITMAP
FFFFFC
FFFFF8
FFFFF8
000070
000070
0000E0
0000E0
0001C0
0001C0
000380
000300
000700
000600
000E00
000C00
001C00
001800
003800
007000
007000
00E000
00E000
01C000
01C000
038000
038000
070000
060000
0E0000
0C0000
1C0000
180000
380000
300000
700000
E00000
200000
ENDCHAR
STARTCHAR 0038
ENCODING 56
SWIDTH 560 0
DWIDTH 28 0
BBX 25 38 1 -1
BITMAP
007F0000
01FFC000
07FFF000
0F80F800
0F003800
1C001C00
1C001C00
38000E00
38000E00
38000E00
38000E00
38000E00
1C001C00
1E003C00
0F007800
07C1F000
03FFE000
01FFC000
07FFF000
0F80F800
1E003C00
3C001E00
78000F00
70000700
F0000380
E0000380
E0000380
E0000380
E0000380
E0000380
70000700
70000F00
38000E00
3E003E00
1F80FC00
0FFFF800
03FFE000
00FF8000
ENDCHAR
STARTCHAR 0039
ENCODING 57
SWIDTH 560 0
DWIDTH 28 0
BBX 23 38 2 -1
BITMAP
00FE00
03FF80
0FFFE0
1F83F0
3E00F8
380038
70001C
70001C
E0000E
E0000E
E0000E
E0000E
E0000E
E0000E
70001C
78001C
78003C
3E0078
1F81F8
0FFFF0
07FFE0
00FFE0
0001C0
000380
000780
000700
000E00
001C00
003C00
003800
007000
00F000
01E000
01C000
038000
078000
070000
020000
ENDCHAR
STARTCHAR 003A
ENCODING 58
SWIDTH 260 0
DWIDTH 13 0
BBX 6 27 4 0
BITMAP
78
FC
FC
FC
FC
78
00
00
00
00
00
00
00
00
00
00
00
00
00
00
00
78
FC
FC
FC
FC
78
ENDCHAR
STARTCHAR 003B
ENCODING 59
SWIDTH 260 0
DWIDTH 13 0
BBX 7 31 3 -4
BITMAP
3C
7E
7E
7E
7E
3C
00
00
00
00
00
00
00
00
00
00
00
00
00
00
08
1E
1E
1C
3C
38
78
70
70
E0
60
ENDCHAR
STARTCHAR 003C
ENCODING 60
SWIDTH 600 0
DWIDTH 30 0
BBX 25 27 3 4
BITMAP
00000080
00000380
00000F80
00003F00
0000FC00
0003F000
000FC000
003F8000
00FE0000
03F80000
0FE00000
3F800000
FE000000
F8000000
FE000000
3F800000
0FE00000
03F80000
00FE0000
003F8000
000FE000
0003F800
0000FE00
00003F00
00000F80
00000380
00000080
ENDCHAR
STARTCHAR 003D
ENCODING 61
SWIDTH 600 0
DWIDTH 30 0
BBX 24 13 3 11
BITMAP
FFFFFF
FFFFFF
FFFFFF
000000
000000
000000
000000
000000
000000
000000
FFFFFF
FFFFFF
FFFFFF
ENDCHAR
STARTCHAR 003E
ENCODING 62
SWIDTH 600 0
DWIDTH 30 0
BBX 25 27 3 4
BITMAP
80000000
E0000000
F8000000
7E000000
1F800000
0FE00000
03F80000
00FE0000
003F8000
000FE000
0003F800
0000FE00
00003F80
00000F80
00003F80
0000FE00
0003F800
000FE000
003F8000
00FE0000
03F80000
0FE00000
3F800000
FE000000
F8000000
E0000000
80000000
ENDCHAR
STARTCHAR 003F
ENCODING 63
SWIDTH 600 0
DWIDTH 30 0
BBX 21 37 4 0
BITMAP
01FE00
07FF80
1FFFC0
3F03E0
7C00F0
780078
700038
E00038
E00038
E00038
000078
0000F0
0003E0
001FC0
007F80
03FC00
0FF000
1F8000
1E0000
3C0000
380070
380070
3800F0
3C01E0
1F03E0
0FFFC0
07FF80
01FE00
000000
000000
000000
007800
00FC00
00FC00
00FC00
00FC00
007800
ENDCHAR
STARTCHAR 0040
ENCODING 64
SWIDTH 860 0
DWIDTH 43 0
BBX 36 37 4 0
BITMAP
0003FE0000
001FFFC000
007C01F000
00E0003C00
03C0000E00
0700000700
0E00000380
0C000001C0
18000000C0
38000000E0
3001F0E060
6007FCE060
601FFEE030
603F06E030
C03C03E030
C07801C030
C07001C030
C0F001C030
C0E001C030
C0E001C060
C0E001C060
C0E0038060
C0E00380C0
60F00781C0
6078078180
607C1F8700
303FFF8E00
381FFBF800
1807E1E000
1C00000180
0E00000380
0700000700
03C0001E00
00F0003C00
007E01F000
001FFFC000
0001FE0000
ENDCHAR
STARTCHAR 0041
ENCODING 65
SWIDTH 700 0
DWIDTH 35 0
BBX 31 36 2 0
BITMAP
00010000
00018000
00038000
0003C000
0003C000
0007C000
0007E000
000EE000
000EF000
001C7000
001C7800
00187800
00383800
00303C00
00701C00
00701E00
00E00E00
00E00F00
00C00F00
01C00700
01800780
03FFFF80
03FFFFC0
07FFFFC0
070001E0
070001E0
0E0000E0
0E0000F0
1C000070
1C000078
38000078
3800003C
7800003C
7000001C
7000001E
E000000E
ENDCHAR
STARTCHAR 0042
ENCODING 66
SWIDTH 580 0
DWIDTH 29 0
BBX 21 36 5 0
BITMAP
FFF000
FFFC00
FFFE00
E01F00
E00780
E00380
E001C0
E001C0
E001C0
E001C0
E001C0
E003C0
E00780
E00F80
E03F00
FFFE00
FFFE00
FFFF80
E00FC0
E003E0
E000F0
E00070
E00078
E00038
E00038
E00038
E00038
E00038
E00078
E00070
E000F0
E001E0
E007C0
FFFF80
FFFF00
FFF800
ENDCHAR
STARTCHAR 0043
ENCODING 67
SWIDTH 820 0
DWIDTH 41 0
BBX 35 38 3 -1
BITMAP
0001FF0000
001FFFF000
007FFFFC00
00FE01FE00
01F0003F80
07C0000FC0
0F800003E0
0F000001C0
1E00000080
3C00000000
3800000000
7800000000
7000000000
7000000000
F000000000
E000000000
E000000000
E000000000
E000000000
E000000000
E000000000
E000000000
E000000000
F000000000
7000000000
7000000000
7800000000
3800000000
3C00000000
1E00000080
0F000001C0
0F800003E0
07C0000FC0
03F0003F80
00FE01FE00
007FFFFC00
001FFFF000
0003FF0000
ENDCHAR
STARTCHAR 0044
ENCODING 68
SWIDTH 740 0
DWIDTH 37 0
BBX 29 36 5 0
BITMAP
FFFE0000
FFFFE000
FFFFF800
E003FC00
E0003F00
E0000F80
E0000780
E00003C0
E00001E0
E00000E0
E00000F0
E0000070
E0000070
E0000070
E0000038
E0000038
E0000038
E0000038
E0000038
E0000038
E0000038
E0000038
E0000038
E0000070
E0000070
E0000070
E00000E0
E00001E0
E00001C0
E00003C0
E0000F80
E0001F00
E000FE00
FFFFFC00
FFFFF000
FFFF8000
ENDCHAR
STARTCHAR 0045
ENCODING 69
SWIDTH 540 0
DWIDTH 27 0
BBX 20 36 5 0
BITMAP
FFFFF0
FFFFF0
FFFFF0
E00000
E00000
E00000
E00000
E00000
E00000
E00000
E00000
E00000
E00000
E00000
E00000
FFFFF0
FFFFF0
FFFFF0
E00000
E00000
E00000
E00000
E00000
E00000
E00000
E00000
E00000
E00000
E00000
E00000
E00000
E00000
E00000
FFFFF0
FFFFF0
FFFFF0
ENDCHAR
STARTCHAR 0046
ENCODING 70
SWIDTH 480 0
DWIDTH 24 0
BBX 17 36 5 0
BITMAP
FFFF80
FFFF80
FFFF80
E00000
E00000
E00000
E00000
E00000
E00000
E00000
E00000
E00000
E00000
E00000
E00000
FFFF80
FFFF80
FFFF80
E00000
E00000
E00000
E00000
E00000
E00000
E00000
E00000
E00000
E00000
E00000
E00000
E00000
E00000
E00000
E00000
E00000
E00000
ENDCHAR
STARTCHAR 0047
ENCODING 71
SWIDTH 880 0
DWIDTH 44 0
BBX 38 38 3 -1
BITMAP
0001FF8000
000FFFF000
003FFFFC00
00FE01FF00
01F8003FC0
03E0000FE0
07800003F0
0F000001E0
1E00000040
3C00000000
3800000000
7800000000
7000000000
7000000000
7000000000
E000000000
E000000000
E000000000
E000000000
E000000000
E00001FFFC
E00001FFFC
E00001FFFC
700000001C
700000001C
7800000038
7800000038
3C00000038
1C00000070
1E000000F0
0F000001E0
07800003E0
03E00007C0
01F8001F80
00FF007F00
003FFFFC00
000FFFF000
0001FF8000
ENDCHAR
STARTCHAR 0048
ENCODING 72
SWIDTH 680 0
DWIDTH 34 0
BBX 24 36 5 0
BITMAP
E00007
E00007
E00007
E00007
E00007
E00007
E00007
E00007
E00007
E00007
E00007
E00007
E00007
E00007
E00007
E00007
FFFFFF
FFFFFF
FFFFFF
E00007
E00007
E00007
E00007
E00007
E00007
E00007
E00007
E00007
E00007
E00007
E00007
E00007
E00007
E00007
E00007
E00007
ENDCHAR
STARTCHAR 0049
ENCODING 73
SWIDTH 260 0
DWIDTH 13 0
BBX 3 36 5 0
BITMAP
E0
E0
E0
E0
E0
E0
E0
E0
E0
E0
E0
E0
E0
E0
E0
E0
E0
E0
E0
E0
E0
E0
E0
E0
E0
E0
E0
E0
E0
E0
E0
E0
E0
E0
E0
E0
ENDCHAR
STARTCHAR 004A
ENCODING 74
SWIDTH 480 0
DWIDTH 24 0
BBX 17 37 2 -1
BITMAP
000380
000380
000380
000380
000380
000380
000380
000380
000380
000380
000380
000380
000380
000380
000380
000380
000380
000380
000380
000380
000380
000380
000380
000380
000380
000380
000380
000380
000380
000380
000780
200700
700F00
FE1F00
7FFE00
3FFC00
07F000
ENDCHAR
STARTCHAR 004B
ENCODING 75
SWIDTH 600 0
DWIDTH 30 0
BBX 24 36 5 0
BITMAP
E0001E
E0007C
E000F8
E001E0
E003C0
E00780
E00F00
E01E00
E07C00
E0F000
E1E000
E3C000
E78000
EF0000
FE0000
FC0000
F80000
FC0000
FE0000
EF0000
E78000
E3C000
E1E000
E0F000
E07800
E03C00
E01E00
E00F00
E00780
E003C0
E001E0
E000F0
E00078
E0003C
E0001E
E0000F
ENDCHAR
STARTCHAR 004C
ENCODING 76
SWIDTH 460 0
DWIDTH 23 0
BBX 17 36 5 0
BITMAP
E00000
E00000
E00000
E00000
E00000
E00000
E00000
E00000
E00000
E00000
E00000
E00000
E00000
E00000
E00000
E00000
E00000
E00000
E00000
E00000
E00000
E00000
E00000
E00000
E00000
E00000
E00000
E00000
E00000
E00000
E00000
E00000
E00000
FFFF80
FFFF80
FFFF80
ENDCHAR
STARTCHAR 004D
ENCODING 77
SWIDTH 900 0
DWIDTH 45 0
BBX 39 36 3 0
BITMAP
0400000020
0400000060
0600000060
0E000000E0
0E000000E0
0F000001E0
0F000001E0
0F800003F0
0F800003F0
0FC0000770
1DC0000770
1DE0000E70
1CE0000E70
1CF0000C70
1C70001C78
1C78001C78
1C38003878
183C003838
381C007038
381E007038
380E00E038
380E00E03C
380701C03C
380701C03C
380383803C
700383801C
7001C7001C
7001C7001C
7001EF001E
7000EE001E
7000FE001E
70007C001E
F0007C000E
E00038000E
E00038000E
E00010000E
ENDCHAR
STARTCHAR 004E
ENCODING 78
SWIDTH 740 0
DWIDTH 37 0
BBX 27 36 5 0
BITMAP
800000E0
C00000E0
E00000E0
E00000E0
F00000E0
F80000E0
FC0000E0
FE0000E0
EF0000E0
E70000E0
E78000E0
E3C000E0
E1E000E0
E0F000E0
E07800E0
E07800E0
E03C00E0
E01E00E0
E00F00E0
E00780E0
E00380E0
E003C0E0
E001E0E0
E000F0E0
E00078E0
E0003CE0
E0001CE0
E0001EE0
E0000FE0
E00007E0
E00003E0
E00001E0
E00001E0
E00000E0
E0000060
E0000020
ENDCHAR
STARTCHAR 004F
ENCODING 79
SWIDTH 860 0
DWIDTH 43 0
BBX 37 38 3 -1
BITMAP
0003FE0000
001FFFC000
007FFFF000
00FE03F800
03F0007E00
07C0001F00
0F80000F80
0F00000780
1E000003C0
3C000001E0
38000000E0
78000000F0
7000000070
7000000070
7000000078
E000000038
E000000038
E000000038
E000000038
E000000038
E000000038
E000000038
E000000038
F000000078
7000000070
7000000070
78000000F0
38000000E0
3C000001E0
1E000003C0
0F00000780
0F80000F80
07C0001F00
03F0007E00
00FC03F800
007FFFF000
001FFFC000
0003FE0000
ENDCHAR
STARTCHAR 0050
ENCODING 80
SWIDTH 600 0
DWIDTH 30 0
BBX 22 36 5 0
BITMAP
FFFE00
FFFFC0
FFFFE0
E001F0
E00078
E00038
E0003C
E0001C
E0001C
E0001C
E0001C
E0001C
E0003C
E00038
E00078
E001F0
FFFFE0
FFFF80
FFFC00
E00000
E00000
E00000
E00000
E00000
E00000
E00000
E00000
E00000
E00000
E00000
E00000
E00000
E00000
E00000
E00000
E00000
ENDCHAR
STARTCHAR 0051
ENCODING 81
SWIDTH 880 0
DWIDTH 44 0
BBX 38 40 3 -3
BITMAP
0001FE0000
001FFFE000
007FFFF800
00FE01FC00
01F0003E00
03C0001F00
0780000780
0F000003C0
1E000001E0
3C000000F0
3800000070
3800000078
7000000038
7000000038
7000000038
E00000001C
E00000001C
E00000001C
E00000001C
E00000001C
E00000001C
E00000001C
E0000E001C
F00007003C
7000078038
700003C038
780001E078
380000F070
3C000070F0
1E000038E0
0F00003DC0
0780001F80
03C0000F80
01F0003F80
00FE01FF80
007FFFF1C0
001FFFC1E0
0001FE00F0
0000000078
000000003C
ENDCHAR
STARTCHAR 0052
ENCODING 82
SWIDTH 600 0
DWIDTH 30 0
BBX 22 36 5 0
BITMAP
FFFE00
FFFFC0
FFFFE0
E001F0
E00078
E00038
E0003C
E0001C
E0001C
E0001C
E0001C
E0001C
E0003C
E00038
E00078
E001F0
FFFFE0
FFFF80
FFFC00
E3C000
E1C000
E1E000
E0F000
E07800
E03C00
E01C00
E01E00
E00F00
E00780
E00380
E003C0
E001E0
E000F0
E00070
E00078
E0003C
ENDCHAR
STARTCHAR 0053
ENCODING 83
SWIDTH 500 0
DWIDTH 25 0
BBX 21 38 1 -1
BITMAP
00FE00
03FF80
0FFFC0
0F07F0
1C01F8
3C0070
380020
380000
380000
380000
3C0000
1C0000
1E0000
0F0000
07C000
03E000
01F000
00FC00
003E00
001F00
000F80
0003C0
0001E0
0000F0
000070
000078
000038
000038
000038
200038
700038
F80070
7C00F0
3E01E0
1F03E0
0FFFC0
07FF00
01FC00
ENDCHAR
STARTCHAR 0054
ENCODING 84
SWIDTH 420 0
DWIDTH 21 0
BBX 19 36 1 0
BITMAP
FFFFE0
FFFFE0
FFFFE0
00E000
00E000
00E000
00E000
00E000
00E000
00E000
00E000
00E000
00E000
00E000
00E000
00E000
00E000
00E000
00E000
00E000
00E000
00E000
00E000
00E000
00E000
00E000
00E000
00E000
00E000
00E000
00E000
00E000
00E000
00E000
00E000
00E000
ENDCHAR
STARTCHAR 0055
ENCODING 85
SWIDTH 660 0
DWIDTH 33 0
BBX 23 37 5 -1
BITMAP
E0000E
E0000E
E0000E
E0000E
E0000E
E0000E
E0000E
E0000E
E0000E
E0000E
E0000E
E0000E
E0000E
E0000E
E0000E
E0000E
E0000E
E0000E
E0000E
E0000E
E0000E
E0000E
E0000E
E0000E
E0000E
E0000E
E0000E
E0000E
E0001C
70001C
70003C
780038
3C00F8
1F83F0
0FFFE0
03FF80
00FE00
ENDCHAR
STARTCHAR 0056
ENCODING 86
SWIDTH 700 0
DWIDTH 35 0
BBX 31 36 2 0
BITMAP
E000000E
F000000C
7000001C
7800001C
78000038
3C000038
3C000070
1C000070
1E000060
0E0000E0
0F0000C0
0F0001C0
078001C0
07800380
03800380
03C00300
01C00700
01E00600
01E00E00
00F00E00
00F01C00
00701C00
00781800
00383800
003C3000
003C7000
001E7000
001EE000
000FE000
000FC000
0007C000
00078000
00078000
00038000
00030000
00010000
ENDCHAR
STARTCHAR 0057
ENCODING 87
SWIDTH 940 0
DWIDTH 47 0
BBX 43 36 2 0
BITMAP
E000040000E0
E0000E0000E0
F0000E0001C0
F0000E0001C0
70001F0001C0
78001F000380
78001F800380
38003B800380
38003B800380
3C007BC00700
3C0071C00700
1C0071C00700
1E00E0E00700
1E00E0E00E00
1E00E0F00E00
0E01C0700E00
0F01C0700C00
0F0380781C00
070380381C00
078380381C00
0787001C3800
0787001C3800
0386001E3800
03CE000E3000
03CE000E7000
01DC000F7000
01FC00077000
01F800076000
01F80003E000
00F80003E000
00F00003E000
00F00001C000
00E00001C000
00600000C000
006000008000
004000008000
ENDCHAR
STARTCHAR 0058
ENCODING 88
SWIDTH 600 0
DWIDTH 30 0
BBX 27 36 1 0
BITMAP
E00000E0
F00001C0
780001C0
38000380
3C000700
1E000F00
0E000E00
0F001C00
07803C00
03C03800
01C07000
01E0E000
00F0E000
0071C000
007B8000
003F8000
001F0000
001E0000
000F0000
001F0000
003F8000
003BC000
0071C000
00E1E000
00E0F000
01C07000
03807800
07803C00
07001E00
0E000E00
1E000F00
1C000780
38000380
700003C0
700001E0
E00000E0
ENDCHAR
STARTCHAR 0059
ENCODING 89
SWIDTH 620 0
DWIDTH 31 0
BBX 27 36 2 0
BITMAP
F00000E0
700001C0
78000380
3C000380
1C000700
1E000E00
0F000E00
07001C00
07803800
03C03800
01C07000
01E0F000
00F0E000
0071C000
007BC000
003B8000
003F0000
001F0000
000E0000
000E0000
000E0000
000E0000
000E0000
000E0000
000E0000
000E0000
000E0000
000E0000
000E0000
000E0000
000E0000
000E0000
000E0000
000E0000
000E0000
000E0000
ENDCHAR
STARTCHAR 005A
ENCODING 90
SWIDTH 480 0
DWIDTH 24 0
BBX 19 36 2 0
BITMAP
7FFFE0
7FFFC0
7FFFC0
000380
000380
000780
000700
000700
000E00
000E00
001C00
001C00
003C00
003800
007800
007000
007000
00E000
00E000
01C000
01C000
03C000
038000
078000
070000
070000
0E0000
0E0000
1C0000
1C0000
3C0000
380000
380000
7FFFE0
7FFFE0
FFFFE0
ENDCHAR
STARTCHAR 005B
ENCODING 91
SWIDTH 340 0
DWIDTH 17 0
BBX 8 47 7 -10
BITMAP
FF
FF
FF
E0
E0
E0
E0
E0
E0
E0
E0
E0
E0
E0
E0
E0
E0
E0
E0
E0
E0
E0
E0
E0
E0
E0
E0
E0
E0
E0
E0
E0
E0
E0
E0
E0
E0
E0
E0
E0
E0
E0
E0
E0
FF
FF
FF
ENDCHAR
STARTCHAR 005C
ENCODING 92
SWIDTH 600 0
DWIDTH 30 0
BBX 27 42 1 -5
BITMAP
F0000000
70000000
78000000
38000000
1C000000
1C000000
0E000000
0F000000
07000000
07800000
03800000
03C00000
01C00000
00E00000
00F00000
00700000
00780000
00380000
003C0000
001C0000
000E0000
000E0000
00070000
00078000
00038000
0003C000
0001C000
0001E000
0000E000
00007000
00007800
00003800
00003C00
00001C00
00001E00
00000E00
00000700
00000700
00000380
000003C0
000001C0
000001E0
ENDCHAR
STARTCHAR 005D
ENCODING 93
SWIDTH 360 0
DWIDTH 18 0
BBX 8 47 3 -10
BITMAP
FF
FF
FF
07
07
07
07
07
07
07
07
07
07
07
07
07
07
07
07
07
07
07
07
07
07
07
07
07
07
07
07
07
07
07
07
07
07
07
07
07
07
07
07
07
FF
FF
FF
ENDCHAR
STARTCHAR 005E
ENCODING 94
SWIDTH 660 0
DWIDTH 33 0
BBX 27 27 3 9
BITMAP
000E0000
001F0000
001F0000
003F8000
003B8000
003B8000
0071C000
0071C000
00E0E000
00E0E000
01E0F000
01C07000
03C07800
03803800
03803800
07001C00
07001C00
0E000E00
0E000E00
1E000F00
1C000700
3C000780
38000380
38000380
700001C0
700001C0
E00000E0
ENDCHAR
STARTCHAR 005F
ENCODING 95
SWIDTH 500 0
DWIDTH 25 0
BBX 26 3 -1 -7
BITMAP
FFFFFFC0
FFFFFFC0
FFFFFFC0
ENDCHAR
STARTCHAR 0060
ENCODING 96
SWIDTH 380 0
DWIDTH 19 0
BBX 10 8 2 32
BITMAP
F800
7C00
3E00
1E00
0F00
0700
0380
03C0
ENDCHAR
STARTCHAR 0061
ENCODING 97
SWIDTH 680 0
DWIDTH 34 0
BBX 28 27 2 0
BITMAP
003FC070
00FFF870
03FFFE70
07E07F70
0F000FF0
1E0007F0
3C0003F0
780001F0
700000F0
700000F0
E0000070
E0000070
E0000070
E0000070
E0000070
E0000070
E0000070
700000F0
700000F0
780001F0
3C0003F0
1E0007F0
0F000FF0
07E07F70
03FFFE70
01FFF870
003FC070
ENDCHAR
STARTCHAR 0062
ENCODING 98
SWIDTH 680 0
DWIDTH 34 0
BBX 28 37 4 0
BITMAP
E0000000
E0000000
E0000000
E0000000
E0000000
E0000000
E0000000
E0000000
E0000000
E0000000
E03FC000
E0FFF000
E3FFFC00
E7E07E00
EF000F00
FE000780
FC0003C0
F80001E0
F00000E0
F00000E0
E00000F0
E0000070
E0000070
E0000070
E0000070
E0000070
E0000070
F00000E0
F00000E0
F80001E0
FC0003C0
FE000780
FF000F00
EFC07E00
E7FFFC00
E1FFF000
E03FC000
ENDCHAR
STARTCHAR 0063
ENCODING 99
SWIDTH 640 0
DWIDTH 32 0
BBX 28 27 2 0
BITMAP
001FE000
00FFFC00
03FFFF00
07E01FC0
0F8007E0
1E0001E0
3C0000F0
38000040
70000000
70000000
E0000000
E0000000
E0000000
E0000000
E0000000
E0000000
E0000000
70000000
70000000
78000040
3C0000F0
1E0001E0
0F8007E0
07E01FC0
03FFFF00
00FFFC00
001FF000
ENDCHAR
STARTCHAR 0064
ENCODING 100
SWIDTH 680 0
DWIDTH 34 0
BBX 28 37 2 0
BITMAP
00000070
00000070
00000070
00000070
00000070
00000070
00000070
00000070
00000070
00000070
003FC070
00FFF070
03FFFC70
07E07E70
0F000F70
1E0007F0
3C0003F0
780001F0
700000F0
700000F0
E0000070
E0000070
E0000070
E0000070
E0000070
E0000070
E0000070
700000F0
700000F0
780001F0
3C0003F0
1E0007F0
0F000FF0
07E07F70
03FFFE70
01FFF870
003FC070
ENDCHAR
STARTCHAR 0065
ENCODING 101
SWIDTH 660 0
DWIDTH 33 0
BBX 29 27 2 0
BITMAP
003FE000
00FFF800
03FFFE00
07E03F00
0F000780
1E0003C0
3C0000E0
780000E0
70000070
70000070
F0000038
FFFFFFF8
FFFFFFF8
FFFFFFF8
E0000000
E0000000
E0000000
70000000
70000040
780000F0
3C0001E0
1E0003E0
1F000FC0
0FC03F80
03FFFF00
01FFFC00
003FE000
ENDCHAR
STARTCHAR 0066
ENCODING 102
SWIDTH 320 0
DWIDTH 16 0
BBX 13 37 2 0
BITMAP
03F0
0FF8
0FF8
1E08
1C00
1C00
1C00
1C00
1C00
1C00
FFF8
FFF8
FFF8
1C00
1C00
1C00
1C00
1C00
1C00
1C00
1C00
1C00
1C00
1C00
1C00
1C00
1C00
1C00
1C00
1C00
1C00
1C00
1C00
1C00
1C00
1C00
1C00
ENDCHAR
STARTCHAR 0067
ENCODING 103
SWIDTH 680 0
DWIDTH 34 0
BBX 28 37 2 -10
BITMAP
003FC070
00FFF870
03FFFE70
07E07F70
0F000FF0
1E0007F0
3C0003F0
780001F0
700000F0
700000F0
F0000070
E0000070
E0000070
E0000070
E0000070
E0000070
E0000070
700000F0
700000F0
780001F0
380001F0
1C0003F0
1F000FF0
0FC03F70
03FFFC70
01FFF870
003FC070
00000070
000000E0
E00000E0
700001E0
780003C0
3E000780
1F803F00
0FFFFE00
03FFF800
007FC000
ENDCHAR
STARTCHAR 0068
ENCODING 104
SWIDTH 620 0
DWIDTH 31 0
BBX 23 37 4 0
BITMAP
E00000
E00000
E00000
E00000
E00000
E00000
E00000
E00000
E00000
E00000
E03F00
E1FFC0
E3FFF0
E7C0F8
EF0078
FC003C
F8001C
F8001C
F0000E
F0000E
E0000E
E0000E
E0000E
E0000E
E0000E
E0000E
E0000E
E0000E
E0000E
E0000E
E0000E
E0000E
E0000E
E0000E
E0000E
E0000E
E0000E
ENDCHAR
STARTCHAR 0069
ENCODING 105
SWIDTH 180 0
DWIDTH 9 0
BBX 5 37 2 0
BITMAP
70
F8
F8
F8
F8
70
00
00
00
00
70
70
70
70
70
70
70
70
70
70
70
70
70
70
70
70
70
70
70
70
70
70
70
70
70
70
70
ENDCHAR
STARTCHAR 006A
ENCODING 106
SWIDTH 180 0
DWIDTH 9 0
BBX 9 47 -2 -10
BITMAP
0700
0F80
0F80
0F80
0F80
0700
0000
0000
0000
0000
0700
0700
0700
0700
0700
0700
0700
0700
0700
0700
0700
0700
0700
0700
0700
0700
0700
0700
0700
0700
0700
0700
0700
0700
0700
0700
0700
0700
0700
0700
0700
0700
0700
0F00
FE00
FE00
7C00
ENDCHAR
STARTCHAR 006B
ENCODING 107
SWIDTH 500 0
DWIDTH 25 0
BBX 21 37 4 0
BITMAP
E00000
E00000
E00000
E00000
E00000
E00000
E00000
E00000
E00000
E00000
E001E0
E003C0
E00780
E00F00
E01E00
E03C00
E07800
E0F000
E1E000
E7C000
EF0000
FE0000
FC0000
FC0000
FE0000
EF0000
E7C000
E3E000
E0F000
E07800
E03C00
E01E00
E00F00
E00780
E003C0
E001F0
E000F8
ENDCHAR
STARTCHAR 006C
ENCODING 108
SWIDTH 220 0
DWIDTH 11 0
BBX 3 37 4 0
BITMAP
E0
E0
E0
E0
E0
E0
E0
E0
E0
E0
E0
E0
E0
E0
E0
E0
E0
E0
E0
E0
E0
E0
E0
E0
E0
E0
E0
E0
E0
E0
E0
E0
E0
E0
E0
E0
E0
ENDCHAR
STARTCHAR 006D
ENCODING 109
SWIDTH 940 0
DWIDTH 47 0
BBX 39 27 4 0
BITMAP
E0FE001F80
E3FF807FE0
E7FFC1FFF0
EF83E3E0F8
FE00F3803C
FC0077001C
F8007E001C
F0003C000E
F0003C000E
F0003C000E
E00038000E
E00038000E
E00038000E
E00038000E
E00038000E
E00038000E
E00038000E
E00038000E
E00038000E
E00038000E
E00038000E
E00038000E
E00038000E
E00038000E
E00038000E
E00038000E
E00038000E
ENDCHAR
STARTCHAR 006E
ENCODING 110
SWIDTH 620 0
DWIDTH 31 0
BBX 23 27 4 0
BITMAP
E07F00
E1FFC0
E7FFF0
EFC1F8
FF0078
FC003C
F8001C
F8001C
F0000E
F0000E
E0000E
E0000E
E0000E
E0000E
E0000E
E0000E
E0000E
E0000E
E0000E
E0000E
E0000E
E0000E
E0000E
E0000E
E0000E
E0000E
E0000E
ENDCHAR
STARTCHAR 006F
ENCODING 111
SWIDTH 660 0
DWIDTH 33 0
BBX 29 27 2 0
BITMAP
003FC000
00FFF800
03FFFE00
07E03F00
0F800F80
1E0003C0
3C0001E0
780000E0
70000070
70000070
E0000078
E0000038
E0000038
E0000038
E0000038
E0000038
E0000038
70000070
70000070
780000F0
3C0001E0
1E0003C0
0F000780
07E03F00
03FFFE00
00FFF800
003FE000
ENDCHAR
STARTCHAR 0070
ENCODING 112
SWIDTH 680 0
DWIDTH 34 0
BBX 28 37 4 -10
BITMAP
E03FC000
E1FFF000
E7FFFC00
EFE07E00
FF000F00
FE000780
FC0003C0
F80001E0
F00000E0
F00000E0
E0000070
E0000070
E0000070
E0000070
E0000070
E0000070
E00000F0
F00000E0
F00000E0
F80001E0
FC0003C0
FE000780
EF000F00
E7E07E00
E3FFFC00
E0FFF800
E03FC000
E0000000
E0000000
E0000000
E0000000
E0000000
E0000000
E0000000
E0000000
E0000000
E0000000
ENDCHAR
STARTCHAR 0071
ENCODING 113
SWIDTH 680 0
DWIDTH 34 0
BBX 28 37 2 -10
BITMAP
003FC070
00FFF870
03FFFE70
07E07F70
0F000FF0
1E0007F0
3C0003F0
780001F0
700000F0
700000F0
E0000070
E0000070
E0000070
E0000070
E0000070
E0000070
E0000070
700000F0
700000F0
780001F0
3C0003F0
1E0007F0
0F000F70
07E07E70
03FFFC70
01FFF070
003FC070
00000070
00000070
00000070
00000070
00000070
00000070
00000070
00000070
00000070
00000070
ENDCHAR
STARTCHAR 0072
ENCODING 114
SWIDTH 300 0
DWIDTH 15 0
BBX 14 27 2 0
BITMAP
E1F8
E7FC
EFF8
FF00
FC00
F800
F800
F000
F000
F000
E000
E000
E000
E000
E000
E000
E000
E000
E000
E000
E000
E000
E000
E000
E000
E000
E000
ENDCHAR
STARTCHAR 0073
ENCODING 115
SWIDTH 380 0
DWIDTH 19 0
BBX 16 27 1 0
BITMAP
07E0
0FF8
1FFE
3C3F
780E
7004
7000
7000
7800
3C00
3E00
1F80
0FE0
03F0
00FC
003E
001E
000F
0007
0007
0007
2007
700E
F83E
7FFC
3FF8
07E0
ENDCHAR
STARTCHAR 0074
ENCODING 116
SWIDTH 340 0
DWIDTH 17 0
BBX 13 37 2 0
BITMAP
0700
0700
0700
0700
0700
0700
0700
0700
0700
0700
FFF8
FFF8
FFF8
0700
0700
0700
0700
0700
0700
0700
0700
0700
0700
0700
0700
0700
0700
0700
0700
0700
0700
0700
0700
0700
0700
0700
0700
ENDCHAR
STARTCHAR 0075
ENCODING 117
SWIDTH 600 0
DWIDTH 30 0
BBX 22 27 4 0
BITMAP
E0001C
E0001C
E0001C
E0001C
E0001C
E0001C
E0001C
E0001C
E0001C
E0001C
E0001C
E0001C
E0001C
E0001C
E0001C
E0001C
E0001C
E0001C
E0001C
700038
700038
780078
3C00F0
1F03E0
0FFFC0
07FF80
01FE00
ENDCHAR
STARTCHAR 0076
ENCODING 118
SWIDTH 560 0
DWIDTH 28 0
BBX 25 27 1 0
BITMAP
E0000380
70000700
70000700
38000E00
38000E00
3C001E00
1C001C00
1E003C00
0E003800
0E003800
07007000
07007000
0380E000
0380E000
03C1E000
01C1C000
01E3C000
00E38000
00E38000
00770000
00770000
003E0000
003E0000
003E0000
001C0000
001C0000
00080000
ENDCHAR
STARTCHAR 0077
ENCODING 119
SWIDTH 840 0
DWIDTH 42 0
BBX 41 27 0 0
BITMAP
E00008000380
F0000C000700
70001C000700
78001E000F00
78003E000E00
3C003E000E00
3C0037001C00
1C0077001C00
1E0077803C00
0E00E3803800
0F00E3803800
0F01C1C07000
0701C1C07000
078181E0F000
038380E0E000
03C380E0E000
01C70071C000
01E70071C000
01EE007B8000
00EE003B8000
00FC003F8000
007C001F0000
007C001F0000
0078000E0000
0038000E0000
0030000E0000
001000040000
ENDCHAR
STARTCHAR 0078
ENCODING 120
SWIDTH 480 0
DWIDTH 24 0
BBX 24 27 0 0
BITMAP
78001E
3C003C
1C0038
0E0070
0F00F0
0700E0
0381C0
03C3C0
01E780
00E700
007E00
007E00
003C00
003C00
007E00
00FF00
00E700
01C380
03C3C0
0781E0
0700E0
0E0070
1E0078
1C0038
38001C
78001E
F0000F
ENDCHAR
STARTCHAR 0079
ENCODING 121
SWIDTH 540 0
DWIDTH 27 0
BBX 26 37 0 -10
BITMAP
E00001C0
F0000380
70000380
78000700
38000700
3C000E00
1C000E00
1E001E00
0E001C00
0F003C00
07003800
07807800
03807000
03C07000
01C0E000
01E0E000
00E1C000
00F1C000
0073C000
007B8000
007F8000
003F0000
003F0000
001E0000
001E0000
001C0000
001C0000
00380000
00380000
00700000
00700000
00F00000
00E00000
01E00000
01C00000
03C00000
03800000
ENDCHAR
STARTCHAR 007A
ENCODING 122
SWIDTH 420 0
DWIDTH 21 0
BBX 21 27 0 0
BITMAP
7FFFF8
7FFFF0
7FFFE0
0000E0
0001C0
000380
000380
000700
000E00
000E00
001C00
003800
003800
007000
00E000
00E000
01C000
038000
038000
070000
0E0000
0E0000
1C0000
380000
3FFFF8
7FFFF8
FFFFF8
ENDCHAR
STARTCHAR 007B
ENCODING 123
SWIDTH 340 0
DWIDTH 17 0
BBX 13 47 2 -10
BITMAP
0078
01F8
03F8
03C0
0380
0700
0700
0700
0700
0700
0700
0700
0700
0700
0700
0700
0700
0700
0700
0600
0E00
1C00
3C00
F000
E000
F800
3C00
0E00
0E00
0600
0700
0700
0700
0700
0700
0700
0700
0700
0700
0700
0700
0700
0700
0380
03F8
01F8
00F8
ENDCHAR
STARTCHAR 007C
ENCODING 124
SWIDTH 680 0
DWIDTH 34 0
BBX 3 47 15 -10
BITMAP
E0
E0
E0
E0
E0
E0
E0
E0
E0
E0
E0
E0
E0
E0
E0
E0
E0
E0
E0
E0
E0
E0
E0
E0
E0
E0
E0
E0
E0
E0
E0
E0
E0
E0
E0
E0
E0
E0
E0
E0
E0
E0
E0
E0
E0
E0
E0
ENDCHAR
STARTCHAR 007D
ENCODING 125
SWIDTH 320 0
DWIDTH 16 0
BBX 13 47 1 -10
BITMAP
F000
FC00
FE00
1E00
0E00
0700
0700
0700
0700
0700
0700
0700
0700
0700
0700
0700
0700
0700
0700
0380
0380
01C0
01E0
0078
0038
00F8
01E0
0380
0380
0300
0700
0700
0700
0700
0700
0700
0700
0700
0700
0700
0700
0700
0700
0E00
FE00
FC00
F000
ENDCHAR
STARTCHAR 007E
ENCODING 126
SWIDTH 600 0
DWIDTH 30 0
BBX 24 7 3 15
BITMAP
0F8000
3FE001
7FF803
F0FF0F
C01FFE
8007FC
0001F0
ENDCHAR
STARTCHAR 00A0
ENCODING 160
SWIDTH 280 0
DWIDTH 14 0
BBX 0 0 0 0
BITMAP
ENDCHAR
STARTCHAR 00A1
ENCODING 161
SWIDTH 280 0
DWIDTH 14 0
BBX 5 37 4 -10
BITMAP
70
F8
F8
F8
F8
70
00
00
00
00
70
70
70
70
70
70
70
70
70
70
70
70
70
70
70
70
70
70
70
70
70
70
70
70
70
70
70
ENDCHAR
STARTCHAR 00A2
ENCODING 162
SWIDTH 560 0
DWIDTH 28 0
BBX 25 38 2 -6
BITMAP
00000200
00000380
00000700
00000F00
00000E00
003F9E00
01FFFC00
03FFFC00
0FC0FF00
1F007F80
1E007F00
3C00E200
7801C000
7001C000
70038000
E0078000
E0070000
E00E0000
E00E0000
E01C0000
E03C0000
E0380000
F0700000
70700000
78E00000
3DE00000
3FC00400
1F801E00
0FE07F00
07FFFE00
07FFF800
0E3FC000
1E000000
1C000000
38000000
38000000
70000000
10000000
ENDCHAR
STARTCHAR 00A3
ENCODING 163
SWIDTH 560 0
DWIDTH 28 0
BBX 25 38 1 -1
BITMAP
001F8000
007FE000
00FFF000
01E07800
03C03C00
03801C00
07000E00
07000E00
07000E00
07000000
07000000
07000000
03800000
03800000
03800000
03C00000
01C00000
7FFFF000
7FFFF000
7FFFF000
00E00000
00E00000
00700000
00700000
00700000
00700000
00700000
00700000
1F700000
3FF00380
7FF00380
F1F00380
E0F80780
E1FE0700
F3DF8F00
FF8FFE00
7F83FE00
3E00F800
ENDCHAR
STARTCHAR 00A4
ENCODING 164
SWIDTH 560 0
DWIDTH 28 0
BBX 26 25 1 2
BITMAP
407F8080
E3FFF1C0
F7FFFFC0
7FC0FF80
3F003F00
3C000F00
78000780
78000780
70000380
F00003C0
E00001C0
E00001C0
E00001C0
E00001C0
E00001C0
E00003C0
70000380
70000780
78000780
3C000F00
3F003F00
7FC0FF00
F7FFFF80
E3FFF3C0
407F8180
ENDCHAR
STARTCHAR 00A5
ENCODING 165
SWIDTH 520 0
DWIDTH 26 0
BBX 23 36 1 0
BITMAP
F0001E
70001C
78003C
380038
3C0078
1C0070
1E00F0
0E00E0
0F01E0
0701C0
0783C0
038380
03C780
01C700
00EF00
00EE00
007C00
007C00
7FFFFC
7FFFFC
7FFFFC
003800
003800
003800
003800
7FFFFC
7FFFFC
7FFFFC
003800
003800
003800
003800
003800
003800
003800
003800
ENDCHAR
STARTCHAR 00A6
ENCODING 166
SWIDTH 680 0
DWIDTH 34 0
BBX 3 47 15 -10
BITMAP
E0
E0
E0
E0
E0
E0
E0
E0
E0
E0
E0
E0
E0
E0
E0
E0
E0
E0
C0
00
00
00
60
E0
E0
E0
E0
E0
E0
E0
E0
E0
E0
E0
E0
E0
E0
E0
E0
E0
E0
E0
E0
E0
E0
E0
E0
ENDCHAR
STARTCHAR 00A7
ENCODING 167
SWIDTH 620 0
DWIDTH 31 0
BBX 22 47 3 -10
BITMAP
00FE00
07FF80
0FFFC0
1F03E0
1C00F0
3C0070
380038
380038
380000
3C0000
1C0000
1E0000
0F8000
07C000
01F000
07FC00
1FFF00
3C0F80
7807E0
7001F0
E00078
E00038
E0001C
E0001C
70001C
78001C
3C003C
1F0078
0FC0F0
07FFE0
01FFC0
007E00
003F00
000F80
0007C0
0001E0
0000E0
0000F0
000070
000070
700070
7800F0
3C00E0
1F03E0
0FFFC0
07FF80
01FC00
ENDCHAR
STARTCHAR 00A8
ENCODING 168
SWIDTH 360 0
DWIDTH 18 0
BBX 16 6 1 31
BITMAP
781E
FC3F
FC3F
FC3F
FC3F
781E
ENDCHAR
STARTCHAR 00A9
ENCODING 169
SWIDTH 740 0
DWIDTH 37 0
BBX 38 37 -1 0
BITMAP
0001FE0000
001FFFC000
007FFFF800
00FE01FC00
01F0003E00
07C0000F80
0F80000780
0F000003C0
1E00FE01E0
3C03FF80F0
3807FFC070
780F83E078
701E00E038
701C00F038
F01C00703C
E03800001C
E03800001C
E03800001C
E03800001C
E03800001C
E03800701C
E03800701C
F03C00F03C
701C00E038
701E01E038
780F83C078
3807FF8070
3C03FF00F0
1E00FC01E0
0F000003C0
0F80000780
07C0000F80
01F0003E00
00FE01FC00
007FFFF800
001FFFE000
0001FE0000
ENDCHAR
STARTCHAR 00AA
ENCODING 170
SWIDTH 360 0
DWIDTH 18 0
BBX 14 16 1 20
BITMAP
0F9C
1FDC
3FFC
787C
703C
F03C
E01C
E01C
E01C
E01C
E01C
703C
787C
3FFC
1FDC
0F9C
ENDCHAR
STARTCHAR 00AB
ENCODING 171
SWIDTH 420 0
DWIDTH 21 0
BBX 20 27 0 0
BITMAP
038070
0700E0
0700E0
0E01C0
0E01C0
0E01C0
1C0380
1C0380
380700
380700
700E00
700E00
E01C00
E01C00
F01E00
700E00
780E00
380700
380700
3C0780
1C0380
1E03C0
0E01C0
0F01C0
0700E0
0780E0
038070
ENDCHAR
STARTCHAR 00AC
ENCODING 172
SWIDTH 600 0
DWIDTH 30 0
BBX 24 14 3 11
BITMAP
FFFFFF
FFFFFF
FFFFFF
000007
000007
000007
000007
000007
000007
000007
000007
000007
000007
000007
ENDCHAR
STARTCHAR 00AD
ENCODING 173
SWIDTH 340 0
DWIDTH 17 0
BBX 14 3 1 12
BITMAP
FFFC
FFFC
FFFC
ENDCHAR
STARTCHAR 00AE
ENCODING 174
SWIDTH 740 0
DWIDTH 37 0
BBX 38 37 -1 0
BITMAP
0001FE0000
000FFFC000
007FFFF800
00FE01FC00
01F0003E00
07C0000F00
0780000780
0F000003C0
1E000001E0
3C0FFF00F0
380FFFC070
780FFFC078
700E01E038
700E00E038
F00E00E03C
E00E00E01C
E00E00E01C
E00E01C01C
E00FFF801C
E00FFFC01C
E00FFFE01C
E00E01E01C
F00E00E03C
700E00E038
700E00E038
780E00E078
380E00E070
3C0E00F0F0
1E000001E0
0F000003C0
0780000780
07C0000F80
01F0003E00
00FE01FC00
003FFFF000
001FFFC000
0001FE0000
ENDCHAR
STARTCHAR 00AF
ENCODING 175
SWIDTH 500 0
DWIDTH 25 0
BBX 27 3 -1 40
BITMAP
FFFFFFE0
FFFFFFE0
FFFFFFE0
ENDCHAR
STARTCHAR 00B0
ENCODING 176
SWIDTH 400 0
DWIDTH 20 0
BBX 17 17 1 20
BITMAP
03E000
0FF800
3FFE00
3C1E00
780F00
700700
E00380
E00380
E00380
E00380
E00380
700780
780F00
3C1E00
3FFE00
0FF800
03E000
ENDCHAR
STARTCHAR 00B1
ENCODING 177
SWIDTH 560 0
DWIDTH 28 0
BBX 25 32 1 1
BITMAP
001C0000
001C0000
001C0000
001C0000
001C0000
001C0000
001C0000
001C0000
001C0000
001C0000
001C0000
FFFFFF80
FFFFFF80
FFFFFF80
001C0000
001C0000
001C0000
001C0000
001C0000
001C0000
001C0000
001C0000
001C0000
001C0000
001C0000
00000000
00000000
00000000
00000000
FFFFFF80
FFFFFF80
FFFFFF80
ENDCHAR
STARTCHAR 00B2
ENCODING 178
SWIDTH 340 0
DWIDTH 17 0
BBX 15 18 1 18
BITMAP
07E0
1FF8
3FFC
783E
F01E
E00E
E00E
001C
003C
0078
00E0
01C0
0780
0F00
1E00
3FFE
7FFE
FFFE
ENDCHAR
STARTCHAR 00B3
ENCODING 179
SWIDTH 340 0
DWIDTH 17 0
BBX 14 18 1 18
BITMAP
07C0
1FE0
3FF0
3C78
7838
7038
0070
03E0
03F0
0078
003C
E01C
E01C
703C
7878
3FF8
1FF0
0FC0
ENDCHAR
STARTCHAR 00B4
ENCODING 180
SWIDTH 380 0
DWIDTH 19 0
BBX 10 8 5 32
BITMAP
07C0
0F80
1F00
1E00
3C00
3800
7000
F000
ENDCHAR
STARTCHAR 00B5
ENCODING 181
SWIDTH 580 0
DWIDTH 29 0
BBX 21 37 4 -10
BITMAP
E00038
E00038
E00038
E00038
E00038
E00038
E00038
E00038
E00038
E00038
E00038
E00038
E00038
E00038
E00038
E00038
E00038
E00038
E00038
F00078
F00078
F800F8
FC01F8
FF07F8
EFFFF8
E7FFB8
E1FE38
E00000
E00000
E00000
E00000
E00000
E00000
E00000
E00000
E00000
E00000
ENDCHAR
STARTCHAR 00B6
ENCODING 182
SWIDTH 580 0
DWIDTH 29 0
BBX 24 43 2 -6
BITMAP
01FFFF
0FFFFF
1FF81C
3FF81C
7FF81C
7FF81C
7FF81C
FFF81C
FFF81C
FFF81C
FFF81C
FFF81C
FFF81C
FFF81C
7FF81C
7FF81C
3FF81C
1FF81C
0FF81C
03F81C
00381C
00381C
00381C
00381C
00381C
00381C
00381C
00381C
00381C
00381C
00381C
00381C
00381C
00381C
00381C
00381C
00381C
00381C
00381C
00381C
00381C
00381C
00381C
ENDCHAR
STARTCHAR 00B7
ENCODING 183
SWIDTH 340 0
DWIDTH 17 0
BBX 6 6 12 15
BITMAP
78
FC
FC
FC
FC
78
ENDCHAR
STARTCHAR 00B8
ENCODING 184
SWIDTH 320 0
DWIDTH 16 0
BBX 9 10 4 -10
BITMAP
0C00
0C00
0C00
0F00
1F80
0380
0380
0780
FF00
7C00
ENDCHAR
STARTCHAR 00B9
ENCODING 185
SWIDTH 340 0
DWIDTH 17 0
BBX 7 18 4 18
BITMAP
3E
7E
FE
0E
0E
0E
0E
0E
0E
0E
0E
0E
0E
0E
0E
0E
0E
0E
ENDCHAR
STARTCHAR 00BA
ENCODING 186
SWIDTH 360 0
DWIDTH 18 0
BBX 15 16 1 20
BITMAP
07C0
1FF0
3FF8
7C7C
701C
F01E
E00E
E00E
E00E
E00E
F01E
701C
787C
3FF8
1FF0
07C0
ENDCHAR
STARTCHAR 00BB
ENCODING 187
SWIDTH 420 0
DWIDTH 21 0
BBX 20 27 0 0
BITMAP
E01C00
F01E00
700E00
780F00
380700
3C0780
1C0380
1E03C0
0E01C0
0E01C0
0F00E0
0700E0
0780F0
038070
038070
0700E0
0700E0
0E01C0
0E01C0
1C0380
1C0380
380700
380700
380700
700E00
700E00
E01C00
ENDCHAR
STARTCHAR 00BC
ENCODING 188
SWIDTH 840 0
DWIDTH 42 0
BBX 37 37 3 0
BITMAP
0000000700
3E00000600
7E00000C00
FE00001C00
0E00001800
0E00003800
0E00007000
0E00006000
0E0000E000
0E0001C000
0E00018000
0E00038000
0E00030000
0E00060000
0E000E0000
0E000C0000
0E001C0000
0E00380000
0E00300000
0000700000
0000E00040
0000C000C0
0001C001C0
00018003C0
00030007C0
0007000FC0
0006001DC0
000E0039C0
001C0071C0
001800E1C0
003801FFF8
007003FFF8
006007FFF8
00E00001C0
00C00001C0
01800001C0
03800001C0
ENDCHAR
STARTCHAR 00BD
ENCODING 189
SWIDTH 840 0
DWIDTH 42 0
BBX 36 37 3 0
BITMAP
0000003800
3E00003000
7E00006000
FE0000E000
0E0000C000
0E0001C000
0E00038000
0E00030000
0E00070000
0E000E0000
0E000C0000
0E001C0000
0E00180000
0E00300000
0E00700000
0E00600000
0E00E00000
0E01C00000
0E01800000
0003803F00
000700FFC0
000601FFE0
000E03C1F0
000C0780F0
0018070070
0038070070
00300000E0
00700001E0
00E00003C0
00C0000700
01C0000E00
0380003C00
0300007800
070000F000
060001FFF0
0C0003FFF0
1C0007FFF0
ENDCHAR
STARTCHAR 00BE
ENCODING 190
SWIDTH 840 0
DWIDTH 42 0
BBX 38 37 2 0
BITMAP
00000001C0
07C0000180
1FE0000300
3FF0000700
3C78000600
7838000E00
7038001C00
0070001800
03E0003800
03F0007000
0078006000
003C00E000
E01C00C000
E01C018000
703C038000
7878030000
3FF8070000
1FF00E0000
0FC00C0000
00001C0000
0000380020
0000300060
00007000E0
00006001E0
0000C003E0
0001C007E0
0001800EE0
0003801CE0
00070038E0
00060070E0
000E00FFFC
001C01FFFC
001803FFFC
00380000E0
00300000E0
00600000E0
00E00000E0
ENDCHAR
STARTCHAR 00BF
ENCODING 191
SWIDTH 600 0
DWIDTH 30 0
BBX 22 37 4 -10
BITMAP
007800
00FC00
00FC00
00FC00
00FC00
007800
000000
000000
000000
01FC00
07FF80
1FFFC0
3E03E0
3C00E0
780070
700070
700070
0000F0
0001E0
0007E0
003F80
01FF00
07F800
1FC000
3F0000
7C0000
F00000
E0001C
E0001C
E0001C
E00038
F00078
7800F0
3E03F0
1FFFE0
0FFF80
01FE00
ENDCHAR
STARTCHAR 00C0
ENCODING 192
SWIDTH 700 0
DWIDTH 35 0
BBX 31 48 2 0
BITMAP
007C0000
003E0000
001F0000
000F0000
00078000
00038000
0001C000
0001E000
00000000
00000000
00000000
00000000
00010000
00018000
00038000
0003C000
0003C000
0007C000
0007E000
000EE000
000EF000
001C7000
001C7800
00187800
00383800
00303C00
00701C00
00701E00
00E00E00
00E00F00
00C00F00
01C00700
01800780
03FFFF80
03FFFFC0
07FFFFC0
070001E0
070001E0
0E0000E0
0E0000F0
1C000070
1C000078
38000078
3800003C
7800003C
7000001C
7000001E
E000000E
ENDCHAR
STARTCHAR 00C1
ENCODING 193
SWIDTH 700 0
DWIDTH 35 0
BBX 31 48 2 0
BITMAP
00007C00
0000F800
0001F000
0001E000
0003C000
00038000
00070000
000F0000
00000000
00000000
00000000
00000000
00010000
00018000
00038000
0003C000
0003C000
0007C000
0007E000
000EE000
000EF000
001C7000
001C7800
00187800
00383800
00303C00
00701C00
00701E00
00E00E00
00E00F00
00C00F00
01C00700
01800780
03FFFF80
03FFFFC0
07FFFFC0
070001E0
070001E0
0E0000E0
0E0000F0
1C000070
1C000078
38000078
3800003C
7800003C
7000001C
7000001E
E000000E
ENDCHAR
STARTCHAR 00C2
ENCODING 194
SWIDTH 700 0
DWIDTH 35 0
BBX 31 47 2 0
BITMAP
0007C000
000FE000
001EF000
003C7800
00783C00
00F01E00
01E00F00
00000000
00000000
00000000
00000000
00010000
00018000
00038000
0003C000
0003C000
0007C000
0007E000
000EE000
000EF000
001C7000
001C7800
00187800
00383800
00303C00
00701C00
00701E00
00E00E00
00E00F00
00C00F00
01C00700
01800780
03FFFF80
03FFFFC0
07FFFFC0
070001E0
070001E0
0E0000E0
0E0000F0
1C000070
1C000078
38000078
3800003C
7800003C
7000001C
7000001E
E000000E
ENDCHAR
STARTCHAR 00C3
ENCODING 195
SWIDTH 700 0
DWIDTH 35 0
BBX 31 45 2 0
BITMAP
003E0000
00FF8300
01FFFF00
00E1FF80
00807E00
00000000
00000000
00000000
00000000
00010000
00018000
00038000
0003C000
0003C000
0007C000
0007E000
000EE000
000EF000
001C7000
001C7800
00187800
00383800
00303C00
00701C00
00701E00
00E00E00
00E00F00
00C00F00
01C00700
01800780
03FFFF80
03FFFFC0
07FFFFC0
070001E0
070001E0
0E0000E0
0E0000F0
1C000070
1C000078
38000078
3800003C
7800003C
7000001C
7000001E
E000000E
ENDCHAR
STARTCHAR 00C4
ENCODING 196
SWIDTH 700 0
DWIDTH 35 0
BBX 31 46 2 0
BITMAP
00F03C00
01F87E00
01F87E00
01F87E00
01F87E00
00F03C00
00000000
00000000
00000000
00000000
00010000
00018000
00038000
0003C000
0003C000
0007C000
0007E000
000EE000
000EF000
001C7000
001C7800
00187800
00383800
00303C00
00701C00
00701E00
00E00E00
00E00F00
00C00F00
01C00700
01800780
03FFFF80
03FFFFC0
07FFFFC0
070001E0
070001E0
0E0000E0
0E0000F0
1C000070
1C000078
38000078
3800003C
7800003C
7000001C
7000001E
E000000E
ENDCHAR
STARTCHAR 00C5
ENCODING 197
SWIDTH 700 0
DWIDTH 35 0
BBX 31 50 2 0
BITMAP
00078000
001FE000
00186000
00303000
00303000
00303000
00303000
00186000
001FE000
00078000
00000000
00000000
00000000
00000000
00010000
00018000
00038000
0003C000
0003C000
0007C000
0007E000
000EE000
000EF000
001C7000
001C7800
00187800
00383800
00303C00
00701C00
00701E00
00E00E00
00E00F00
00C00F00
01C00700
01800780
03FFFF80
03FFFFC0
07FFFFC0
070001E0
070001E0
0E0000E0
0E0000F0
1C000070
1C000078
38000078
3800003C
7800003C
7000001C
7000001E
E000000E
ENDCHAR
STARTCHAR 00C6
ENCODING 198
SWIDTH 1000 0
DWIDTH 50 0
BBX 45 36 0 0
BITMAP
000000FFFFF8
000001FFFFF8
000003FFFFF8
000003F00000
000007700000
00000F700000
00000E700000
00001C700000
00003C700000
000038700000
000070700000
0000F0700000
0000E0700000
0001C0700000
0003C0700000
0003807FFFF8
0007007FFFF8
000F007FFFF8
000E00700000
001C00700000
003C00700000
003FFFF00000
007FFFF00000
00FFFFF00000
00E000700000
01C000700000
03C000700000
038000700000
070000700000
0F0000700000
0E0000700000
1C0000700000
3C0000700000
3800007FFFF8
7000007FFFF8
F000007FFFF8
ENDCHAR
STARTCHAR 00C7
ENCODING 199
SWIDTH 820 0
DWIDTH 41 0
BBX 35 47 3 -10
BITMAP
0001FF0000
001FFFF000
007FFFFC00
00FE01FE00
01F0003F80
07C0000FC0
0F800003E0
0F000001C0
1E00000080
3C00000000
3800000000
7800000000
7000000000
7000000000
F000000000
E000000000
E000000000
E000000000
E000000000
E000000000
E000000000
E000000000
E000000000
F000000000
7000000000
7000000000
7800000000
3800000000
3C00000000
1E00000080
0F000001C0
0F800003E0
07C0000FC0
03F0003F80
00FE01FE00
007FFFFC00
001FFFF000
0003FF0000
0000600000
0000600000
0000780000
0000FC0000
00001C0000
00001C0000
00003C0000
0007F80000
0003E00000
ENDCHAR
STARTCHAR 00C8
ENCODING 200
SWIDTH 540 0
DWIDTH 27 0
BBX 20 48 5 0
BITMAP
1F0000
0F8000
07C000
03C000
01E000
00E000
007000
007800
000000
000000
000000
000000
FFFFF0
FFFFF0
FFFFF0
E00000
E00000
E00000
E00000
E00000
E00000
E00000
E00000
E00000
E00000
E00000
E00000
FFFFF0
FFFFF0
FFFFF0
E00000
E00000
E00000
E00000
E00000
E00000
E00000
E00000
E00000
E00000
E00000
E00000
E00000
E00000
E00000
FFFFF0
FFFFF0
FFFFF0
ENDCHAR
STARTCHAR 00C9
ENCODING 201
SWIDTH 540 0
DWIDTH 27 0
BBX 20 48 5 0
BITMAP
000F80
001F00
003E00
003C00
007800
007000
00E000
01E000
000000
000000
000000
000000
FFFFF0
FFFFF0
FFFFF0
E00000
E00000
E00000
E00000
E00000
E00000
E00000
E00000
E00000
E00000
E00000
E00000
FFFFF0
FFFFF0
FFFFF0
E00000
E00000
E00000
E00000
E00000
E00000
E00000
E00000
E00000
E00000
E00000
E00000
E00000
E00000
E00000
FFFFF0
FFFFF0
FFFFF0
ENDCHAR
STARTCHAR 00CA
ENCODING 202
SWIDTH 540 0
DWIDTH 27 0
BBX 20 47 5 0
BITMAP
01F000
03F800
07BC00
0F1E00
1E0F00
3C0780
7803C0
000000
000000
000000
000000
FFFFF0
FFFFF0
FFFFF0
E00000
E00000
E00000
E00000
E00000
E00000
E00000
E00000
E00000
E00000
E00000
E00000
FFFFF0
FFFFF0
FFFFF0
E00000
E00000
E00000
E00000
E00000
E00000
E00000
E00000
E00000
E00000
E00000
E00000
E00000
E00000
E00000
FFFFF0
FFFFF0
FFFFF0
ENDCHAR
STARTCHAR 00CB
ENCODING 203
SWIDTH 540 0
DWIDTH 27 0
BBX 20 46 5 0
BITMAP
1E0780
3F0FC0
3F0FC0
3F0FC0
3F0FC0
1E0780
000000
000000
000000
000000
FFFFF0
FFFFF0
FFFFF0
E00000
E00000
E00000
E00000
E00000
E00000
E00000
E00000
E00000
E00000
E00000
E00000
FFFFF0
FFFFF0
FFFFF0
E00000
E00000
E00000
E00000
E00000
E00000
E00000
E00000
E00000
E00000
E00000
E00000
E00000
E00000
E00000
FFFFF0
FFFFF0
FFFFF0
ENDCHAR
STARTCHAR 00CC
ENCODING 204
SWIDTH 260 0
DWIDTH 13 0
BBX 10 48 -2 0
BITMAP
F800
7C00
3E00
1E00
0F00
0700
0380
03C0
0000
0000
0000
0000
01C0
01C0
01C0
01C0
01C0
01C0
01C0
01C0
01C0
01C0
01C0
01C0
01C0
01C0
01C0
01C0
01C0
01C0
01C0
01C0
01C0
01C0
01C0
01C0
01C0
01C0
01C0
01C0
01C0
01C0
01C0
01C0
01C0
01C0
01C0
01C0
ENDCHAR
STARTCHAR 00CD
ENCODING 205
SWIDTH 260 0
DWIDTH 13 0
BBX 10 48 2 0
BITMAP
07C0
0F80
1F00
1E00
3C00
3800
7000
F000
0000
0000
0000
0000
1C00
1C00
1C00
1C00
1C00
1C00
1C00
1C00
1C00
1C00
1C00
1C00
1C00
1C00
1C00
1C00
1C00
1C00
1C00
1C00
1C00
1C00
1C00
1C00
1C00
1C00
1C00
1C00
1C00
1C00
1C00
1C00
1C00
1C00
1C00
1C00
ENDCHAR
STARTCHAR 00CE
ENCODING 206
SWIDTH 260 0
DWIDTH 13 0
BBX 17 47 -2 0
BITMAP
03E000
07F000
0F7800
1E3C00
3C1E00
780F00
F00780
000000
000000
000000
000000
01C000
01C000
01C000
01C000
01C000
01C000
01C000
01C000
01C000
01C000
01C000
01C000
01C000
01C000
01C000
01C000
01C000
01C000
01C000
01C000
01C000
01C000
01C000
01C000
01C000
01C000
01C000
01C000
01C000
01C000
01C000
01C000
01C000
01C000
01C000
01C000
ENDCHAR
STARTCHAR 00CF
ENCODING 207
SWIDTH 260 0
DWIDTH 13 0
BBX 16 46 -2 0
BITMAP
781E
FC3F
FC3F
FC3F
FC3F
781E
0000
0000
0000
0000
01C0
01C0
01C0
01C0
01C0
01C0
01C0
01C0
01C0
01C0
01C0
01C0
01C0
01C0
01C0
01C0
01C0
01C0
01C0
01C0
01C0
01C0
01C0
01C0
01C0
01C0
01C0
01C0
01C0
01C0
01C0
01C0
01C0
01C0
01C0
01C0
ENDCHAR
STARTCHAR 00D0
ENCODING 208
SWIDTH 800 0
DWIDTH 40 0
BBX 36 36 1 0
BITMAP
0FFFF80000
0FFFFF8000
0FFFFFE000
0E000FF800
0E0000FC00
0E00003E00
0E00000F00
0E00000780
0E000003C0
0E000003C0
0E000001C0
0E000000E0
0E000000E0
0E000000E0
0E00000070
0E00000070
0E00000070
FFFF800070
FFFF800070
FFFF800070
0E00000070
0E00000070
0E00000070
0E000000E0
0E000000E0
0E000001E0
0E000001C0
0E000003C0
0E00000780
0E00000F80
0E00001F00
0E00007E00
0E0003FC00
0FFFFFF800
0FFFFFE000
0FFFFE0000
ENDCHAR
STARTCHAR 00D1
ENCODING 209
SWIDTH 740 0
DWIDTH 37 0
BBX 27 45 5 0
BITMAP
01F00000
07FC1800
0FFFF800
070FFC00
0403F000
00000000
00000000
00000000
00000000
800000E0
C00000E0
E00000E0
E00000E0
F00000E0
F80000E0
FC0000E0
FE0000E0
EF0000E0
E70000E0
E78000E0
E3C000E0
E1E000E0
E0F000E0
E07800E0
E07800E0
E03C00E0
E01E00E0
E00F00E0
E00780E0
E00380E0
E003C0E0
E001E0E0
E000F0E0
E00078E0
E0003CE0
E0001CE0
E0001EE0
E0000FE0
E00007E0
E00003E0
E00001E0
E00001E0
E00000E0
E0000060
E0000020
ENDCHAR
STARTCHAR 00D2
ENCODING 210
SWIDTH 860 0
DWIDTH 43 0
BBX 37 49 3 -1
BITMAP
000F800000
0007C00000
0003E00000
0001E00000
0000F00000
0000700000
0000380000
00003C0000
0000000000
0000000000
0000000000
0003FE0000
001FFFC000
007FFFF000
00FE03F800
03F0007E00
07C0001F00
0F80000F80
0F00000780
1E000003C0
3C000001E0
38000000E0
78000000F0
7000000070
7000000070
7000000078
E000000038
E000000038
E000000038
E000000038
E000000038
E000000038
E000000038
E000000038
F000000078
7000000070
7000000070
78000000F0
38000000E0
3C000001E0
1E000003C0
0F00000780
0F80000F80
07C0001F00
03F0007E00
00FC03F800
007FFFF000
001FFFC000
0003FE0000
ENDCHAR
STARTCHAR 00D3
ENCODING 211
SWIDTH 860 0
DWIDTH 43 0
BBX 37 49 3 -1
BITMAP
00000F8000
00001F0000
00003E0000
00003C0000
0000780000
0000700000
0000E00000
0001E00000
0000000000
0000000000
0000000000
0003FE0000
001FFFC000
007FFFF000
00FE03F800
03F0007E00
07C0001F00
0F80000F80
0F00000780
1E000003C0
3C000001E0
38000000E0
78000000F0
7000000070
7000000070
7000000078
E000000038
E000000038
E000000038
E000000038
E000000038
E000000038
E000000038
E000000038
F000000078
7000000070
7000000070
78000000F0
38000000E0
3C000001E0
1E000003C0
0F00000780
0F80000F80
07C0001F00
03F0007E00
00FC03F800
007FFFF000
001FFFC000
0003FE0000
ENDCHAR
STARTCHAR 00D4
ENCODING 212
SWIDTH 860 0
DWIDTH 43 0
BBX 37 48 3 -1
BITMAP
0000F80000
0001FC0000
0003DE0000
00078F0000
000F078000
001E03C000
003C01E000
0000000000
0000000000
0000000000
0003FE0000
001FFFC000
007FFFF000
00FE03F800
03F0007E00
07C0001F00
0F80000F80
0F00000780
1E000003C0
3C000001E0
38000000E0
78000000F0
7000000070
7000000070
7000000078
E000000038
E000000038
E000000038
E000000038
E000000038
E000000038
E000000038
E000000038
F000000078
7000000070
7000000070
78000000F0
38000000E0
3C000001E0
1E000003C0
0F00000780
0F80000F80
07C0001F00
03F0007E00
00FC03F800
007FFFF000
001FFFC000
0003FE0000
ENDCHAR
STARTCHAR 00D5
ENCODING 213
SWIDTH 860 0
DWIDTH 43 0
BBX 37 46 3 -1
BITMAP
000F800000
003FE0C000
007FFFC000
00387FE000
00201F8000
0000000000
0000000000
0000000000
0003FE0000
001FFFC000
007FFFF000
00FE03F800
03F0007E00
07C0001F00
0F80000F80
0F00000780
1E000003C0
3C000001E0
38000000E0
78000000F0
7000000070
7000000070
7000000078
E000000038
E000000038
E000000038
E000000038
E000000038
E000000038
E000000038
E000000038
F000000078
7000000070
7000000070
78000000F0
38000000E0
3C000001E0
1E000003C0
0F00000780
0F80000F80
07C0001F00
03F0007E00
00FC03F800
007FFFF000
001FFFC000
0003FE0000
ENDCHAR
STARTCHAR 00D6
ENCODING 214
SWIDTH 860 0
DWIDTH 43 0
BBX 37 47 3 -1
BITMAP
001E078000
003F0FC000
003F0FC000
003F0FC000
003F0FC000
001E078000
0000000000
0000000000
0000000000
0003FE0000
001FFFC000
007FFFF000
00FE03F800
03F0007E00
07C0001F00
0F80000F80
0F00000780
1E000003C0
3C000001E0
38000000E0
78000000F0
7000000070
7000000070
7000000078
E000000038
E000000038
E000000038
E000000038
E000000038
E000000038
E000000038
E000000038
F000000078
7000000070
7000000070
78000000F0
38000000E0
3C000001E0
1E000003C0
0F00000780
0F80000F80
07C0001F00
03F0007E00
00FC03F800
007FFFF000
001FFFC000
0003FE0000
ENDCHAR
STARTCHAR 00D7
ENCODING 215
SWIDTH 600 0
DWIDTH 30 0
BBX 20 20 5 8
BITMAP
400020
E00070
F000F0
7801E0
3C03C0
1E0780
0F0F00
079C00
03F800
00F000
00F000
01FC00
039E00
0F0F00
1E0780
3C03C0
7801E0
F000F0
E00070
400020
ENDCHAR
STARTCHAR 00D8
ENCODING 216
SWIDTH 860 0
DWIDTH 43 0
BBX 37 39 3 -2
BITMAP
0003FC0040
001FFFC0F0
007FFFF1E0
00FE03FBC0
03F0007F80
07C0001F00
0F80000F00
0F00001F80
1E00003FC0
3C000079E0
38000070E0
780000E0F0
700001C070
7000038070
7000070078
E0000F0038
E0001E0038
E0001C0038
E000380038
E000700038
E000E00038
E001C00038
E003C00038
E007800078
7007000070
700E000070
701C0000F0
38380000E0
3C700001E0
1CF00003C0
0FE0000780
0FC0000F80
07C0001F00
07F0007E00
0FFC03F800
1E7FFFF000
3C1FFFC000
7803FE0000
1000000000
ENDCHAR
STARTCHAR 00D9
ENCODING 217
SWIDTH 660 0
DWIDTH 33 0
BBX 23 49 5 -1
BITMAP
07C000
03E000
01F000
00F000
007800
003800
001C00
001E00
000000
000000
000000
000000
E0000E
E0000E
E0000E
E0000E
E0000E
E0000E
E0000E
E0000E
E0000E
E0000E
E0000E
E0000E
E0000E
E0000E
E0000E
E0000E
E0000E
E0000E
E0000E
E0000E
E0000E
E0000E
E0000E
E0000E
E0000E
E0000E
E0000E
E0000E
E0001C
70001C
70003C
780038
3C00F8
1F83F0
0FFFE0
03FF80
00FE00
ENDCHAR
STARTCHAR 00DA
ENCODING 218
SWIDTH 660 0
DWIDTH 33 0
BBX 23 49 5 -1
BITMAP
0007C0
000F80
001F00
001E00
003C00
003800
007000
00F000
000000
000000
000000
000000
E0000E
E0000E
E0000E
E0000E
E0000E
E0000E
E0000E
E0000E
E0000E
E0000E
E0000E
E0000E
E0000E
E0000E
E0000E
E0000E
E0000E
E0000E
E0000E
E0000E
E0000E
E0000E
E0000E
E0000E
E0000E
E0000E
E0000E
E0000E
E0001C
70001C
70003C
780038
3C00F8
1F83F0
0FFFE0
03FF80
00FE00
ENDCHAR
STARTCHAR 00DB
ENCODING 219
SWIDTH 660 0
DWIDTH 33 0
BBX 23 48 5 -1
BITMAP
007C00
00FE00
01EF00
03C780
0783C0
0F01E0
1E00F0
000000
000000
000000
000000
E0000E
E0000E
E0000E
E0000E
E0000E
E0000E
E0000E
E0000E
E0000E
E0000E
E0000E
E0000E
E0000E
E0000E
E0000E
E0000E
E0000E
E0000E
E0000E
E0000E
E0000E
E0000E
E0000E
E0000E
E0000E
E0000E
E0000E
E0000E
E0001C
70001C
70003C
780038
3C00F8
1F83F0
0FFFE0
03FF80
00FE00
ENDCHAR
STARTCHAR 00DC
ENCODING 220
SWIDTH 660 0
DWIDTH 33 0
BBX 23 47 5 -1
BITMAP
0781E0
0FC3F0
0FC3F0
0FC3F0
0FC3F0
0781E0
000000
000000
000000
000000
E0000E
E0000E
E0000E
E0000E
E0000E
E0000E
E0000E
E0000E
E0000E
E0000E
E0000E
E0000E
E0000E
E0000E
E0000E
E0000E
E0000E
E0000E
E0000E
E0000E
E0000E
E0000E
E0000E
E0000E
E0000E
E0000E
E0000E
E0000E
E0001C
70001C
70003C
780038
3C00F8
1F83F0
0FFFE0
03FF80
00FE00
ENDCHAR
STARTCHAR 00DD
ENCODING 221
SWIDTH 620 0
DWIDTH 31 0
BBX 27 48 2 0
BITMAP
0003E000
0007C000
000F8000
000F0000
001E0000
001C0000
00380000
00780000
00000000
00000000
00000000
00000000
F00000E0
700001C0
78000380
3C000380
1C000700
1E000E00
0F000E00
07001C00
07803800
03C03800
01C07000
01E0F000
00F0E000
0071C000
007BC000
003B8000
003F0000
001F0000
000E0000
000E0000
000E0000
000E0000
000E0000
000E0000
000E0000
000E0000
000E0000
000E0000
000E0000
000E0000
000E0000
000E0000
000E0000
000E0000
000E0000
000E0000
ENDCHAR
STARTCHAR 00DE
ENCODING 222
SWIDTH 600 0
DWIDTH 30 0
BBX 22 36 5 0
BITMAP
E00000
E00000
E00000
E00000
E00000
E00000
E00000
E00000
FFFC00
FFFF80
FFFFE0
E001F0
E000F0
E00078
E00038
E0001C
E0001C
E0001C
E0001C
E0001C
E0001C
E00038
E00078
E000F8
E003F0
FFFFE0
FFFF80
FFFC00
E00000
E00000
E00000
E00000
E00000
E00000
E00000
E00000
ENDCHAR
STARTCHAR 00DF
ENCODING 223
SWIDTH 560 0
DWIDTH 28 0
BBX 22 37 4 0
BITMAP
01FE00
07FF80
1FFFC0
3F03E0
3C00F0
780070
700038
F00038
E00038
E00038
E00078
E00070
E001F0
E007E0
E0FFC0
E0FE00
E0FE00
E0FF80
E00FE0
E001F0
E000F0
E00078
E00038
E0003C
E0001C
E0001C
E0001C
E0001C
E0001C
E0003C
E00038
E00078
E000F0
E603E0
E7FFC0
E7FF80
E1FC00
ENDCHAR
STARTCHAR 00E0
ENCODING 224
SWIDTH 680 0
DWIDTH 34 0
BBX 28 39 2 0
BITMAP
01F00000
00F80000
007C0000
003C0000
001E0000
000E0000
00070000
00078000
00000000
00000000
00000000
00000000
003FC070
00FFF870
03FFFE70
07E07F70
0F000FF0
1E0007F0
3C0003F0
780001F0
700000F0
700000F0
E0000070
E0000070
E0000070
E0000070
E0000070
E0000070
E0000070
700000F0
700000F0
780001F0
3C0003F0
1E0007F0
0F000FF0
07E07F70
03FFFE70
01FFF870
003FC070
ENDCHAR
STARTCHAR 00E1
ENCODING 225
SWIDTH 680 0
DWIDTH 34 0
BBX 28 39 2 0
BITMAP
0000F800
0001F000
0003E000
0003C000
00078000
00070000
000E0000
001E0000
00000000
00000000
00000000
00000000
003FC070
00FFF870
03FFFE70
07E07F70
0F000FF0
1E0007F0
3C0003F0
780001F0
700000F0
700000F0
E0000070
E0000070
E0000070
E0000070
E0000070
E0000070
E0000070
700000F0
700000F0
780001F0
3C0003F0
1E0007F0
0F000FF0
07E07F70
03FFFE70
01FFF870
003FC070
ENDCHAR
STARTCHAR 00E2
ENCODING 226
SWIDTH 680 0
DWIDTH 34 0
BBX 28 38 2 0
BITMAP
000F8000
001FC000
003DE000
0078F000
00F07800
01E03C00
03C01E00
00000000
00000000
00000000
00000000
003FC070
00FFF870
03FFFE70
07E07F70
0F000FF0
1E0007F0
3C0003F0
780001F0
700000F0
700000F0
E0000070
E0000070
E0000070
E0000070
E0000070
E0000070
E0000070
700000F0
700000F0
780001F0
3C0003F0
1E0007F0
0F000FF0
07E07F70
03FFFE70
01FFF870
003FC070
ENDCHAR
STARTCHAR 00E3
ENCODING 227
SWIDTH 680 0
DWIDTH 34 0
BBX 28 36 2 0
BITMAP
00F80000
03FE0C00
07FFFC00
0387FE00
0201F800
00000000
00000000
00000000
00000000
003FC070
00FFF870
03FFFE70
07E07F70
0F000FF0
1E0007F0
3C0003F0
780001F0
700000F0
700000F0
E0000070
E0000070
E0000070
E0000070
E0000070
E0000070
E0000070
700000F0
700000F0
780001F0
3C0003F0
1E0007F0
0F000FF0
07E07F70
03FFFE70
01FFF870
003FC070
ENDCHAR
STARTCHAR 00E4
ENCODING 228
SWIDTH 680 0
DWIDTH 34 0
BBX 28 37 2 0
BITMAP
01E07800
03F0FC00
03F0FC00
03F0FC00
03F0FC00
01E07800
00000000
00000000
00000000
00000000
003FC070
00FFF870
03FFFE70
07E07F70
0F000FF0
1E0007F0
3C0003F0
780001F0
700000F0
700000F0
E0000070
E0000070
E0000070
E0000070
E0000070
E0000070
E0000070
700000F0
700000F0
780001F0
3C0003F0
1E0007F0
0F000FF0
07E07F70
03FFFE70
01FFF870
003FC070
ENDCHAR
STARTCHAR 00E5
ENCODING 229
SWIDTH 680 0
DWIDTH 34 0
BBX 28 41 2 0
BITMAP
000F0000
003FC000
0030C000
00606000
00606000
00606000
00606000
0030C000
003FC000
000F0000
00000000
00000000
00000000
00000000
003FC070
00FFF870
03FFFE70
07E07F70
0F000FF0
1E0007F0
3C0003F0
780001F0
700000F0
700000F0
E0000070
E0000070
E0000070
E0000070
E0000070
E0000070
E0000070
700000F0
700000F0
780001F0
3C0003F0
1E0007F0
0F000FF0
07E07F70
03FFFE70
01FFF870
003FC070
ENDCHAR
STARTCHAR 00E6
ENCODING 230
SWIDTH 1160 0
DWIDTH 58 0
BBX 52 27 4 0
BITMAP
003FC0E07FC000
01FFF0E1FFF800
03FFFCE7FFFC00
0FC07EEFE03F00
1F001FFF000F80
1E000FFE000380
3C0003FC0001C0
780003F80001E0
700001F00000E0
700001F00000E0
E00000E0000070
E00000FFFFFFF0
E00000FFFFFFF0
E00000FFFFFFF0
E00000E0000000
E00000E0000000
E00000E0000000
700001F0000000
700001F0000080
780003F80001E0
3C0007FC0003C0
1E000FFE0007C0
1F001FFF000F80
0FC07EEFC07F00
03FFFCE7FFFE00
01FFF8E3FFF800
003FC0E07FC000
ENDCHAR
STARTCHAR 00E7
ENCODING 231
SWIDTH 640 0
DWIDTH 32 0
BBX 28 37 2 -10
BITMAP
001FE000
00FFFC00
03FFFF00
07E01FC0
0F8007E0
1E0001E0
3C0000F0
38000040
70000000
70000000
E0000000
E0000000
E0000000
E0000000
E0000000
E0000000
E0000000
70000000
70000000
78000040
3C0000F0
1E0001E0
0F8007E0
07E01FC0
03FFFF00
00FFFC00
001FF000
00060000
00060000
00060000
00078000
000FC000
0001C000
0001C000
0003C000
007F8000
003E0000
ENDCHAR
STARTCHAR 00E8
ENCODING 232
SWIDTH 660 0
DWIDTH 33 0
BBX 29 39 2 0
BITMAP
00F80000
007C0000
003E0000
001E0000
000F0000
00070000
00038000
0003C000
00000000
00000000
00000000
00000000
003FE000
00FFF800
03FFFE00
07E03F00
0F000780
1E0003C0
3C0000E0
780000E0
70000070
70000070
F0000038
FFFFFFF8
FFFFFFF8
FFFFFFF8
E0000000
E0000000
E0000000
70000000
70000040
780000F0
3C0001E0
1E0003E0
1F000FC0
0FC03F80
03FFFF00
01FFFC00
003FE000
ENDCHAR
STARTCHAR 00E9
ENCODING 233
SWIDTH 660 0
DWIDTH 33 0
BBX 29 39 2 0
BITMAP
0000F800
0001F000
0003E000
0003C000
00078000
00070000
000E0000
001E0000
00000000
00000000
00000000
00000000
003FE000
00FFF800
03FFFE00
07E03F00
0F000780
1E0003C0
3C0000E0
780000E0
70000070
70000070
F0000038
FFFFFFF8
FFFFFFF8
FFFFFFF8
E0000000
E0000000
E0000000
70000000
70000040
780000F0
3C0001E0
1E0003E0
1F000FC0
0FC03F80
03FFFF00
01FFFC00
003FE000
ENDCHAR
STARTCHAR 00EA
ENCODING 234
SWIDTH 660 0
DWIDTH 33 0
BBX 29 38 2 0
BITMAP
000F8000
001FC000
003DE000
0078F000
00F07800
01E03C00
03C01E00
00000000
00000000
00000000
00000000
003FE000
00FFF800
03FFFE00
07E03F00
0F000780
1E0003C0
3C0000E0
780000E0
70000070
70000070
F0000038
FFFFFFF8
FFFFFFF8
FFFFFFF8
E0000000
E0000000
E0000000
70000000
70000040
780000F0
3C0001E0
1E0003E0
1F000FC0
0FC03F80
03FFFF00
01FFFC00
003FE000
ENDCHAR
STARTCHAR 00EB
ENCODING 235
SWIDTH 660 0
DWIDTH 33 0
BBX 29 37 2 0
BITMAP
00F03C00
01F87E00
01F87E00
01F87E00
01F87E00
00F03C00
00000000
00000000
00000000
00000000
003FE000
00FFF800
03FFFE00
07E03F00
0F000780
1E0003C0
3C0000E0
780000E0
70000070
70000070
F0000038
FFFFFFF8
FFFFFFF8
FFFFFFF8
E0000000
E0000000
E0000000
70000000
70000040
780000F0
3C0001E0
1E0003E0
1F000FC0
0FC03F80
03FFFF00
01FFFC00
003FE000
ENDCHAR
STARTCHAR 00EC
ENCODING 236
SWIDTH 220 0
DWIDTH 11 0
BBX 10 39 -3 0
BITMAP
F800
7C00
3E00
1E00
0F00
0700
0380
03C0
0000
0000
0000
0000
01C0
01C0
01C0
01C0
01C0
01C0
01C0
01C0
01C0
01C0
01C0
01C0
01C0
01C0
01C0
01C0
01C0
01C0
01C0
01C0
01C0
01C0
01C0
01C0
01C0
01C0
01C0
ENDCHAR
STARTCHAR 00ED
ENCODING 237
SWIDTH 220 0
DWIDTH 11 0
BBX 10 39 2 0
BITMAP
07C0
0F80
1F00
1E00
3C00
3800
7000
F000
0000
0000
0000
0000
3800
3800
3800
3800
3800
3800
3800
3800
3800
3800
3800
3800
3800
3800
3800
3800
3800
3800
3800
3800
3800
3800
3800
3800
3800
3800
3800
ENDCHAR
STARTCHAR 00EE
ENCODING 238
SWIDTH 220 0
DWIDTH 11 0
BBX 17 38 -3 0
BITMAP
03E000
07F000
0F7800
1E3C00
3C1E00
780F00
F00780
000000
000000
000000
000000
01C000
01C000
01C000
01C000
01C000
01C000
01C000
01C000
01C000
01C000
01C000
01C000
01C000
01C000
01C000
01C000
01C000
01C000
01C000
01C000
01C000
01C000
01C000
01C000
01C000
01C000
01C000
ENDCHAR
STARTCHAR 00EF
ENCODING 239
SWIDTH 220 0
DWIDTH 11 0
BBX 16 37 -2 0
BITMAP
781E
FC3F
FC3F
FC3F
FC3F
781E
0000
0000
0000
0000
0380
0380
0380
0380
0380
0380
0380
0380
0380
0380
0380
0380
0380
0380
0380
0380
0380
0380
0380
0380
0380
0380
0380
0380
0380
0380
0380
ENDCHAR
STARTCHAR 00F0
ENCODING 240
SWIDTH 660 0
DWIDTH 33 0
BBX 29 37 2 0
BITMAP
007C1000
003E7000
001FF800
000FF000
003FC000
00FFF000
0078F800
00407C00
00003E00
00001F00
001FCF00
00FFFF80
03FFFFC0
07E01FC0
0F8007E0
1E0001E0
3C0000F0
780000F0
70000070
70000078
E0000038
E0000038
E0000038
E0000038
E0000038
E0000038
E0000038
70000070
70000070
780000E0
3C0001E0
1E0003C0
0F000780
07E03F00
03FFFE00
00FFF800
003FC000
ENDCHAR
STARTCHAR 00F1
ENCODING 241
SWIDTH 620 0
DWIDTH 31 0
BBX 23 36 4 0
BITMAP
03E000
0FF830
1FFFF0
0E1FF8
0807E0
000000
000000
000000
000000
E07F00
E1FFC0
E7FFF0
EFC1F8
FF0078
FC003C
F8001C
F8001C
F0000E
F0000E
E0000E
E0000E
E0000E
E0000E
E0000E
E0000E
E0000E
E0000E
E0000E
E0000E
E0000E
E0000E
E0000E
E0000E
E0000E
E0000E
E0000E
ENDCHAR
STARTCHAR 00F2
ENCODING 242
SWIDTH 660 0
DWIDTH 33 0
BBX 29 39 2 0
BITMAP
00F80000
007C0000
003E0000
001E0000
000F0000
00070000
00038000
0003C000
00000000
00000000
00000000
00000000
003FC000
00FFF800
03FFFE00
07E03F00
0F800F80
1E0003C0
3C0001E0
780000E0
70000070
70000070
E0000078
E0000038
E0000038
E0000038
E0000038
E0000038
E0000038
70000070
70000070
780000F0
3C0001E0
1E0003C0
0F000780
07E03F00
03FFFE00
00FFF800
003FE000
ENDCHAR
STARTCHAR 00F3
ENCODING 243
SWIDTH 660 0
DWIDTH 33 0
BBX 29 39 2 0
BITMAP
0000F800
0001F000
0003E000
0003C000
00078000
00070000
000E0000
001E0000
00000000
00000000
00000000
00000000
003FC000
00FFF800
03FFFE00
07E03F00
0F800F80
1E0003C0
3C0001E0
780000E0
70000070
70000070
E0000078
E0000038
E0000038
E0000038
E0000038
E0000038
E0000038
70000070
70000070
780000F0
3C0001E0
1E0003C0
0F000780
07E03F00
03FFFE00
00FFF800
003FE000
ENDCHAR
STARTCHAR 00F4
ENCODING 244
SWIDTH 660 0
DWIDTH 33 0
BBX 29 38 2 0
BITMAP
000F8000
001FC000
003DE000
0078F000
00F07800
01E03C00
03C01E00
00000000
00000000
00000000
00000000
003FC000
00FFF800
03FFFE00
07E03F00
0F800F80
1E0003C0
3C0001E0
780000E0
70000070
70000070
E0000078
E0000038
E0000038
E0000038
E0000038
E0000038
E0000038
70000070
70000070
780000F0
3C0001E0
1E0003C0
0F000780
07E03F00
03FFFE00
00FFF800
003FE000
ENDCHAR
STARTCHAR 00F5
ENCODING 245
SWIDTH 660 0
DWIDTH 33 0
BBX 29 36 2 0
BITMAP
007C0000
01FF0600
03FFFE00
01C3FF00
0100FC00
00000000
00000000
00000000
00000000
003FC000
00FFF800
03FFFE00
07E03F00
0F800F80
1E0003C0
3C0001E0
780000E0
70000070
70000070
E0000078
E0000038
E0000038
E0000038
E0000038
E0000038
E0000038
70000070
70000070
780000F0
3C0001E0
1E0003C0
0F000780
07E03F00
03FFFE00
00FFF800
003FE000
ENDCHAR
STARTCHAR 00F6
ENCODING 246
SWIDTH 660 0
DWIDTH 33 0
BBX 29 37 2 0
BITMAP
00F03C00
01F87E00
01F87E00
01F87E00
01F87E00
00F03C00
00000000
00000000
00000000
00000000
003FC000
00FFF800
03FFFE00
07E03F00
0F800F80
1E0003C0
3C0001E0
780000E0
70000070
70000070
E0000078
E0000038
E0000038
E0000038
E0000038
E0000038
E0000038
70000070
70000070
780000F0
3C0001E0
1E0003C0
0F000780
07E03F00
03FFFE00
00FFF800
003FE000
ENDCHAR
STARTCHAR 00F7
ENCODING 247
SWIDTH 560 0
DWIDTH 28 0
BBX 25 23 1 6
BITMAP
003E0000
003E0000
003E0000
003E0000
003E0000
00000000
00000000
00000000
00000000
00000000
FFFFFF80
FFFFFF80
FFFFFF80
00000000
00000000
00000000
00000000
00000000
003E0000
003E0000
003E0000
003E0000
003E0000
ENDCHAR
STARTCHAR 00F8
ENCODING 248
SWIDTH 660 0
DWIDTH 33 0
BBX 29 28 2 -1
BITMAP
001FE030
00FFFC78
03FFFEF0
07F01FE0
0F8007C0
1E0007C0
3C000FE0
78001EE0
70003CF0
70007870
F0007078
E000E038
E001C038
E0038038
E0070038
E00E0038
E01C0038
70380070
70780070
78F000F0
3DE001E0
1FC003C0
0F800F80
0FC03F00
1FFFFE00
3DFFF800
783FC000
30000000
ENDCHAR
STARTCHAR 00F9
ENCODING 249
SWIDTH 600 0
DWIDTH 30 0
BBX 22 39 4 0
BITMAP
0F8000
07C000
03E000
01E000
00F000
007000
003800
003C00
000000
000000
000000
000000
E0001C
E0001C
E0001C
E0001C
E0001C
E0001C
E0001C
E0001C
E0001C
E0001C
E0001C
E0001C
E0001C
E0001C
E0001C
E0001C
E0001C
E0001C
E0001C
700038
700038
780078
3C00F0
1F03E0
0FFFC0
07FF80
01FE00
ENDCHAR
STARTCHAR 00FA
ENCODING 250
SWIDTH 600 0
DWIDTH 30 0
BBX 22 39 4 0
BITMAP
0007C0
000F80
001F00
001E00
003C00
003800
007000
00F000
000000
000000
000000
000000
E0001C
E0001C
E0001C
E0001C
E0001C
E0001C
E0001C
E0001C
E0001C
E0001C
E0001C
E0001C
E0001C
E0001C
E0001C
E0001C
E0001C
E0001C
E0001C
700038
700038
780078
3C00F0
1F03E0
0FFFC0
07FF80
01FE00
ENDCHAR
STARTCHAR 00FB
ENCODING 251
SWIDTH 600 0
DWIDTH 30 0
BBX 22 38 4 0
BITMAP
00F800
01FC00
03DE00
078F00
0F0780
1E03C0
3C01E0
000000
000000
000000
000000
E0001C
E0001C
E0001C
E0001C
E0001C
E0001C
E0001C
E0001C
E0001C
E0001C
E0001C
E0001C
E0001C
E0001C
E0001C
E0001C
E0001C
E0001C
E0001C
700038
700038
780078
3C00F0
1F03E0
0FFFC0
07FF80
01FE00
ENDCHAR
STARTCHAR 00FC
ENCODING 252
SWIDTH 600 0
DWIDTH 30 0
BBX 22 37 4 0
BITMAP
0F03C0
1F87E0
1F87E0
1F87E0
1F87E0
0F03C0
000000
000000
000000
000000
E0001C
E0001C
E0001C
E0001C
E0001C
E0001C
E0001C
E0001C
E0001C
E0001C
E0001C
E0001C
E0001C
E0001C
E0001C
E0001C
E0001C
E0001C
E0001C
700038
700038
780078
3C00F0
1F03E0
0FFFC0
07FF80
01FE00
ENDCHAR
STARTCHAR 00FD
ENCODING 253
SWIDTH 540 0
DWIDTH 27 0
BBX 26 49 0 -10
BITMAP
0001F000
0003E000
0007C000
00078000
000F0000
000E0000
001C0000
003C0000
00000000
00000000
00000000
00000000
E00001C0
F0000380
70000380
78000700
38000700
3C000E00
1C000E00
1E001E00
0E001C00
0F003C00
07003800
07807800
03807000
03C07000
01C0E000
01E0E000
00E1C000
00F1C000
0073C000
007B8000
007F8000
003F0000
003F0000
001E0000
001E0000
001C0000
001C0000
00380000
00380000
00700000
00700000
00F00000
00E00000
01E00000
01C00000
03C00000
03800000
ENDCHAR
STARTCHAR 00FE
ENCODING 254
SWIDTH 680 0
DWIDTH 34 0
BBX 28 47 4 -10
BITMAP
E0000000
E0000000
E0000000
E0000000
E0000000
E0000000
E0000000
E0000000
E0000000
E0000000
E03FC000
E0FFF000
E3FFFC00
E7E07E00
EF000F00
FE000780
FC0003C0
F80001E0
F00000E0
F00000E0
E0000070
E0000070
E0000070
E0000070
E0000070
E0000070
E00000F0
F00000E0
F00000E0
F80001E0
FC0003C0
FE000780
EF000F00
E7E07E00
E3FFFC00
E0FFF800
E03FC000
E0000000
E0000000
E0000000
E0000000
E0000000
E0000000
E0000000
E0000000
E0000000
E0000000
ENDCHAR
STARTCHAR 00FF
ENCODING 255
SWIDTH 540 0
DWIDTH 27 0
BBX 26 47 0 -10
BITMAP
03C0F000
07E1F800
07E1F800
07E1F800
07E1F800
03C0F000
00000000
00000000
00000000
00000000
E00001C0
F0000380
70000380
78000700
38000700
3C000E00
1C000E00
1E001E00
0E001C00
0F003C00
07003800
07807800
03807000
03C07000
01C0E000
01E0E000
00E1C000
00F1C000
0073C000
007B8000
007F8000
003F0000
003F0000
001E0000
001E0000
001C0000
001C0000
00380000
00380000
00700000
00700000
00F00000
00E00000
01E00000
01C00000
03C00000
03800000
ENDCHAR
STARTCHAR 0100
ENCODING 256
SWIDTH 700 0
DWIDTH 35 0
BBX 31 43 2 0
BITMAP
01FFFE00
01FFFE00
01FFFE00
00000000
00000000
00000000
00000000
00010000
00018000
00038000
0003C000
0003C000
0007C000
0007E000
000EE000
000EF000
001C7000
001C7800
00187800
00383800
00303C00
00701C00
00701E00
00E00E00
00E00F00
00C00F00
01C00700
01800780
03FFFF80
03FFFFC0
07FFFFC0
070001E0
070001E0
0E0000E0
0E0000F0
1C000070
1C000078
38000078
3800003C
7800003C
7000001C
7000001E
E000000E
ENDCHAR
STARTCHAR 0101
ENCODING 257
SWIDTH 680 0
DWIDTH 34 0
BBX 28 34 2 0
BITMAP
00FFFF00
00FFFF00
00FFFF00
00000000
00000000
00000000
00000000
003FC070
00FFF870
03FFFE70
07E07F70
0F000FF0
1E0007F0
3C0003F0
780001F0
700000F0
700000F0
E0000070
E0000070
E0000070
E0000070
E0000070
E0000070
E0000070
700000F0
700000F0
780001F0
3C0003F0
1E0007F0
0F000FF0
07E07F70
03FFFE70
01FFF870
003FC070
ENDCHAR
STARTCHAR 0102
ENCODING 258
SWIDTH 700 0
DWIDTH 35 0
BBX 31 46 2 0
BITMAP
01C00700
01E00F00
00F83E00
007FFC00
003FF800
000FE000
00000000
00000000
00000000
00000000
00010000
00018000
00038000
0003C000
0003C000
0007C000
0007E000
000EE000
000EF000
001C7000
001C7800
00187800
00383800
00303C00
00701C00
00701E00
00E00E00
00E00F00
00C00F00
01C00700
01800780
03FFFF80
03FFFFC0
07FFFFC0
070001E0
070001E0
0E0000E0
0E0000F0
1C000070
1C000078
38000078
3800003C
7800003C
7000001C
7000001E
E000000E
ENDCHAR
STARTCHAR 0103
ENCODING 259
SWIDTH 680 0
DWIDTH 34 0
BBX 28 37 2 0
BITMAP
03800E00
03C01E00
01F07C00
00FFF800
007FF000
001FC000
00000000
00000000
00000000
00000000
003FC070
00FFF870
03FFFE70
07E07F70
0F000FF0
1E0007F0
3C0003F0
780001F0
700000F0
700000F0
E0000070
E0000070
E0000070
E0000070
E0000070
E0000070
E0000070
700000F0
700000F0
780001F0
3C0003F0
1E0007F0
0F000FF0
07E07F70
03FFFE70
01FFF870
003FC070
ENDCHAR
STARTCHAR 0104
ENCODING 260
SWIDTH 700 0
DWIDTH 35 0
BBX 35 45 2 -9
BITMAP
0001000000
0001800000
0003800000
0003C00000
0003C00000
0007C00000
0007E00000
000EE00000
000EF00000
001C700000
001C780000
0018780000
0038380000
00303C0000
00701C0000
00701E0000
00E00E0000
00E00F0000
00C00F0000
01C0070000
0180078000
03FFFF8000
03FFFFC000
07FFFFC000
070001E000
070001E000
0E0000E000
0E0000F000
1C00007000
1C00007800
3800007800
3800003C00
7800003C00
7000001C00
7000001E00
E000000E00
0000000E00
0000001C00
0000001C00
0000003800
0000003800
0000003800
0000003C00
0000001FE0
00000007E0
ENDCHAR
STARTCHAR 0105
ENCODING 261
SWIDTH 680 0
DWIDTH 34 0
BBX 31 36 2 -9
BITMAP
003FC070
00FFF870
03FFFE70
07E07F70
0F000FF0
1E0007F0
3C0003F0
780001F0
700000F0
700000F0
E0000070
E0000070
E0000070
E0000070
E0000070
E0000070
E0000070
700000F0
700000F0
780001F0
3C0003F0
1E0007F0
0F000FF0
07E07F70
03FFFE70
01FFF870
003FC070
000000E0
000001C0
000001C0
00000380
00000380
00000380
000003C0
000001FE
0000007E
ENDCHAR
STARTCHAR 0106
ENCODING 262
SWIDTH 820 0
DWIDTH 41 0
BBX 35 49 3 -1
BITMAP
00001F0000
00003E0000
00007C0000
0000780000
0000F00000
0000E00000
0001C00000
0003C00000
0000000000
0000000000
0000000000
0001FF0000
001FFFF000
007FFFFC00
00FE01FE00
01F0003F80
07C0000FC0
0F800003E0
0F000001C0
1E00000080
3C00000000
3800000000
7800000000
7000000000
7000000000
F000000000
E000000000
E000000000
E000000000
E000000000
E000000000
E000000000
E000000000
E000000000
F000000000
7000000000
7000000000
7800000000
3800000000
3C00000000
1E00000080
0F000001C0
0F800003E0
07C0000FC0
03F0003F80
00FE01FE00
007FFFFC00
001FFFF000
0003FF0000
ENDCHAR
STARTCHAR 0107
ENCODING 263
SWIDTH 640 0
DWIDTH 32 0
BBX 28 39 2 0
BITMAP
0000F800
0001F000
0003E000
0003C000
00078000
00070000
000E0000
001E0000
00000000
00000000
00000000
00000000
001FE000
00FFFC00
03FFFF00
07E01FC0
0F8007E0
1E0001E0
3C0000F0
38000040
70000000
70000000
E0000000
E0000000
E0000000
E0000000
E0000000
E0000000
E0000000
70000000
70000000
78000040
3C0000F0
1E0001E0
0F8007E0
07E01FC0
03FFFF00
00FFFC00
001FF000
ENDCHAR
STARTCHAR 0108
ENCODING 264
SWIDTH 820 0
DWIDTH 41 0
BBX 35 48 3 -1
BITMAP
00007C0000
0000FE0000
0001EF0000
0003C78000
000783C000
000F01E000
001E00F000
0000000000
0000000000
0000000000
0001FF0000
001FFFF000
007FFFFC00
00FE01FE00
01F0003F80
07C0000FC0
0F800003E0
0F000001C0
1E00000080
3C00000000
3800000000
7800000000
7000000000
7000000000
F000000000
E000000000
E000000000
E000000000
E000000000
E000000000
E000000000
E000000000
E000000000
F000000000
7000000000
7000000000
7800000000
3800000000
3C00000000
1E00000080
0F000001C0
0F800003E0
07C0000FC0
03F0003F80
00FE01FE00
007FFFFC00
001FFFF000
0003FF0000
ENDCHAR
STARTCHAR 0109
ENCODING 265
SWIDTH 640 0
DWIDTH 32 0
BBX 28 38 2 0
BITMAP
0007C000
000FE000
001EF000
003C7800
00783C00
00F01E00
01E00F00
00000000
00000000
00000000
00000000
001FE000
00FFFC00
03FFFF00
07E01FC0
0F8007E0
1E0001E0
3C0000F0
38000040
70000000
70000000
E0000000
E0000000
E0000000
E0000000
E0000000
E0000000
E0000000
70000000
70000000
78000040
3C0000F0
1E0001E0
0F8007E0
07E01FC0
03FFFF00
00FFFC00
001FF000
ENDCHAR
STARTCHAR 010A
ENCODING 266
SWIDTH 820 0
DWIDTH 41 0
BBX 35 47 3 -1
BITMAP
0000F00000
0001F80000
0001F80000
0001F80000
0001F80000
0000F00000
0000000000
0000000000
0000000000
0001FF0000
001FFFF000
007FFFFC00
00FE01FE00
01F0003F80
07C0000FC0
0F800003E0
0F000001C0
1E00000080
3C00000000
3800000000
7800000000
7000000000
7000000000
F000000000
E000000000
E000000000
E000000000
E000000000
E000000000
E000000000
E000000000
E000000000
F000000000
7000000000
7000000000
7800000000
3800000000
3C00000000
1E00000080
0F000001C0
0F800003E0
07C0000FC0
03F0003F80
00FE01FE00
007FFFFC00
001FFFF000
0003FF0000
ENDCHAR
STARTCHAR 010B
ENCODING 267
SWIDTH 640 0
DWIDTH 32 0
BBX 28 37 2 0
BITMAP
000F0000
001F8000
001F8000
001F8000
001F8000
000F0000
00000000
00000000
00000000
00000000
001FE000
00FFFC00
03FFFF00
07E01FC0
0F8007E0
1E0001E0
3C0000F0
38000040
70000000
70000000
E0000000
E0000000
E0000000
E0000000
E0000000
E0000000
E0000000
70000000
70000000
78000040
3C0000F0
1E0001E0
0F8007E0
07E01FC0
03FFFF00
00FFFC00
001FF000
ENDCHAR
STARTCHAR 010C
ENCODING 268
SWIDTH 820 0
DWIDTH 41 0
BBX 35 48 3 -1
BITMAP
003C01E000
001E03C000
000F078000
00078F0000
0003DE0000
0001FC0000
0000F80000
0000000000
0000000000
0000000000
0001FF0000
001FFFF000
007FFFFC00
00FE01FE00
01F0003F80
07C0000FC0
0F800003E0
0F000001C0
1E00000080
3C00000000
3800000000
7800000000
7000000000
7000000000
F000000000
E000000000
E000000000
E000000000
E000000000
E000000000
E000000000
E000000000
E000000000
F000000000
7000000000
7000000000
7800000000
3800000000
3C00000000
1E00000080
0F000001C0
0F800003E0
07C0000FC0
03F0003F80
00FE01FE00
007FFFFC00
001FFFF000
0003FF0000
ENDCHAR
STARTCHAR 010D
ENCODING 269
SWIDTH 640 0
DWIDTH 32 0
BBX 28 38 2 0
BITMAP
03C01E00
01E03C00
00F07800
0078F000
003DE000
001FC000
000F8000
00000000
00000000
00000000
00000000
001FE000
00FFFC00
03FFFF00
07E01FC0
0F8007E0
1E0001E0
3C0000F0
38000040
70000000
70000000
E0000000
E0000000
E0000000
E0000000
E0000000
E0000000
E0000000
70000000
70000000
78000040
3C0000F0
1E0001E0
0F8007E0
07E01FC0
03FFFF00
00FFFC00
001FF000
ENDCHAR
STARTCHAR 010E
ENCODING 270
SWIDTH 740 0
DWIDTH 37 0
BBX 29 47 5 0
BITMAP
1E00F000
0F01E000
0783C000
03C78000
01EF0000
00FE0000
007C0000
00000000
00000000
00000000
00000000
FFFE0000
FFFFE000
FFFFF800
E003FC00
E0003F00
E0000F80
E0000780
E00003C0
E00001E0
E00000E0
E00000F0
E0000070
E0000070
E0000070
E0000038
E0000038
E0000038
E0000038
E0000038
E0000038
E0000038
E0000038
E0000038
E0000070
E0000070
E0000070
E00000E0
E00001E0
E00001C0
E00003C0
E0000F80
E0001F00
E000FE00
FFFFFC00
FFFFF000
FFFF8000
ENDCHAR
STARTCHAR 010F
ENCODING 271
SWIDTH 680 0
DWIDTH 34 0
BBX 34 37 2 0
BITMAP
00000073C0
00000073C0
00000073C0
00000073C0
00000073C0
00000073C0
00000070C0
00000070C0
0000007180
0000007180
003FC07300
00FFF87100
03FFFC7000
07E07E7000
0F000F7000
1E0007F000
3C0003F000
780001F000
700000F000
700000F000
E000007000
E000007000
E000007000
E000007000
E000007000
E000007000
E000007000
700000F000
700000F000
780001F000
3C0003F000
1E0007F000
0F000FF000
07E07F7000
03FFFE7000
01FFF87000
003FC07000
ENDCHAR
STARTCHAR 0110
ENCODING 272
SWIDTH 800 0
DWIDTH 40 0
BBX 36 36 1 0
BITMAP
0FFFF80000
0FFFFF8000
0FFFFFE000
0E000FF800
0E0000FC00
0E00003E00
0E00000F00
0E00000780
0E000003C0
0E000003C0
0E000001C0
0E000000E0
0E000000E0
0E000000E0
0E00000070
0E00000070
0E00000070
FFFF800070
FFFF800070
FFFF800070
0E00000070
0E00000070
0E00000070
0E000000E0
0E000000E0
0E000001E0
0E000001C0
0E000003C0
0E00000780
0E00000F80
0E00001F00
0E00007E00
0E0003FC00
0FFFFFF800
0FFFFFE000
0FFFFE0000
ENDCHAR
STARTCHAR 0111
ENCODING 273
SWIDTH 680 0
DWIDTH 34 0
BBX 31 37 2 0
BITMAP
00000070
00000070
00000070
00000070
00000070
00003FFE
00003FFE
00003FFE
00000070
00000070
003FC070
00FFF070
03FFFC70
07E07E70
0F000F70
1E0007F0
3C0003F0
780001F0
700000F0
700000F0
E0000070
E0000070
E0000070
E0000070
E0000070
E0000070
E0000070
700000F0
700000F0
780001F0
3C0003F0
1E0007F0
0F000FF0
07E07F70
03FFFE70
01FFF870
003FC070
ENDCHAR
STARTCHAR 0112
ENCODING 274
SWIDTH 540 0
DWIDTH 27 0
BBX 20 43 5 0
BITMAP
3FFFC0
3FFFC0
3FFFC0
000000
000000
000000
000000
FFFFF0
FFFFF0
FFFFF0
E00000
E00000
E00000
E00000
E00000
E00000
E00000
E00000
E00000
E00000
E00000
E00000
FFFFF0
FFFFF0
FFFFF0
E00000
E00000
E00000
E00000
E00000
E00000
E00000
E00000
E00000
E00000
E00000
E00000
E00000
E00000
E00000
FFFFF0
FFFFF0
FFFFF0
ENDCHAR
STARTCHAR 0113
ENCODING 275
SWIDTH 660 0
DWIDTH 33 0
BBX 29 36 2 0
BITMAP
01FFFE00
01FFFE00
01FFFE00
00000000
00000000
00000000
00000000
00000000
00000000
003FE000
00FFF800
03FFFE00
07E03F00
0F000780
1E0003C0
3C0000E0
780000E0
70000070
70000070
F0000038
FFFFFFF8
FFFFFFF8
FFFFFFF8
E0000000
E0000000
E0000000
70000000
70000040
780000F0
3C0001E0
1E0003E0
1F000FC0
0FC03F80
03FFFF00
01FFFC00
003FE000
ENDCHAR
STARTCHAR 0114
ENCODING 276
SWIDTH 540 0
DWIDTH 27 0
BBX 20 46 5 0
BITMAP
7001C0
7803C0
3E0F80
1FFF00
0FFE00
03F800
000000
000000
000000
000000
FFFFF0
FFFFF0
FFFFF0
E00000
E00000
E00000
E00000
E00000
E00000
E00000
E00000
E00000
E00000
E00000
E00000
FFFFF0
FFFFF0
FFFFF0
E00000
E00000
E00000
E00000
E00000
E00000
E00000
E00000
E00000
E00000
E00000
E00000
E00000
E00000
E00000
FFFFF0
FFFFF0
FFFFF0
ENDCHAR
STARTCHAR 0115
ENCODING 277
SWIDTH 660 0
DWIDTH 33 0
BBX 29 37 2 0
BITMAP
03800E00
03C01E00
01F07C00
00FFF800
007FF000
001FC000
00000000
00000000
00000000
00000000
003FE000
00FFF800
03FFFE00
07E03F00
0F000780
1E0003C0
3C0000E0
780000E0
70000070
70000070
F0000038
FFFFFFF8
FFFFFFF8
FFFFFFF8
E0000000
E0000000
E0000000
70000000
70000040
780000F0
3C0001E0
1E0003E0
1F000FC0
0FC03F80
03FFFF00
01FFFC00
003FE000
ENDCHAR
STARTCHAR 0116
ENCODING 278
SWIDTH 540 0
DWIDTH 27 0
BBX 20 46 5 0
BITMAP
00F000
01F800
01F800
01F800
01F800
00F000
000000
000000
000000
000000
FFFFF0
FFFFF0
FFFFF0
E00000
E00000
E00000
E00000
E00000
E00000
E00000
E00000
E00000
E00000
E00000
E00000
FFFFF0
FFFFF0
FFFFF0
E00000
E00000
E00000
E00000
E00000
E00000
E00000
E00000
E00000
E00000
E00000
E00000
E00000
E00000
E00000
FFFFF0
FFFFF0
FFFFF0
ENDCHAR
STARTCHAR 0117
ENCODING 279
SWIDTH 660 0
DWIDTH 33 0
BBX 29 37 2 0
BITMAP
000F0000
001F8000
001F8000
001F8000
001F8000
000F0000
00000000
00000000
00000000
00000000
003FE000
00FFF800
03FFFE00
07E03F00
0F000780
1E0003C0
3C0000E0
780000E0
70000070
70000070
F0000038
FFFFFFF8
FFFFFFF8
FFFFFFF8
E0000000
E0000000
E0000000
70000000
70000040
780000F0
3C0001E0
1E0003E0
1F000FC0
0FC03F80
03FFFF00
01FFFC00
003FE000
ENDCHAR
STARTCHAR 0118
ENCODING 280
SWIDTH 540 0
DWIDTH 27 0
BBX 20 45 5 -9
BITMAP
FFFFF0
FFFFF0
FFFFF0
E00000
E00000
E00000
E00000
E00000
E00000
E00000
E00000
E00000
E00000
E00000
E00000
FFFFF0
FFFFF0
FFFFF0
E00000
E00000
E00000
E00000
E00000
E00000
E00000
E00000
E00000
E00000
E00000
E00000
E00000
E00000
E00000
FFFFF0
FFFFF0
FFFFF0
000E00
001C00
001C00
003800
003800
003800
003C00
001FE0
0007E0
ENDCHAR
STARTCHAR 0119
ENCODING 281
SWIDTH 660 0
DWIDTH 33 0
BBX 29 36 2 -9
BITMAP
003FE000
00FFF800
03FFFE00
07E03F00
0F000780
1E0003C0
3C0000E0
780000E0
70000070
70000070
F0000038
FFFFFFF8
FFFFFFF8
FFFFFFF8
E0000000
E0000000
E0000000
70000000
70000040
780000F0
3C0001E0
1E0003E0
1F000FC0
0FC03F80
03FFFF00
01FFFC00
003FE000
00038000
00070000
00070000
000E0000
000E0000
000E0000
000F0000
0007F800
0001F800
ENDCHAR
STARTCHAR 011A
ENCODING 282
SWIDTH 540 0
DWIDTH 27 0
BBX 20 47 5 0
BITMAP
7803C0
3C0780
1E0F00
0F1E00
07BC00
03F800
01F000
000000
000000
000000
000000
FFFFF0
FFFFF0
FFFFF0
E00000
E00000
E00000
E00000
E00000
E00000
E00000
E00000
E00000
E00000
E00000
E00000
FFFFF0
FFFFF0
FFFFF0
E00000
E00000
E00000
E00000
E00000
E00000
E00000
E00000
E00000
E00000
E00000
E00000
E00000
E00000
E00000
FFFFF0
FFFFF0
FFFFF0
ENDCHAR
STARTCHAR 011B
ENCODING 283
SWIDTH 660 0
DWIDTH 33 0
BBX 29 38 2 0
BITMAP
03C01E00
01E03C00
00F07800
0078F000
003DE000
001FC000
000F8000
00000000
00000000
00000000
00000000
003FE000
00FFF800
03FFFE00
07E03F00
0F000780
1E0003C0
3C0000E0
780000E0
70000070
70000070
F0000038
FFFFFFF8
FFFFFFF8
FFFFFFF8
E0000000
E0000000
E0000000
70000000
70000040
780000F0
3C0001E0
1E0003E0
1F000FC0
0FC03F80
03FFFF00
01FFFC00
003FE000
ENDCHAR
STARTCHAR 011C
ENCODING 284
SWIDTH 880 0
DWIDTH 44 0
BBX 38 48 3 -1
BITMAP
00007C0000
0000FE0000
0001EF0000
0003C78000
000783C000
000F01E000
001E00F000
0000000000
0000000000
0000000000
0001FF8000
000FFFF000
003FFFFC00
00FE01FF00
01F8003FC0
03E0000FE0
07800003F0
0F000001E0
1E00000040
3C00000000
3800000000
7800000000
7000000000
7000000000
7000000000
E000000000
E000000000
E000000000
E000000000
E000000000
E00001FFFC
E00001FFFC
E00001FFFC
700000001C
700000001C
7800000038
7800000038
3C00000038
1C00000070
1E000000F0
0F000001E0
07800003E0
03E00007C0
01F8001F80
00FF007F00
003FFFFC00
000FFFF000
0001FF8000
ENDCHAR
STARTCHAR 011D
ENCODING 285
SWIDTH 680 0
DWIDTH 34 0
BBX 28 48 2 -10
BITMAP
001F0000
003F8000
007BC000
00F1E000
01E0F000
03C07800
07803C00
00000000
00000000
00000000
00000000
003FC070
00FFF870
03FFFE70
07E07F70
0F000FF0
1E0007F0
3C0003F0
780001F0
700000F0
700000F0
F0000070
E0000070
E0000070
E0000070
E0000070
E0000070
E0000070
700000F0
700000F0
780001F0
380001F0
1C0003F0
1F000FF0
0FC03F70
03FFFC70
01FFF870
003FC070
00000070
000000E0
E00000E0
700001E0
780003C0
3E000780
1F803F00
0FFFFE00
03FFF800
007FC000
ENDCHAR
STARTCHAR 011E
ENCODING 286
SWIDTH 880 0
DWIDTH 44 0
BBX 38 47 3 -1
BITMAP
001C007000
001E00F000
000F83E000
0007FFC000
0003FF8000
0000FE0000
0000000000
0000000000
0000000000
0001FF8000
000FFFF000
003FFFFC00
00FE01FF00
01F8003FC0
03E0000FE0
07800003F0
0F000001E0
1E00000040
3C00000000
3800000000
7800000000
7000000000
7000000000
7000000000
E000000000
E000000000
E000000000
E000000000
E000000000
E00001FFFC
E00001FFFC
E00001FFFC
700000001C
700000001C
7800000038
7800000038
3C00000038
1C00000070
1E000000F0
0F000001E0
07800003E0
03E00007C0
01F8001F80
00FF007F00
003FFFFC00
000FFFF000
0001FF8000
ENDCHAR
STARTCHAR 011F
ENCODING 287
SWIDTH 680 0
DWIDTH 34 0
BBX 28 47 2 -10
BITMAP
03800E00
03C01E00
01F07C00
00FFF800
007FF000
001FC000
00000000
00000000
00000000
00000000
003FC070
00FFF870
03FFFE70
07E07F70
0F000FF0
1E0007F0
3C0003F0
780001F0
700000F0
700000F0
F0000070
E0000070
E0000070
E0000070
E0000070
E0000070
E0000070
700000F0
700000F0
780001F0
380001F0
1C0003F0
1F000FF0
0FC03F70
03FFFC70
01FFF870
003FC070
00000070
000000E0
E00000E0
700001E0
780003C0
3E000780
1F803F00
0FFFFE00
03FFF800
007FC000
ENDCHAR
STARTCHAR 0120
ENCODING 288
SWIDTH 880 0
DWIDTH 44 0
BBX 38 47 3 -1
BITMAP
0000780000
0000FC0000
0000FC0000
0000FC0000
0000FC0000
0000780000
0000000000
0000000000
0000000000
0001FF8000
000FFFF000
003FFFFC00
00FE01FF00
01F8003FC0
03E0000FE0
07800003F0
0F000001E0
1E00000040
3C00000000
3800000000
7800000000
7000000000
7000000000
7000000000
E000000000
E000000000
E000000000
E000000000
E000000000
E00001FFFC
E00001FFFC
E00001FFFC
700000001C
700000001C
7800000038
7800000038
3C00000038
1C00000070
1E000000F0
0F000001E0
07800003E0
03E00007C0
01F8001F80
00FF007F00
003FFFFC00
000FFFF000
0001FF8000
ENDCHAR
STARTCHAR 0121
ENCODING 289
SWIDTH 680 0
DWIDTH 34 0
BBX 28 47 2 -10
BITMAP
000F0000
001F8000
001F8000
001F8000
001F8000
000F0000
00000000
00000000
00000000
00000000
003FC070
00FFF870
03FFFE70
07E07F70
0F000FF0
1E0007F0
3C0003F0
780001F0
700000F0
700000F0
F0000070
E0000070
E0000070
E0000070
E0000070
E0000070
E0000070
700000F0
700000F0
780001F0
380001F0
1C0003F0
1F000FF0
0FC03F70
03FFFC70
01FFF870
003FC070
00000070
000000E0
E00000E0
700001E0
780003C0
3E000780
1F803F00
0FFFFE00
03FFF800
007FC000
ENDCHAR
STARTCHAR 0122
ENCODING 290
SWIDTH 880 0
DWIDTH 44 0
BBX 38 47 3 -10
BITMAP
0001FF8000
000FFFF000
003FFFFC00
00FE01FF00
01F8003FC0
03E0000FE0
07800003F0
0F000001E0
1E00000040
3C00000000
3800000000
7800000000
7000000000
7000000000
7000000000
E000000000
E000000000
E000000000
E000000000
E000000000
E00001FFFC
E00001FFFC
E00001FFFC
700000001C
700000001C
7800000038
7800000038
3C00000038
1C00000070
1E000000F0
0F000001E0
07800003E0
03E00007C0
01F8001F80
00FF007F00
003FFFFC00
000FFFF000
0001FF8000
0000180000
0000180000
00001E0000
00003F0000
0000070000
0000070000
00000F0000
0001FE0000
0000F80000
ENDCHAR
STARTCHAR 0123
ENCODING 291
SWIDTH 680 0
DWIDTH 34 0
BBX 28 55 2 -10
BITMAP
00020000
00060000
00060000
00060000
000C0000
000C0000
000C0000
000F0000
000F0000
000F0000
000F0000
000F0000
000F0000
000F0000
00000000
00000000
00000000
00000000
003FC070
00FFF870
03FFFE70
07E07F70
0F000FF0
1E0007F0
3C0003F0
780001F0
700000F0
700000F0
F0000070
E0000070
E0000070
E0000070
E0000070
E0000070
E0000070
700000F0
700000F0
780001F0
380001F0
1C0003F0
1F000FF0
0FC03F70
03FFFC70
01FFF870
003FC070
00000070
000000E0
E00000E0
700001E0
780003C0
3E000780
1F803F00
0FFFFE00
03FFF800
007FC000
ENDCHAR
STARTCHAR 0124
ENCODING 292
SWIDTH 680 0
DWIDTH 34 0
BBX 24 47 5 0
BITMAP
007C00
00FE00
01EF00
03C780
0783C0
0F01E0
1E00F0
000000
000000
000000
000000
E00007
E00007
E00007
E00007
E00007
E00007
E00007
E00007
E00007
E00007
E00007
E00007
E00007
E00007
E00007
E00007
FFFFFF
FFFFFF
FFFFFF
E00007
E00007
E00007
E00007
E00007
E00007
E00007
E00007
E00007
E00007
E00007
E00007
E00007
E00007
E00007
E00007
E00007
ENDCHAR
STARTCHAR 0125
ENCODING 293
SWIDTH 620 0
DWIDTH 31 0
BBX 23 47 4 0
BITMAP
007C00
00FE00
01EF00
03C780
0783C0
0F01E0
1E00F0
000000
000000
000000
E00000
E00000
E00000
E00000
E00000
E00000
E00000
E00000
E00000
E00000
E03F00
E1FFC0
E3FFF0
E7C0F8
EF0078
FC003C
F8001C
F8001C
F0000E
F0000E
E0000E
E0000E
E0000E
E0000E
E0000E
E0000E
E0000E
E0000E
E0000E
E0000E
E0000E
E0000E
E0000E
E0000E
E0000E
E0000E
E0000E
ENDCHAR
STARTCHAR 0126
ENCODING 294
SWIDTH 680 0
DWIDTH 34 0
BBX 30 36 2 0
BITMAP
1C0000E0
1C0000E0
1C0000E0
1C0000E0
1C0000E0
1C0000E0
1C0000E0
FFFFFFFC
FFFFFFFC
FFFFFFFC
1C0000E0
1C0000E0
1C0000E0
1C0000E0
1C0000E0
1C0000E0
1FFFFFE0
1FFFFFE0
1FFFFFE0
1C0000E0
1C0000E0
1C0000E0
1C0000E0
1C0000E0
1C0000E0
1C0000E0
1C0000E0
1C0000E0
1C0000E0
1C0000E0
1C0000E0
1C0000E0
1C0000E0
1C0000E0
1C0000E0
1C0000E0
ENDCHAR
STARTCHAR 0127
ENCODING 295
SWIDTH 620 0
DWIDTH 31 0
BBX 27 37 0 0
BITMAP
0E000000
0E000000
0E000000
0E000000
FFFF0000
FFFF0000
FFFF0000
0E000000
0E000000
0E000000
0E03F000
0E1FFC00
0E3FFF00
0E7C0F80
0EF00780
0FC003C0
0F8001C0
0F8001C0
0F0000E0
0F0000E0
0E0000E0
0E0000E0
0E0000E0
0E0000E0
0E0000E0
0E0000E0
0E0000E0
0E0000E0
0E0000E0
0E0000E0
0E0000E0
0E0000E0
0E0000E0
0E0000E0
0E0000E0
0E0000E0
0E0000E0
ENDCHAR
STARTCHAR 0128
ENCODING 296
SWIDTH 260 0
DWIDTH 13 0
BBX 18 45 -2 0
BITMAP
1F0000
7FC180
FFFF80
70FFC0
403F00
000000
000000
000000
000000
01C000
01C000
01C000
01C000
01C000
01C000
01C000
01C000
01C000
01C000
01C000
01C000
01C000
01C000
01C000
01C000
01C000
01C000
01C000
01C000
01C000
01C000
01C000
01C000
01C000
01C000
01C000
01C000
01C000
01C000
01C000
01C000
01C000
01C000
01C000
01C000
ENDCHAR
STARTCHAR 0129
ENCODING 297
SWIDTH 220 0
DWIDTH 11 0
BBX 18 36 -3 0
BITMAP
1F0000
7FC180
FFFF80
70FFC0
403F00
000000
000000
000000
000000
01C000
01C000
01C000
01C000
01C000
01C000
01C000
01C000
01C000
01C000
01C000
01C000
01C000
01C000
01C000
01C000
01C000
01C000
01C000
01C000
01C000
01C000
01C000
01C000
01C000
01C000
01C000
ENDCHAR
STARTCHAR 012A
ENCODING 298
SWIDTH 260 0
DWIDTH 13 0
BBX 16 43 -1 0
BITMAP
FFFF
FFFF
FFFF
0000
0000
0000
0000
0380
0380
0380
0380
0380
0380
0380
0380
0380
0380
0380
0380
0380
0380
0380
0380
0380
0380
0380
0380
0380
0380
0380
0380
0380
0380
0380
0380
0380
0380
0380
0380
0380
0380
0380
0380
ENDCHAR
STARTCHAR 012B
ENCODING 299
SWIDTH 220 0
DWIDTH 11 0
BBX 16 36 -2 0
BITMAP
FFFF
FFFF
FFFF
0000
0000
0000
0000
0000
0000
0380
0380
0380
0380
0380
0380
0380
0380
0380
0380
0380
0380
0380
0380
0380
0380
0380
0380
0380
0380
0380
0380
0380
0380
0380
0380
0380
ENDCHAR
STARTCHAR 012C
ENCODING 300
SWIDTH 260 0
DWIDTH 13 0
BBX 17 46 -2 0
BITMAP
E00380
F00780
7C1F00
3FFE00
1FFC00
07F000
000000
000000
000000
000000
01C000
01C000
01C000
01C000
01C000
01C000
01C000
01C000
01C000
01C000
01C000
01C000
01C000
01C000
01C000
01C000
01C000
01C000
01C000
01C000
01C000
01C000
01C000
01C000
01C000
01C000
01C000
01C000
01C000
01C000
01C000
01C000
01C000
01C000
01C000
01C000
ENDCHAR
STARTCHAR 012D
ENCODING 301
SWIDTH 220 0
DWIDTH 11 0
BBX 17 37 -3 0
BITMAP
E00380
F00780
7C1F00
3FFE00
1FFC00
07F000
000000
000000
000000
000000
01C000
01C000
01C000
01C000
01C000
01C000
01C000
01C000
01C000
01C000
01C000
01C000
01C000
01C000
01C000
01C000
01C000
01C000
01C000
01C000
01C000
01C000
01C000
01C000
01C000
01C000
01C000
ENDCHAR
STARTCHAR 012E
ENCODING 302
SWIDTH 260 0
DWIDTH 13 0
BBX 9 45 2 -9
BITMAP
1C00
1C00
1C00
1C00
1C00
1C00
1C00
1C00
1C00
1C00
1C00
1C00
1C00
1C00
1C00
1C00
1C00
1C00
1C00
1C00
1C00
1C00
1C00
1C00
1C00
1C00
1C00
1C00
1C00
1C00
1C00
1C00
1C00
1C00
1C00
1C00
3800
7000
7000
E000
E000
E000
F000
7F80
1F80
ENDCHAR
STARTCHAR 012F
ENCODING 303
SWIDTH 180 0
DWIDTH 9 0
BBX 9 46 0 -9
BITMAP
1C00
3E00
3E00
3E00
3E00
1C00
0000
0000
0000
0000
1C00
1C00
1C00
1C00
1C00
1C00
1C00
1C00
1C00
1C00
1C00
1C00
1C00
1C00
1C00
1C00
1C00
1C00
1C00
1C00
1C00
1C00
1C00
1C00
1C00
1C00
1C00
3800
7000
7000
E000
E000
E000
F000
7F80
1F80
ENDCHAR
STARTCHAR 0130
ENCODING 304
SWIDTH 260 0
DWIDTH 13 0
BBX 6 46 4 0
BITMAP
78
FC
FC
FC
FC
78
00
00
00
00
70
70
70
70
70
70
70
70
70
70
70
70
70
70
70
70
70
70
70
70
70
70
70
70
70
70
70
70
70
70
70
70
70
70
70
70
ENDCHAR
STARTCHAR 0131
ENCODING 305
SWIDTH 220 0
DWIDTH 11 0
BBX 3 27 4 0
BITMAP
E0
E0
E0
E0
E0
E0
E0
E0
E0
E0
E0
E0
E0
E0
E0
E0
E0
E0
E0
E0
E0
E0
E0
E0
E0
E0
E0
ENDCHAR
STARTCHAR 0132
ENCODING 306
SWIDTH 700 0
DWIDTH 35 0
BBX 25 37 5 -1
BITMAP
E0000380
E0000380
E0000380
E0000380
E0000380
E0000380
E0000380
E0000380
E0000380
E0000380
E0000380
E0000380
E0000380
E0000380
E0000380
E0000380
E0000380
E0000380
E0000380
E0000380
E0000380
E0000380
E0000380
E0000380
E0000380
E0000380
E0000380
E0000380
E0000380
E0000380
E0000380
E0200700
E0700F00
E0FE1F00
E07FFE00
E01FFC00
0007F000
ENDCHAR
STARTCHAR 0133
ENCODING 307
SWIDTH 400 0
DWIDTH 20 0
BBX 16 47 2 -10
BITMAP
700E
F81F
F81F
F81F
F81F
700E
0000
0000
0000
0000
700E
700E
700E
700E
700E
700E
700E
700E
700E
700E
700E
700E
700E
700E
700E
700E
700E
700E
700E
700E
700E
700E
700E
700E
700E
700E
700E
000E
000E
000E
000E
000E
000E
001E
01FC
01FC
00F8
ENDCHAR
STARTCHAR 0134
ENCODING 308
SWIDTH 480 0
DWIDTH 24 0
BBX 21 48 2 -1
BITMAP
003E00
007F00
00F780
01E3C0
03C1E0
0780F0
0F0078
000000
000000
000000
000000
000380
000380
000380
000380
000380
000380
000380
000380
000380
000380
000380
000380
000380
000380
000380
000380
000380
000380
000380
000380
000380
000380
000380
000380
000380
000380
000380
000380
000380
000380
000780
200700
700F00
FE1F00
7FFE00
3FFC00
07F000
ENDCHAR
STARTCHAR 0135
ENCODING 309
SWIDTH 220 0
DWIDTH 11 0
BBX 17 48 -3 -10
BITMAP
03E000
07F000
0F7800
1E3C00
3C1E00
780F00
F00780
000000
000000
000000
000000
01C000
01C000
01C000
01C000
01C000
01C000
01C000
01C000
01C000
01C000
01C000
01C000
01C000
01C000
01C000
01C000
01C000
01C000
01C000
01C000
01C000
01C000
01C000
01C000
01C000
01C000
01C000
01C000
01C000
01C000
01C000
01C000
01C000
03C000
3F8000
3F8000
1F0000
ENDCHAR
STARTCHAR 0136
ENCODING 310
SWIDTH 600 0
DWIDTH 30 0
BBX 24 46 5 -10
BITMAP
E0001E
E0007C
E000F8
E001E0
E003C0
E00780
E00F00
E01E00
E07C00
E0F000
E1E000
E3C000
E78000
EF0000
FE0000
FC0000
F80000
FC0000
FE0000
EF0000
E78000
E3C000
E1E000
E0F000
E07800
E03C00
E01E00
E00F00
E00780
E003C0
E001E0
E000F0
E00078
E0003C
E0001E
E0000F
000000
000000
000000
01F000
01F800
003800
003800
007800
07F000
0FC000
ENDCHAR
STARTCHAR 0137
ENCODING 311
SWIDTH 500 0
DWIDTH 25 0
BBX 21 47 4 -10
BITMAP
E00000
E00000
E00000
E00000
E00000
E00000
E00000
E00000
E00000
E00000
E001E0
E003C0
E00780
E00F00
E01E00
E03C00
E07800
E0F000
E1E000
E7C000
EF0000
FE0000
FC0000
FC0000
FE0000
EF0000
E7C000
E3E000
E0F000
E07800
E03C00
E01E00
E00F00
E00780
E003C0
E001F0
E000F8
000000
000000
000000
03E000
03F000
007000
007000
00F000
0FE000
1F8000
ENDCHAR
STARTCHAR 0138
ENCODING 312
SWIDTH 500 0
DWIDTH 25 0
BBX 21 27 4 0
BITMAP
E001E0
E003C0
E00780
E00F00
E01E00
E03C00
E07800
E0F000
E1E000
E7C000
EF0000
FE0000
FC0000
FC0000
FE0000
EF0000
E7C000
E3E000
E0F000
E07800
E03C00
E01E00
E00F00
E00780
E003C0
E001F0
E000F8
ENDCHAR
STARTCHAR 0139
ENCODING 313
SWIDTH 460 0
DWIDTH 23 0
BBX 17 48 5 0
BITMAP
00F800
01F000
03E000
03C000
078000
070000
0E0000
1E0000
000000
000000
000000
000000
E00000
E00000
E00000
E00000
E00000
E00000
E00000
E00000
E00000
E00000
E00000
E00000
E00000
E00000
E00000
E00000
E00000
E00000
E00000
E00000
E00000
E00000
E00000
E00000
E00000
E00000
E00000
E00000
E00000
E00000
E00000
E00000
E00000
FFFF80
FFFF80
FFFF80
ENDCHAR
STARTCHAR 013A
ENCODING 314
SWIDTH 220 0
DWIDTH 11 0
BBX 10 48 2 0
BITMAP
07C0
0F80
1F00
1E00
3C00
3800
7000
F000
0000
0000
0000
3800
3800
3800
3800
3800
3800
3800
3800
3800
3800
3800
3800
3800
3800
3800
3800
3800
3800
3800
3800
3800
3800
3800
3800
3800
3800
3800
3800
3800
3800
3800
3800
3800
3800
3800
3800
3800
ENDCHAR
STARTCHAR 013B
ENCODING 315
SWIDTH 460 0
DWIDTH 23 0
BBX 17 46 5 -10
BITMAP
E00000
E00000
E00000
E00000
E00000
E00000
E00000
E00000
E00000
E00000
E00000
E00000
E00000
E00000
E00000
E00000
E00000
E00000
E00000
E00000
E00000
E00000
E00000
E00000
E00000
E00000
E00000
E00000
E00000
E00000
E00000
E00000
E00000
FFFF80
FFFF80
FFFF80
000000
000000
000000
03E000
03F000
007000
007000
00F000
0FE000
1F8000
ENDCHAR
STARTCHAR 013C
ENCODING 316
SWIDTH 220 0
DWIDTH 11 0
BBX 9 47 0 -10
BITMAP
0E00
0E00
0E00
0E00
0E00
0E00
0E00
0E00
0E00
0E00
0E00
0E00
0E00
0E00
0E00
0E00
0E00
0E00
0E00
0E00
0E00
0E00
0E00
0E00
0E00
0E00
0E00
0E00
0E00
0E00
0E00
0E00
0E00
0E00
0E00
0E00
0E00
0000
0000
0000
1F00
1F80
0380
0380
0780
7F00
FC00
ENDCHAR
STARTCHAR 013D
ENCODING 317
SWIDTH 460 0
DWIDTH 23 0
BBX 17 36 5 0
BITMAP
E3C000
E3C000
E3C000
E3C000
E3C000
E3C000
E3C000
E0C000
E0C000
E0C000
E18000
E18000
E18000
E10000
E00000
E00000
E00000
E00000
E00000
E00000
E00000
E00000
E00000
E00000
E00000
E00000
E00000
E00000
E00000
E00000
E00000
E00000
E00000
FFFF80
FFFF80
FFFF80
ENDCHAR
STARTCHAR 013E
ENCODING 318
SWIDTH 200 0
DWIDTH 10 0
BBX 9 37 3 0
BITMAP
E780
E780
E780
E780
E780
E780
E180
E180
E300
E300
E700
E200
E000
E000
E000
E000
E000
E000
E000
E000
E000
E000
E000
E000
E000
E000
E000
E000
E000
E000
E000
E000
E000
E000
E000
E000
E000
ENDCHAR
STARTCHAR 013F
ENCODING 319
SWIDTH 460 0
DWIDTH 23 0
BBX 17 36 5 0
BITMAP
E00000
E00000
E00000
E00000
E00000
E00000
E00000
E00000
E00000
E00000
E00000
E00000
E00000
E00000
E00000
E0F000
E1F800
E1F800
E1F800
E1F800
E0F000
E00000
E00000
E00000
E00000
E00000
E00000
E00000
E00000
E00000
E00000
E00000
E00000
FFFF80
FFFF80
FFFF80
ENDCHAR
STARTCHAR 0140
ENCODING 320
SWIDTH 260 0
DWIDTH 13 0
BBX 11 37 4 0
BITMAP
E000
E000
E000
E000
E000
E000
E000
E000
E000
E000
E000
E000
E000
E000
E000
E000
E3C0
E7E0
E7E0
E7E0
E7E0
E3C0
E000
E000
E000
E000
E000
E000
E000
E000
E000
E000
E000
E000
E000
E000
E000
ENDCHAR
STARTCHAR 0141
ENCODING 321
SWIDTH 520 0
DWIDTH 26 0
BBX 23 36 2 0
BITMAP
070000
070000
070000
070000
070000
070000
070000
070000
070000
070100
070300
070700
070F00
073E00
077800
07F000
07E000
07C000
078000
0F0000
1F0000
7F0000
F70000
E70000
C70000
870000
070000
070000
070000
070000
070000
070000
070000
07FFFE
07FFFE
07FFFE
ENDCHAR
STARTCHAR 0142
ENCODING 322
SWIDTH 300 0
DWIDTH 15 0
BBX 13 37 1 0
BITMAP
0700
0700
0700
0700
0700
0700
0700
0700
0700
0700
0708
0718
0738
07F8
07F0
07C0
0F80
1F00
7F00
FF00
E700
C700
8700
0700
0700
0700
0700
0700
0700
0700
0700
0700
0700
0700
0700
0700
0700
ENDCHAR
STARTCHAR 0143
ENCODING 323
SWIDTH 740 0
DWIDTH 37 0
BBX 27 48 5 0
BITMAP
0003E000
0007C000
000F8000
000F0000
001E0000
001C0000
00380000
00780000
00000000
00000000
00000000
00000000
800000E0
C00000E0
E00000E0
E00000E0
F00000E0
F80000E0
FC0000E0
FE0000E0
EF0000E0
E70000E0
E78000E0
E3C000E0
E1E000E0
E0F000E0
E07800E0
E07800E0
E03C00E0
E01E00E0
E00F00E0
E00780E0
E00380E0
E003C0E0
E001E0E0
E000F0E0
E00078E0
E0003CE0
E0001CE0
E0001EE0
E0000FE0
E00007E0
E00003E0
E00001E0
E00001E0
E00000E0
E0000060
E0000020
ENDCHAR
STARTCHAR 0144
ENCODING 324
SWIDTH 620 0
DWIDTH 31 0
BBX 23 39 4 0
BITMAP
000F80
001F00
003E00
003C00
007800
007000
00E000
01E000
000000
000000
000000
000000
E07F00
E1FFC0
E7FFF0
EFC1F8
FF0078
FC003C
F8001C
F8001C
F0000E
F0000E
E0000E
E0000E
E0000E
E0000E
E0000E
E0000E
E0000E
E0000E
E0000E
E0000E
E0000E
E0000E
E0000E
E0000E
E0000E
E0000E
E0000E
ENDCHAR
STARTCHAR 0145
ENCODING 325
SWIDTH 740 0
DWIDTH 37 0
BBX 27 46 5 -10
BITMAP
800000E0
C00000E0
E00000E0
E00000E0
F00000E0
F80000E0
FC0000E0
FE0000E0
EF0000E0
E70000E0
E78000E0
E3C000E0
E1E000E0
E0F000E0
E07800E0
E07800E0
E03C00E0
E01E00E0
E00F00E0
E00780E0
E00380E0
E003C0E0
E001E0E0
E000F0E0
E00078E0
E0003CE0
E0001CE0
E0001EE0
E0000FE0
E00007E0
E00003E0
E00001E0
E00001E0
E00000E0
E0000060
E0000020
00000000
00000000
00000000
001F0000
001F8000
00038000
00038000
00078000
007F0000
00FC0000
ENDCHAR
STARTCHAR 0146
ENCODING 326
SWIDTH 620 0
DWIDTH 31 0
BBX 23 37 4 -10
BITMAP
E07F00
E1FFC0
E7FFF0
EFC1F8
FF0078
FC003C
F8001C
F8001C
F0000E
F0000E
E0000E
E0000E
E0000E
E0000E
E0000E
E0000E
E0000E
E0000E
E0000E
E0000E
E0000E
E0000E
E0000E
E0000E
E0000E
E0000E
E0000E
000000
000000
000000
007C00
007E00
000E00
000E00
001E00
01FC00
03F000
ENDCHAR
STARTCHAR 0147
ENCODING 327
SWIDTH 740 0
DWIDTH 37 0
BBX 27 47 5 0
BITMAP
07803C00
03C07800
01E0F000
00F1E000
007BC000
003F8000
001F0000
00000000
00000000
00000000
00000000
800000E0
C00000E0
E00000E0
E00000E0
F00000E0
F80000E0
FC0000E0
FE0000E0
EF0000E0
E70000E0
E78000E0
E3C000E0
E1E000E0
E0F000E0
E07800E0
E07800E0
E03C00E0
E01E00E0
E00F00E0
E00780E0
E00380E0
E003C0E0
E001E0E0
E000F0E0
E00078E0
E0003CE0
E0001CE0
E0001EE0
E0000FE0
E00007E0
E00003E0
E00001E0
E00001E0
E00000E0
E0000060
E0000020
ENDCHAR
STARTCHAR 0148
ENCODING 328
SWIDTH 620 0
DWIDTH 31 0
BBX 23 38 4 0
BITMAP
1E00F0
0F01E0
0783C0
03C780
01EF00
00FE00
007C00
000000
000000
000000
000000
E07F00
E1FFC0
E7FFF0
EFC1F8
FF0078
FC003C
F8001C
F8001C
F0000E
F0000E
E0000E
E0000E
E0000E
E0000E
E0000E
E0000E
E0000E
E0000E
E0000E
E0000E
E0000E
E0000E
E0000E
E0000E
E0000E
E0000E
E0000E
ENDCHAR
STARTCHAR 0149
ENCODING 329
SWIDTH 620 0
DWIDTH 31 0
BBX 28 37 -1 0
BITMAP
F0000000
F0000000
F0000000
F0000000
F0000000
F0000000
F0000000
30000000
30000000
30000000
6703F800
670FFE00
673FFF80
477E0FC0
07F803C0
07E001E0
07C000E0
07C000E0
07800070
07800070
07000070
07000070
07000070
07000070
07000070
07000070
07000070
07000070
07000070
07000070
07000070
07000070
07000070
07000070
07000070
07000070
07000070
ENDCHAR
STARTCHAR 014A
ENCODING 330
SWIDTH 780 0
DWIDTH 39 0
BBX 31 37 5 0
BITMAP
001FE000
E0FFF800
E3FFFE00
E7E03F80
EF0007C0
FE0003E0
F80001E0
F00000F0
E0000078
E0000038
E0000038
E000001C
E000001C
E000001C
E000000E
E000000E
E000000E
E000000E
E000000E
E000000E
E000000E
E000000E
E000000E
E000001E
E000001C
E000001C
E000001C
E0000038
E0000038
E0000078
E00000F0
E06001E0
E0F803C0
E07E0F80
E03FFF00
E00FFE00
E003F000
ENDCHAR
STARTCHAR 014B
ENCODING 331
SWIDTH 620 0
DWIDTH 31 0
BBX 23 37 4 -10
BITMAP
E03F00
E1FFC0
E3FFF0
E7C0F8
EF0078
FC003C
F8001C
F8001C
F0000E
F0000E
E0000E
E0000E
E0000E
E0000E
E0000E
E0000E
E0000E
E0000E
E0000E
E0000E
E0000E
E0000E
E0000E
E0000E
E0000E
E0000E
E0000E
00000E
00000E
00000E
00000E
00000E
00000E
00001E
0001FC
0001FC
0000F8
ENDCHAR
STARTCHAR 014C
ENCODING 332
SWIDTH 860 0
DWIDTH 43 0
BBX 37 44 3 -1
BITMAP
003FFFC000
003FFFC000
003FFFC000
0000000000
0000000000
0000000000
0003FE0000
001FFFC000
007FFFF000
00FE03F800
03F0007E00
07C0001F00
0F80000F80
0F00000780
1E000003C0
3C000001E0
38000000E0
78000000F0
7000000070
7000000070
7000000078
E000000038
E000000038
E000000038
E000000038
E000000038
E000000038
E000000038
E000000038
F000000078
7000000070
7000000070
78000000F0
38000000E0
3C000001E0
1E000003C0
0F00000780
0F80000F80
07C0001F00
03F0007E00
00FC03F800
007FFFF000
001FFFC000
0003FE0000
ENDCHAR
STARTCHAR 014D
ENCODING 333
SWIDTH 660 0
DWIDTH 33 0
BBX 29 36 2 0
BITMAP
01FFFE00
01FFFE00
01FFFE00
00000000
00000000
00000000
00000000
00000000
00000000
003FC000
00FFF800
03FFFE00
07E03F00
0F800F80
1E0003C0
3C0001E0
780000E0
70000070
70000070
E0000078
E0000038
E0000038
E0000038
E0000038
E0000038
E0000038
70000070
70000070
780000F0
3C0001E0
1E0003C0
0F000780
07E03F00
03FFFE00
00FFF800
003FE000
ENDCHAR
STARTCHAR 014E
ENCODING 334
SWIDTH 860 0
DWIDTH 43 0
BBX 37 47 3 -1
BITMAP
003800E000
003C01E000
001F07C000
000FFF8000
0007FF0000
0001FC0000
0000000000
0000000000
0000000000
0003FE0000
001FFFC000
007FFFF000
00FE03F800
03F0007E00
07C0001F00
0F80000F80
0F00000780
1E000003C0
3C000001E0
38000000E0
78000000F0
7000000070
7000000070
7000000078
E000000038
E000000038
E000000038
E000000038
E000000038
E000000038
E000000038
E000000038
F000000078
7000000070
7000000070
78000000F0
38000000E0
3C000001E0
1E000003C0
0F00000780
0F80000F80
07C0001F00
03F0007E00
00FC03F800
007FFFF000
001FFFC000
0003FE0000
ENDCHAR
STARTCHAR 014F
ENCODING 335
SWIDTH 660 0
DWIDTH 33 0
BBX 29 37 2 0
BITMAP
03800E00
03C01E00
01F07C00
00FFF800
007FF000
001FC000
00000000
00000000
00000000
00000000
003FC000
00FFF800
03FFFE00
07E03F00
0F800F80
1E0003C0
3C0001E0
780000E0
70000070
70000070
E0000078
E0000038
E0000038
E0000038
E0000038
E0000038
E0000038
70000070
70000070
780000F0
3C0001E0
1E0003C0
0F000780
07E03F00
03FFFE00
00FFF800
003FE000
ENDCHAR
STARTCHAR 0150
ENCODING 336
SWIDTH 860 0
DWIDTH 43 0
BBX 37 49 3 -1
BITMAP
00003E7C00
00007CF800
0000F9F000
0000F1E000
0001E3C000
0001C38000
0003870000
00078F0000
0000000000
0000000000
0000000000
0003FE0000
001FFFC000
007FFFF000
00FE03F800
03F0007E00
07C0001F00
0F80000F80
0F00000780
1E000003C0
3C000001E0
38000000E0
78000000F0
7000000070
7000000070
7000000078
E000000038
E000000038
E000000038
E000000038
E000000038
E000000038
E000000038
E000000038
F000000078
7000000070
7000000070
78000000F0
38000000E0
3C000001E0
1E000003C0
0F00000780
0F80000F80
07C0001F00
03F0007E00
00FC03F800
007FFFF000
001FFFC000
0003FE0000
ENDCHAR
STARTCHAR 0151
ENCODING 337
SWIDTH 660 0
DWIDTH 33 0
BBX 29 39 2 0
BITMAP
0007CF80
000F9F00
001F3E00
001E3C00
003C7800
00387000
0070E000
00F1E000
00000000
00000000
00000000
00000000
003FC000
00FFF800
03FFFE00
07E03F00
0F800F80
1E0003C0
3C0001E0
780000E0
70000070
70000070
E0000078
E0000038
E0000038
E0000038
E0000038
E0000038
E0000038
70000070
70000070
780000F0
3C0001E0
1E0003C0
0F000780
07E03F00
03FFFE00
00FFF800
003FE000
ENDCHAR
STARTCHAR 0152
ENCODING 338
SWIDTH 1200 0
DWIDTH 60 0
BBX 55 38 3 -1
BITMAP
0001FE00000000
000FFFC03FFFFE
003FFFF03FFFFE
00FE03F83FFFFE
01F0007E380000
03C0001F380000
0780000FB80000
0F000007F80000
1E000003F80000
1C000001F80000
38000000F80000
38000000F80000
70000000780000
70000000780000
70000000780000
E0000000380000
E00000003FFFFE
E00000003FFFFE
E00000003FFFFE
E0000000380000
E0000000380000
E0000000380000
E0000000380000
F0000000780000
70000000780000
70000000780000
78000000F80000
38000000F80000
3C000001F80000
1E000003F80000
0F000007F80000
0780000FB80000
07C0001F380000
03F0007E380000
00FE01FC3FFFFE
007FFFF03FFFFE
001FFFC03FFFFE
0003FE00000000
ENDCHAR
STARTCHAR 0153
ENCODING 339
SWIDTH 1140 0
DWIDTH 57 0
BBX 52 27 2 0
BITMAP
003FC0001FC000
00FFF800FFF800
03FFFC03FFFC00
07E07E07E03F00
0F000F0F800F80
1E00079F000380
3C0003DE0001C0
780001FC0001E0
700000F80000E0
700000F80000F0
E0000070000070
E000007FFFFFF0
E000007FFFFFF0
E000007FFFFFF0
E0000070000000
E0000070000000
E0000070000000
700000F8000000
700000F8000080
780001FC0001E0
3C0003DC0003C0
1E0007DE0007C0
0F000F8F800F80
07E07F07E03F00
03FFFC03FFFE00
00FFF800FFF800
003FC0001FC000
ENDCHAR
STARTCHAR 0154
ENCODING 340
SWIDTH 600 0
DWIDTH 30 0
BBX 22 48 5 0
BITMAP
001F00
003E00
007C00
007800
00F000
00E000
01C000
03C000
000000
000000
000000
000000
FFFE00
FFFFC0
FFFFE0
E001F0
E00078
E00038
E0003C
E0001C
E0001C
E0001C
E0001C
E0001C
E0003C
E00038
E00078
E001F0
FFFFE0
FFFF80
FFFC00
E3C000
E1C000
E1E000
E0F000
E07800
E03C00
E01C00
E01E00
E00F00
E00780
E00380
E003C0
E001E0
E000F0
E00070
E00078
E0003C
ENDCHAR
STARTCHAR 0155
ENCODING 341
SWIDTH 300 0
DWIDTH 15 0
BBX 14 39 2 0
BITMAP
01F0
03E0
07C0
0780
0F00
0E00
1C00
3C00
0000
0000
0000
0000
E1F8
E7FC
EFF8
FF00
FC00
F800
F800
F000
F000
F000
E000
E000
E000
E000
E000
E000
E000
E000
E000
E000
E000
E000
E000
E000
E000
E000
E000
ENDCHAR
STARTCHAR 0156
ENCODING 342
SWIDTH 600 0
DWIDTH 30 0
BBX 22 46 5 -10
BITMAP
FFFE00
FFFFC0
FFFFE0
E001F0
E00078
E00038
E0003C
E0001C
E0001C
E0001C
E0001C
E0001C
E0003C
E00038
E00078
E001F0
FFFFE0
FFFF80
FFFC00
E3C000
E1C000
E1E000
E0F000
E07800
E03C00
E01C00
E01E00
E00F00
E00780
E00380
E003C0
E001E0
E000F0
E00070
E00078
E0003C
000000
000000
000000
00F800
00FC00
001C00
001C00
003C00
03F800
07E000
ENDCHAR
STARTCHAR 0157
ENCODING 343
SWIDTH 300 0
DWIDTH 15 0
BBX 15 37 1 -10
BITMAP
70FC
73FE
77FC
7F80
7E00
7C00
7C00
7800
7800
7800
7000
7000
7000
7000
7000
7000
7000
7000
7000
7000
7000
7000
7000
7000
7000
7000
7000
0000
0000
0000
1F00
1F80
0380
0380
0780
7F00
FC00
ENDCHAR
STARTCHAR 0158
ENCODING 344
SWIDTH 600 0
DWIDTH 30 0
BBX 22 47 5 0
BITMAP
7803C0
3C0780
1E0F00
0F1E00
07BC00
03F800
01F000
000000
000000
000000
000000
FFFE00
FFFFC0
FFFFE0
E001F0
E00078
E00038
E0003C
E0001C
E0001C
E0001C
E0001C
E0001C
E0003C
E00038
E00078
E001F0
FFFFE0
FFFF80
FFFC00
E3C000
E1C000
E1E000
E0F000
E07800
E03C00
E01C00
E01E00
E00F00
E00780
E00380
E003C0
E001E0
E000F0
E00070
E00078
E0003C
ENDCHAR
STARTCHAR 0159
ENCODING 345
SWIDTH 300 0
DWIDTH 15 0
BBX 17 38 0 0
BITMAP
F00780
780F00
3C1E00
1E3C00
0F7800
07F000
03E000
000000
000000
000000
000000
387E00
39FF00
3BFE00
3FC000
3F0000
3E0000
3E0000
3C0000
3C0000
3C0000
380000
380000
380000
380000
380000
380000
380000
380000
380000
380000
380000
380000
380000
380000
380000
380000
380000
ENDCHAR
STARTCHAR 015A
ENCODING 346
SWIDTH 500 0
DWIDTH 25 0
BBX 21 49 1 -1
BITMAP
000F80
001F00
003E00
003C00
007800
007000
00E000
01E000
000000
000000
000000
00FE00
03FF80
0FFFC0
0F07F0
1C01F8
3C0070
380020
380000
380000
380000
3C0000
1C0000
1E0000
0F0000
07C000
03E000
01F000
00FC00
003E00
001F00
000F80
0003C0
0001E0
0000F0
000070
000078
000038
000038
000038
200038
700038
F80070
7C00F0
3E01E0
1F03E0
0FFFC0
07FF00
01FC00
ENDCHAR
STARTCHAR 015B
ENCODING 347
SWIDTH 380 0
DWIDTH 19 0
BBX 16 39 1 0
BITMAP
01F0
03E0
07C0
0780
0F00
0E00
1C00
3C00
0000
0000
0000
0000
07E0
0FF8
1FFE
3C3F
780E
7004
7000
7000
7800
3C00
3E00
1F80
0FE0
03F0
00FC
003E
001E
000F
0007
0007
0007
2007
700E
F83E
7FFC
3FF8
07E0
ENDCHAR
STARTCHAR 015C
ENCODING 348
SWIDTH 500 0
DWIDTH 25 0
BBX 21 48 1 -1
BITMAP
007C00
00FE00
01EF00
03C780
0783C0
0F01E0
1E00F0
000000
000000
000000
00FE00
03FF80
0FFFC0
0F07F0
1C01F8
3C0070
380020
380000
380000
380000
3C0000
1C0000
1E0000
0F0000
07C000
03E000
01F000
00FC00
003E00
001F00
000F80
0003C0
0001E0
0000F0
000070
000078
000038
000038
000038
200038
700038
F80070
7C00F0
3E01E0
1F03E0
0FFFC0
07FF00
01FC00
ENDCHAR
STARTCHAR 015D
ENCODING 349
SWIDTH 380 0
DWIDTH 19 0
BBX 17 38 1 0
BITMAP
03E000
07F000
0F7800
1E3C00
3C1E00
780F00
F00780
000000
000000
000000
000000
07E000
0FF800
1FFE00
3C3F00
780E00
700400
700000
700000
780000
3C0000
3E0000
1F8000
0FE000
03F000
00FC00
003E00
001E00
000F00
000700
000700
000700
200700
700E00
F83E00
7FFC00
3FF800
07E000
ENDCHAR
STARTCHAR 015E
ENCODING 350
SWIDTH 500 0
DWIDTH 25 0
BBX 21 47 1 -10
BITMAP
00FE00
03FF80
0FFFC0
0F07F0
1C01F8
3C0070
380020
380000
380000
380000
3C0000
1C0000
1E0000
0F0000
07C000
03E000
01F000
00FC00
003E00
001F00
000F80
0003C0
0001E0
0000F0
000070
000078
000038
000038
000038
200038
700038
F80070
7C00F0
3E01E0
1F03E0
0FFFC0
07FF00
01FC00
003000
003000
003C00
007E00
000E00
000E00
001E00
03FC00
01F000
ENDCHAR
STARTCHAR 015F
ENCODING 351
SWIDTH 380 0
DWIDTH 19 0
BBX 16 37 1 -10
BITMAP
07E0
0FF8
1FFE
3C3F
780E
7004
7000
7000
7800
3C00
3E00
1F80
0FE0
03F0
00FC
003E
001E
000F
0007
0007
0007
2007
700E
F83E
7FFC
3FF8
07E0
0180
0180
0180
01E0
03F0
0070
0070
00F0
1FE0
0F80
ENDCHAR
STARTCHAR 0160
ENCODING 352
SWIDTH 500 0
DWIDTH 25 0
BBX 21 48 1 -1
BITMAP
3C01E0
1E03C0
0F0780
078F00
03DE00
01FC00
00F800
000000
000000
000000
00FE00
03FF80
0FFFC0
0F07F0
1C01F8
3C0070
380020
380000
380000
380000
3C0000
1C0000
1E0000
0F0000
07C000
03E000
01F000
00FC00
003E00
001F00
000F80
0003C0
0001E0
0000F0
000070
000078
000038
000038
000038
200038
700038
F80070
7C00F0
3E01E0
1F03E0
0FFFC0
07FF00
01FC00
ENDCHAR
STARTCHAR 0161
ENCODING 353
SWIDTH 380 0
DWIDTH 19 0
BBX 17 38 0 0
BITMAP
F00780
780F00
3C1E00
1E3C00
0F7800
07F000
03E000
000000
000000
000000
000000
03F000
07FC00
0FFF00
1E1F80
3C0700
380200
380000
380000
3C0000
1E0000
1F0000
0FC000
07F000
01F800
007E00
001F00
000F00
000780
000380
000380
000380
100380
380700
7C1F00
3FFE00
1FFC00
03F000
ENDCHAR
STARTCHAR 0162
ENCODING 354
SWIDTH 420 0
DWIDTH 21 0
BBX 19 47 1 -11
BITMAP
FFFFE0
FFFFE0
FFFFE0
00E000
00E000
00E000
00E000
00E000
00E000
00E000
00E000
00E000
00E000
00E000
00E000
00E000
00E000
00E000
00E000
00E000
00E000
00E000
00E000
00E000
00E000
00E000
00E000
00E000
00E000
00E000
00E000
00E000
00E000
00E000
00E000
00E000
000000
000000
000000
00E000
00E000
00E000
00E000
006000
006000
004000
00C000
ENDCHAR
STARTCHAR 0163
ENCODING 355
SWIDTH 340 0
DWIDTH 17 0
BBX 13 48 2 -11
BITMAP
0700
0700
0700
0700
0700
0700
0700
0700
0700
0700
FFF8
FFF8
FFF8
0700
0700
0700
0700
0700
0700
0700
0700
0700
0700
0700
0700
0700
0700
0700
0700
0700
0700
0700
0700
0700
0700
0700
0700
0000
0000
0000
0700
0700
0700
0700
0300
0300
0200
0600
ENDCHAR
STARTCHAR 0164
ENCODING 356
SWIDTH 420 0
DWIDTH 21 0
BBX 19 47 1 0
BITMAP
7803C0
3C0780
1E0F00
0F1E00
07BC00
03F800
01F000
000000
000000
000000
000000
FFFFE0
FFFFE0
FFFFE0
00E000
00E000
00E000
00E000
00E000
00E000
00E000
00E000
00E000
00E000
00E000
00E000
00E000
00E000
00E000
00E000
00E000
00E000
00E000
00E000
00E000
00E000
00E000
00E000
00E000
00E000
00E000
00E000
00E000
00E000
00E000
00E000
00E000
ENDCHAR
STARTCHAR 0165
ENCODING 357
SWIDTH 340 0
DWIDTH 17 0
BBX 13 37 2 0
BITMAP
0738
0738
0738
0738
0718
0718
0710
0730
0700
0700
FFF8
FFF8
FFF8
0700
0700
0700
0700
0700
0700
0700
0700
0700
0700
0700
0700
0700
0700
0700
0700
0700
0700
0700
0700
0700
0700
0700
0700
ENDCHAR
STARTCHAR 0166
ENCODING 358
SWIDTH 420 0
DWIDTH 21 0
BBX 19 36 1 0
BITMAP
FFFFE0
FFFFE0
FFFFE0
00E000
00E000
00E000
00E000
00E000
00E000
00E000
00E000
00E000
00E000
00E000
00E000
00E000
00E000
7FFFC0
7FFFC0
7FFFC0
00E000
00E000
00E000
00E000
00E000
00E000
00E000
00E000
00E000
00E000
00E000
00E000
00E000
00E000
00E000
00E000
ENDCHAR
STARTCHAR 0167
ENCODING 359
SWIDTH 340 0
DWIDTH 17 0
BBX 15 37 1 0
BITMAP
0380
0380
0380
0380
0380
0380
0380
0380
0380
0380
7FFC
7FFC
7FFC
0380
0380
0380
0380
0380
0380
0380
0380
0380
FFFE
FFFE
FFFE
0380
0380
0380
0380
0380
0380
0380
0380
0380
0380
0380
0380
ENDCHAR
STARTCHAR 0168
ENCODING 360
SWIDTH 660 0
DWIDTH 33 0
BBX 23 46 5 -1
BITMAP
07C000
1FF060
3FFFE0
1C3FF0
100FC0
000000
000000
000000
000000
E0000E
E0000E
E0000E
E0000E
E0000E
E0000E
E0000E
E0000E
E0000E
E0000E
E0000E
E0000E
E0000E
E0000E
E0000E
E0000E
E0000E
E0000E
E0000E
E0000E
E0000E
E0000E
E0000E
E0000E
E0000E
E0000E
E0000E
E0000E
E0001C
70001C
70003C
780038
3C00F8
1F83F0
0FFFE0
03FF80
00FE00
ENDCHAR
STARTCHAR 0169
ENCODING 361
SWIDTH 600 0
DWIDTH 30 0
BBX 22 36 4 0
BITMAP
07C000
1FF060
3FFFE0
1C3FF0
100FC0
000000
000000
000000
000000
E0001C
E0001C
E0001C
E0001C
E0001C
E0001C
E0001C
E0001C
E0001C
E0001C
E0001C
E0001C
E0001C
E0001C
E0001C
E0001C
E0001C
E0001C
E0001C
700038
700038
780078
3C00F0
1F03E0
0FFFC0
07FF80
01FE00
ENDCHAR
STARTCHAR 016A
ENCODING 362
SWIDTH 660 0
DWIDTH 33 0
BBX 23 44 5 -1
BITMAP
0FFFF0
0FFFF0
0FFFF0
000000
000000
000000
000000
E0000E
E0000E
E0000E
E0000E
E0000E
E0000E
E0000E
E0000E
E0000E
E0000E
E0000E
E0000E
E0000E
E0000E
E0000E
E0000E
E0000E
E0000E
E0000E
E0000E
E0000E
E0000E
E0000E
E0000E
E0000E
E0000E
E0000E
E0000E
E0001C
70001C
70003C
780038
3C00F8
1F83F0
0FFFE0
03FF80
00FE00
ENDCHAR
STARTCHAR 016B
ENCODING 363
SWIDTH 600 0
DWIDTH 30 0
BBX 22 36 4 0
BITMAP
1FFFE0
1FFFE0
1FFFE0
000000
000000
000000
000000
000000
000000
E0001C
E0001C
E0001C
E0001C
E0001C
E0001C
E0001C
E0001C
E0001C
E0001C
E0001C
E0001C
E0001C
E0001C
E0001C
E0001C
E0001C
E0001C
E0001C
700038
700038
780078
3C00F0
1F03E0
0FFFC0
07FF80
01FE00
ENDCHAR
STARTCHAR 016C
ENCODING 364
SWIDTH 660 0
DWIDTH 33 0
BBX 23 47 5 -1
BITMAP
1C0070
1E00F0
0F83E0
07FFC0
03FF80
00FE00
000000
000000
000000
000000
E0000E
E0000E
E0000E
E0000E
E0000E
E0000E
E0000E
E0000E
E0000E
E0000E
E0000E
E0000E
E0000E
E0000E
E0000E
E0000E
E0000E
E0000E
E0000E
E0000E
E0000E
E0000E
E0000E
E0000E
E0000E
E0000E
E0000E
E0000E
E0001C
70001C
70003C
780038
3C00F8
1F83F0
0FFFE0
03FF80
00FE00
ENDCHAR
STARTCHAR 016D
ENCODING 365
SWIDTH 600 0
DWIDTH 30 0
BBX 22 37 4 0
BITMAP
3800E0
3C01E0
1F07C0
0FFF80
07FF00
01FC00
000000
000000
000000
000000
E0001C
E0001C
E0001C
E0001C
E0001C
E0001C
E0001C
E0001C
E0001C
E0001C
E0001C
E0001C
E0001C
E0001C
E0001C
E0001C
E0001C
E0001C
E0001C
700038
700038
780078
3C00F0
1F03E0
0FFFC0
07FF80
01FE00
ENDCHAR
STARTCHAR 016E
ENCODING 366
SWIDTH 660 0
DWIDTH 33 0
BBX 23 51 5 -1
BITMAP
007800
01FE00
018600
030300
030300
030300
030300
018600
01FE00
007800
000000
000000
000000
000000
E0000E
E0000E
E0000E
E0000E
E0000E
E0000E
E0000E
E0000E
E0000E
E0000E
E0000E
E0000E
E0000E
E0000E
E0000E
E0000E
E0000E
E0000E
E0000E
E0000E
E0000E
E0000E
E0000E
E0000E
E0000E
E0000E
E0000E
E0000E
E0001C
70001C
70003C
780038
3C00F8
1F83F0
0FFFE0
03FF80
00FE00
ENDCHAR
STARTCHAR 016F
ENCODING 367
SWIDTH 600 0
DWIDTH 30 0
BBX 22 41 4 0
BITMAP
007800
01FE00
018600
030300
030300
030300
030300
018600
01FE00
007800
000000
000000
000000
000000
E0001C
E0001C
E0001C
E0001C
E0001C
E0001C
E0001C
E0001C
E0001C
E0001C
E0001C
E0001C
E0001C
E0001C
E0001C
E0001C
E0001C
E0001C
E0001C
700038
700038
780078
3C00F0
1F03E0
0FFFC0
07FF80
01FE00
ENDCHAR
STARTCHAR 0170
ENCODING 368
SWIDTH 660 0
DWIDTH 33 0
BBX 23 49 5 -1
BITMAP
007CF8
00F9F0
01F3E0
01E3C0
03C780
038700
070E00
0F1E00
000000
000000
000000
000000
E0000E
E0000E
E0000E
E0000E
E0000E
E0000E
E0000E
E0000E
E0000E
E0000E
E0000E
E0000E
E0000E
E0000E
E0000E
E0000E
E0000E
E0000E
E0000E
E0000E
E0000E
E0000E
E0000E
E0000E
E0000E
E0000E
E0000E
E0000E
E0001C
70001C
70003C
780038
3C00F8
1F83F0
0FFFE0
03FF80
00FE00
ENDCHAR
STARTCHAR 0171
ENCODING 369
SWIDTH 600 0
DWIDTH 30 0
BBX 22 39 4 0
BITMAP
007CF8
00F9F0
01F3E0
01E3C0
03C780
038700
070E00
0F1E00
000000
000000
000000
000000
E0001C
E0001C
E0001C
E0001C
E0001C
E0001C
E0001C
E0001C
E0001C
E0001C
E0001C
E0001C
E0001C
E0001C
E0001C
E0001C
E0001C
E0001C
E0001C
700038
700038
780078
3C00F0
1F03E0
0FFFC0
07FF80
01FE00
ENDCHAR
STARTCHAR 0172
ENCODING 370
SWIDTH 660 0
DWIDTH 33 0
BBX 23 45 5 -9
BITMAP
E0000E
E0000E
E0000E
E0000E
E0000E
E0000E
E0000E
E0000E
E0000E
E0000E
E0000E
E0000E
E0000E
E0000E
E0000E
E0000E
E0000E
E0000E
E0000E
E0000E
E0000E
E0000E
E0000E
E0000E
E0000E
E0000E
E0000E
E0000E
E0001C
70001C
70003C
780038
3C00F8
1F83F0
0FFFE0
03FF80
00FE00
007000
007000
00E000
00E000
00E000
00F000
007F80
001F80
ENDCHAR
STARTCHAR 0173
ENCODING 371
SWIDTH 600 0
DWIDTH 30 0
BBX 22 36 4 -9
BITMAP
E0001C
E0001C
E0001C
E0001C
E0001C
E0001C
E0001C
E0001C
E0001C
E0001C
E0001C
E0001C
E0001C
E0001C
E0001C
E0001C
E0001C
E0001C
E0001C
700038
700038
780078
3C00F0
1F03E0
0FFFC0
07FF80
01FE00
007000
00E000
00E000
01C000
01C000
01C000
01E000
00FF00
003F00
ENDCHAR
STARTCHAR 0174
ENCODING 372
SWIDTH 940 0
DWIDTH 47 0
BBX 43 47 2 0
BITMAP
00001F000000
00003F800000
00007BC00000
0000F1E00000
0001E0F00000
0003C0780000
0007803C0000
000000000000
000000000000
000000000000
000000000000
E000040000E0
E0000E0000E0
F0000E0001C0
F0000E0001C0
70001F0001C0
78001F000380
78001F800380
38003B800380
38003B800380
3C007BC00700
3C0071C00700
1C0071C00700
1E00E0E00700
1E00E0E00E00
1E00E0F00E00
0E01C0700E00
0F01C0700C00
0F0380781C00
070380381C00
078380381C00
0787001C3800
0787001C3800
0386001E3800
03CE000E3000
03CE000E7000
01DC000F7000
01FC00077000
01F800076000
01F80003E000
00F80003E000
00F00003E000
00F00001C000
00E00001C000
00600000C000
006000008000
004000008000
ENDCHAR
STARTCHAR 0175
ENCODING 373
SWIDTH 840 0
DWIDTH 42 0
BBX 41 38 0 0
BITMAP
00003E000000
00007F000000
0000F7800000
0001E3C00000
0003C1E00000
000780F00000
000F00780000
000000000000
000000000000
000000000000
000000000000
E00008000380
F0000C000700
70001C000700
78001E000F00
78003E000E00
3C003E000E00
3C0037001C00
1C0077001C00
1E0077803C00
0E00E3803800
0F00E3803800
0F01C1C07000
0701C1C07000
078181E0F000
038380E0E000
03C380E0E000
01C70071C000
01E70071C000
01EE007B8000
00EE003B8000
00FC003F8000
007C001F0000
007C001F0000
0078000E0000
0038000E0000
0030000E0000
001000040000
ENDCHAR
STARTCHAR 0176
ENCODING 374
SWIDTH 620 0
DWIDTH 31 0
BBX 27 47 2 0
BITMAP
001F0000
003F8000
007BC000
00F1E000
01E0F000
03C07800
07803C00
00000000
00000000
00000000
00000000
F00000E0
700001C0
78000380
3C000380
1C000700
1E000E00
0F000E00
07001C00
07803800
03C03800
01C07000
01E0F000
00F0E000
0071C000
007BC000
003B8000
003F0000
001F0000
000E0000
000E0000
000E0000
000E0000
000E0000
000E0000
000E0000
000E0000
000E0000
000E0000
000E0000
000E0000
000E0000
000E0000
000E0000
000E0000
000E0000
000E0000
ENDCHAR
STARTCHAR 0177
ENCODING 375
SWIDTH 540 0
DWIDTH 27 0
BBX 26 48 0 -10
BITMAP
003E0000
007F0000
00F78000
01E3C000
03C1E000
0780F000
0F007800
00000000
00000000
00000000
00000000
E00001C0
F0000380
70000380
78000700
38000700
3C000E00
1C000E00
1E001E00
0E001C00
0F003C00
07003800
07807800
03807000
03C07000
01C0E000
01E0E000
00E1C000
00F1C000
0073C000
007B8000
007F8000
003F0000
003F0000
001E0000
001E0000
001C0000
001C0000
00380000
00380000
00700000
00700000
00F00000
00E00000
01E00000
01C00000
03C00000
03800000
ENDCHAR
STARTCHAR 0178
ENCODING 376
SWIDTH 620 0
DWIDTH 31 0
BBX 27 46 2 0
BITMAP
01E07800
03F0FC00
03F0FC00
03F0FC00
03F0FC00
01E07800
00000000
00000000
00000000
00000000
F00000E0
700001C0
78000380
3C000380
1C000700
1E000E00
0F000E00
07001C00
07803800
03C03800
01C07000
01E0F000
00F0E000
0071C000
007BC000
003B8000
003F0000
001F0000
000E0000
000E0000
000E0000
000E0000
000E0000
000E0000
000E0000
000E0000
000E0000
000E0000
000E0000
000E0000
000E0000
000E0000
000E0000
000E0000
000E0000
000E0000
ENDCHAR
STARTCHAR 0179
ENCODING 377
SWIDTH 480 0
DWIDTH 24 0
BBX 19 48 2 0
BITMAP
003E00
007C00
00F800
00F000
01E000
01C000
038000
078000
000000
000000
000000
000000
7FFFE0
7FFFC0
7FFFC0
000380
000380
000780
000700
000700
000E00
000E00
001C00
001C00
003C00
003800
007800
007000
007000
00E000
00E000
01C000
01C000
03C000
038000
078000
070000
070000
0E0000
0E0000
1C0000
1C0000
3C0000
380000
380000
7FFFE0
7FFFE0
FFFFE0
ENDCHAR
STARTCHAR 017A
ENCODING 378
SWIDTH 420 0
DWIDTH 21 0
BBX 21 39 0 0
BITMAP
001F00
003E00
007C00
007800
00F000
00E000
01C000
03C000
000000
000000
000000
000000
7FFFF8
7FFFF0
7FFFE0
0000E0
0001C0
000380
000380
000700
000E00
000E00
001C00
003800
003800
007000
00E000
00E000
01C000
038000
038000
070000
0E0000
0E0000
1C0000
380000
3FFFF8
7FFFF8
FFFFF8
ENDCHAR
STARTCHAR 017B
ENCODING 379
SWIDTH 480 0
DWIDTH 24 0
BBX 19 46 2 0
BITMAP
01E000
03F000
03F000
03F000
03F000
01E000
000000
000000
000000
000000
7FFFE0
7FFFC0
7FFFC0
000380
000380
000780
000700
000700
000E00
000E00
001C00
001C00
003C00
003800
007800
007000
007000
00E000
00E000
01C000
01C000
03C000
038000
078000
070000
070000
0E0000
0E0000
1C0000
1C0000
3C0000
380000
380000
7FFFE0
7FFFE0
FFFFE0
ENDCHAR
STARTCHAR 017C
ENCODING 380
SWIDTH 420 0
DWIDTH 21 0
BBX 21 37 0 0
BITMAP
007800
00FC00
00FC00
00FC00
00FC00
007800
000000
000000
000000
000000
7FFFF8
7FFFF0
7FFFE0
0000E0
0001C0
000380
000380
000700
000E00
000E00
001C00
003800
003800
007000
00E000
00E000
01C000
038000
038000
070000
0E0000
0E0000
1C0000
380000
3FFFF8
7FFFF8
FFFFF8
ENDCHAR
STARTCHAR 017D
ENCODING 381
SWIDTH 480 0
DWIDTH 24 0
BBX 19 47 2 0
BITMAP
7803C0
3C0780
1E0F00
0F1E00
07BC00
03F800
01F000
000000
000000
000000
000000
7FFFE0
7FFFC0
7FFFC0
000380
000380
000780
000700
000700
000E00
000E00
001C00
001C00
003C00
003800
007800
007000
007000
00E000
00E000
01C000
01C000
03C000
038000
078000
070000
070000
0E0000
0E0000
1C0000
1C0000
3C0000
380000
380000
7FFFE0
7FFFE0
FFFFE0
ENDCHAR
STARTCHAR 017E
ENCODING 382
SWIDTH 420 0
DWIDTH 21 0
BBX 21 38 0 0
BITMAP
3C01E0
1E03C0
0F0780
078F00
03DE00
01FC00
00F800
000000
000000
000000
000000
7FFFF8
7FFFF0
7FFFE0
0000E0
0001C0
000380
000380
000700
000E00
000E00
001C00
003800
003800
007000
00E000
00E000
01C000
038000
038000
070000
0E0000
0E0000
1C0000
380000
3FFFF8
7FFFF8
FFFFF8
ENDCHAR
STARTCHAR 017F
ENCODING 383
SWIDTH 220 0
DWIDTH 11 0
BBX 9 37 4 0
BITMAP
1F00
7F80
7F80
F080
E000
E000
E000
E000
E000
E000
E000
E000
E000
E000
E000
E000
E000
E000
E000
E000
E000
E000
E000
E000
E000
E000
E000
E000
E000
E000
E000
E000
E000
E000
E000
E000
E000
ENDCHAR
STARTCHAR 0192
ENCODING 402
SWIDTH 560 0
DWIDTH 28 0
BBX 22 47 1 -10
BITMAP
0000F0
0003FC
0007FC
00078C
000704
000F00
000E00
000E00
000E00
000E00
000E00
001E00
001C00
001C00
001C00
001C00
01FFF0
01FFF0
01FFF0
003800
003800
003800
003800
003800
003800
007000
007000
007000
007000
007000
007000
007000
00E000
00E000
00E000
00E000
00E000
00E000
01C000
01C000
01C000
03C000
038000
878000
FF0000
FE0000
7C0000
ENDCHAR
STARTCHAR 01FA
ENCODING 506
SWIDTH 700 0
DWIDTH 35 0
BBX 31 55 2 0
BITMAP
0000F800
0001F000
0003E000
0003C000
00078000
00070000
000E0000
001E0000
00000000
00000000
00078000
001FE000
00186000
00303000
00303000
00303000
00303000
00186000
001FE000
00078000
00018000
00038000
0003C000
0003C000
0007C000
0007E000
000EE000
000EF000
001C7000
001C7800
00187800
00383800
00303C00
00701C00
00701E00
00E00E00
00E00F00
00C00F00
01C00700
01800780
03FFFF80
03FFFFC0
07FFFFC0
070001E0
070001E0
0E0000E0
0E0000F0
1C000070
1C000078
38000078
3800003C
7800003C
7000001C
7000001E
E000000E
ENDCHAR
STARTCHAR 01FB
ENCODING 507
SWIDTH 680 0
DWIDTH 34 0
BBX 28 50 2 0
BITMAP
0003E000
0007C000
000F8000
000F0000
001E0000
001C0000
00380000
00780000
00000000
00000000
000F0000
003FC000
0030C000
00606000
00606000
00606000
00606000
0030C000
003FC000
000F0000
00000000
00000000
00000000
003FC070
00FFF870
03FFFE70
07E07F70
0F000FF0
1E0007F0
3C0003F0
780001F0
700000F0
700000F0
E0000070
E0000070
E0000070
E0000070
E0000070
E0000070
E0000070
700000F0
700000F0
780001F0
3C0003F0
1E0007F0
0F000FF0
07E07F70
03FFFE70
01FFF870
003FC070
ENDCHAR
STARTCHAR 01FC
ENCODING 508
SWIDTH 1000 0
DWIDTH 50 0
BBX 45 48 0 0
BITMAP
00000001F000
00000003E000
00000007C000
000000078000
0000000F0000
0000000E0000
0000001C0000
0000003C0000
000000000000
000000000000
000000000000
000000000000
000000FFFFF8
000001FFFFF8
000003FFFFF8
000003F00000
000007700000
00000F700000
00000E700000
00001C700000
00003C700000
000038700000
000070700000
0000F0700000
0000E0700000
0001C0700000
0003C0700000
0003807FFFF8
0007007FFFF8
000F007FFFF8
000E00700000
001C00700000
003C00700000
003FFFF00000
007FFFF00000
00FFFFF00000
00E000700000
01C000700000
03C000700000
038000700000
070000700000
0F0000700000
0E0000700000
1C0000700000
3C0000700000
3800007FFFF8
7000007FFFF8
F000007FFFF8
ENDCHAR
STARTCHAR 01FD
ENCODING 509
SWIDTH 1160 0
DWIDTH 58 0
BBX 52 39 4 0
BITMAP
0000003E000000
0000007C000000
000000F8000000
000000F0000000
000001E0000000
000001C0000000
00000380000000
00000780000000
00000000000000
00000000000000
00000000000000
00000000000000
003FC0E07FC000
01FFF0E1FFF800
03FFFCE7FFFC00
0FC07EEFE03F00
1F001FFF000F80
1E000FFE000380
3C0003FC0001C0
780003F80001E0
700001F00000E0
700001F00000E0
E00000E0000070
E00000FFFFFFF0
E00000FFFFFFF0
E00000FFFFFFF0
E00000E0000000
E00000E0000000
E00000E0000000
700001F0000000
700001F0000080
780003F80001E0
3C0007FC0003C0
1E000FFE0007C0
1F001FFF000F80
0FC07EEFC07F00
03FFFCE7FFFE00
01FFF8E3FFF800
003FC0E07FC000
ENDCHAR
STARTCHAR 01FE
ENCODING 510
SWIDTH 860 0
DWIDTH 43 0
BBX 37 50 3 -2
BITMAP
00001F0000
00003E0000
00007C0000
0000780000
0000F00000
0000E00000
0001C00000
0003C00000
0000000000
0000000000
0000000000
0003FC0040
001FFFC0F0
007FFFF1E0
00FE03FBC0
03F0007F80
07C0001F00
0F80000F00
0F00001F80
1E00003FC0
3C000079E0
38000070E0
780000E0F0
700001C070
7000038070
7000070078
E0000F0038
E0001E0038
E0001C0038
E000380038
E000700038
E000E00038
E001C00038
E003C00038
E007800078
7007000070
700E000070
701C0000F0
38380000E0
3C700001E0
1CF00003C0
0FE0000780
0FC0000F80
07C0001F00
07F0007E00
0FFC03F800
1E7FFFF000
3C1FFFC000
7803FE0000
1000000000
ENDCHAR
STARTCHAR 01FF
ENCODING 511
SWIDTH 660 0
DWIDTH 33 0
BBX 29 40 2 -1
BITMAP
0000F800
0001F000
0003E000
0003C000
00078000
00070000
000E0000
001E0000
00000000
00000000
00000000
00000000
001FE030
00FFFC78
03FFFEF0
07F01FE0
0F8007C0
1E0007C0
3C000FE0
78001EE0
70003CF0
70007870
F0007078
E000E038
E001C038
E0038038
E0070038
E00E0038
E01C0038
70380070
70780070
78F000F0
3DE001E0
1FC003C0
0F800F80
0FC03F00
1FFFFE00
3DFFF800
783FC000
30000000
ENDCHAR
STARTCHAR 02C6
ENCODING 710
SWIDTH 500 0
DWIDTH 25 0
BBX 17 7 4 31
BITMAP
03E000
07F000
0F7800
1E3C00
3C1E00
780F00
F00780
ENDCHAR
STARTCHAR 02C7
ENCODING 711
SWIDTH 500 0
DWIDTH 25 0
BBX 17 7 4 31
BITMAP
F00780
780F00
3C1E00
1E3C00
0F7800
07F000
03E000
ENDCHAR
STARTCHAR 02C9
ENCODING 713
SWIDTH 480 0
DWIDTH 24 0
BBX 16 3 4 33
BITMAP
FFFF
FFFF
FFFF
ENDCHAR
STARTCHAR 02D8
ENCODING 728
SWIDTH 460 0
DWIDTH 23 0
BBX 17 6 3 32
BITMAP
E00380
F00780
7C1F00
3FFE00
1FFC00
07F000
ENDCHAR
STARTCHAR 02D9
ENCODING 729
SWIDTH 220 0
DWIDTH 11 0
BBX 6 6 3 31
BITMAP
78
FC
FC
FC
FC
78
ENDCHAR
STARTCHAR 02DA
ENCODING 730
SWIDTH 340 0
DWIDTH 17 0
BBX 10 10 3 31
BITMAP
1E00
7F80
6180
C0C0
C0C0
C0C0
C0C0
6180
7F80
1E00
ENDCHAR
STARTCHAR 02DB
ENCODING 731
SWIDTH 300 0
DWIDTH 15 0
BBX 9 9 4 -9
BITMAP
3800
7000
7000
E000
E000
E000
F000
7F80
1F80
ENDCHAR
STARTCHAR 02DC
ENCODING 732
SWIDTH 440 0
DWIDTH 22 0
BBX 18 5 2 32
BITMAP
1F0000
7FC180
FFFF80
70FFC0
403E00
ENDCHAR
STARTCHAR 02DD
ENCODING 733
SWIDTH 560 0
DWIDTH 28 0
BBX 17 8 6 32
BITMAP
07CF80
0F9F00
1F3E00
1E3C00
3C7800
387000
70E000
F1E000
ENDCHAR
STARTCHAR 037E
ENCODING 894
SWIDTH 260 0
DWIDTH 13 0
BBX 7 31 3 -4
BITMAP
3C
7E
7E
7E
7E
3C
00
00
00
00
00
00
00
00
00
00
00
00
00
00
08
1E
1E
1C
3C
38
78
70
70
E0
60
ENDCHAR
STARTCHAR 0384
ENCODING 900
SWIDTH 380 0
DWIDTH 19 0
BBX 4 8 7 31
BITMAP
F0
F0
F0
F0
60
60
60
60
ENDCHAR
STARTCHAR 0385
ENCODING 901
SWIDTH 380 0
DWIDTH 19 0
BBX 16 8 1 31
BITMAP
03C0
03C0
03C0
63C6
F18F
F18F
6186
0180
ENDCHAR
STARTCHAR 0386
ENCODING 902
SWIDTH 700 0
DWIDTH 35 0
BBX 31 37 2 0
BITMAP
07800000
07810000
07818000
07838000
0303C000
0303C000
0307C000
0307E000
000EE000
000EF000
001C7000
001C7800
00187800
00383800
00303C00
00701C00
00701E00
00E00E00
00E00F00
00C00F00
01C00700
01800780
03FFFF80
03FFFFC0
07FFFFC0
070001E0
070001E0
0E0000E0
0E0000F0
1C000070
1C000078
38000078
3800003C
7800003C
7000001C
7000001E
E000000E
ENDCHAR
STARTCHAR 0387
ENCODING 903
SWIDTH 280 0
DWIDTH 14 0
BBX 6 6 5 21
BITMAP
78
FC
FC
FC
FC
78
ENDCHAR
STARTCHAR 0388
ENCODING 904
SWIDTH 580 0
DWIDTH 29 0
BBX 30 37 -3 0
BITMAP
F0000000
F03FFFFC
F03FFFFC
F03FFFFC
60380000
60380000
60380000
60380000
00380000
00380000
00380000
00380000
00380000
00380000
00380000
00380000
003FFFFC
003FFFFC
003FFFFC
00380000
00380000
00380000
00380000
00380000
00380000
00380000
00380000
00380000
00380000
00380000
00380000
00380000
00380000
00380000
003FFFFC
003FFFFC
003FFFFC
ENDCHAR
STARTCHAR 0389
ENCODING 905
SWIDTH 720 0
DWIDTH 36 0
BBX 34 37 -3 0
BITMAP
F000000000
F0380001C0
F0380001C0
F0380001C0
60380001C0
60380001C0
60380001C0
60380001C0
00380001C0
00380001C0
00380001C0
00380001C0
00380001C0
00380001C0
00380001C0
00380001C0
00380001C0
003FFFFFC0
003FFFFFC0
003FFFFFC0
00380001C0
00380001C0
00380001C0
00380001C0
00380001C0
00380001C0
00380001C0
00380001C0
00380001C0
00380001C0
00380001C0
00380001C0
00380001C0
00380001C0
00380001C0
00380001C0
00380001C0
ENDCHAR
STARTCHAR 038A
ENCODING 906
SWIDTH 280 0
DWIDTH 14 0
BBX 12 37 -3 0
BITMAP
F000
F070
F070
F070
6070
6070
6070
6070
0070
0070
0070
0070
0070
0070
0070
0070
0070
0070
0070
0070
0070
0070
0070
0070
0070
0070
0070
0070
0070
0070
0070
0070
0070
0070
0070
0070
0070
ENDCHAR
STARTCHAR 038C
ENCODING 908
SWIDTH 860 0
DWIDTH 43 0
BBX 43 38 -3 -1
BITMAP
F0000FF80000
F0007FFF0000
F001FFFFC000
F003F80FE000
600FC001F800
601F00007C00
603E00003E00
603C00001E00
007800000F00
00F000000780
00E000000380
01E0000003C0
01C0000001C0
01C0000001C0
03C0000001E0
0380000000E0
0380000000E0
0380000000E0
0380000000E0
0380000000E0
0380000000E0
0380000000E0
0380000000E0
03C0000001E0
01C0000001C0
01C0000001C0
01E0000003C0
00E000000380
00F000000780
007800000F00
003C00001E00
003E00003E00
001F00007C00
000FC001F800
0003F00FE000
0001FFFFC000
00007FFF0000
00000FF80000
ENDCHAR
STARTCHAR 038E
ENCODING 910
SWIDTH 640 0
DWIDTH 32 0
BBX 35 37 -3 0
BITMAP
F000000000
F0F00000E0
F0700001C0
F078000380
603C000380
601C000700
601E000E00
600F000E00
0007001C00
0007803800
0003C03800
0001C07000
0001E0F000
0000F0E000
000071C000
00007BC000
00003B8000
00003F0000
00001F0000
00000E0000
00000E0000
00000E0000
00000E0000
00000E0000
00000E0000
00000E0000
00000E0000
00000E0000
00000E0000
00000E0000
00000E0000
00000E0000
00000E0000
00000E0000
00000E0000
00000E0000
00000E0000
ENDCHAR
STARTCHAR 038F
ENCODING 911
SWIDTH 840 0
DWIDTH 42 0
BBX 42 37 -3 0
BITMAP
F0001FF80000
F000FFFF0000
F003FFFFC000
F007F00FE000
601F8001F800
603E00007C00
607800001E00
607000000E00
00F000000F00
00E000000700
01C000000380
01C000000380
03C000000380
0380000001C0
0380000001C0
0380000001C0
0380000001C0
0380000001C0
0380000001C0
0380000001C0
0380000003C0
01C000000380
01C000000380
01E000000780
00E000000700
00F000000F00
007800001E00
003C00003C00
001E00007800
000F0000F000
0007C003E000
0003E007C000
0000F81F0000
0000781E0000
01FFF81FFF80
01FFF81FFF80
01FFF81FFF80
ENDCHAR
STARTCHAR 0390
ENCODING 912
SWIDTH 220 0
DWIDTH 11 0
BBX 16 39 -2 0
BITMAP
03C0
03C0
03C0
63C6
F18F
F18F
6186
0180
0000
0000
0000
0000
0380
0380
0380
0380
0380
0380
0380
0380
0380
0380
0380
0380
0380
0380
0380
0380
0380
0380
0380
0380
0380
0380
0380
0380
0380
0380
0380
ENDCHAR
STARTCHAR 0391
ENCODING 913
SWIDTH 700 0
DWIDTH 35 0
BBX 31 36 2 0
BITMAP
00010000
00018000
00038000
0003C000
0003C000
0007C000
0007E000
000EE000
000EF000
001C7000
001C7800
00187800
00383800
00303C00
00701C00
00701E00
00E00E00
00E00F00
00C00F00
01C00700
01800780
03FFFF80
03FFFFC0
07FFFFC0
070001E0
070001E0
0E0000E0
0E0000F0
1C000070
1C000078
38000078
3800003C
7800003C
7000001C
7000001E
E000000E
ENDCHAR
STARTCHAR 0392
ENCODING 914
SWIDTH 580 0
DWIDTH 29 0
BBX 21 36 5 0
BITMAP
FFF000
FFFC00
FFFE00
E01F00
E00780
E00380
E001C0
E001C0
E001C0
E001C0
E001C0
E003C0
E00780
E00F80
E03F00
FFFE00
FFFE00
FFFF80
E00FC0
E003E0
E000F0
E00070
E00078
E00038
E00038
E00038
E00038
E00038
E00078
E00070
E000F0
E001E0
E007C0
FFFF80
FFFF00
FFF800
ENDCHAR
STARTCHAR 0393
ENCODING 915
SWIDTH 460 0
DWIDTH 23 0
BBX 17 36 5 0
BITMAP
FFFF80
FFFF80
FFFF80
E00000
E00000
E00000
E00000
E00000
E00000
E00000
E00000
E00000
E00000
E00000
E00000
E00000
E00000
E00000
E00000
E00000
E00000
E00000
E00000
E00000
E00000
E00000
E00000
E00000
E00000
E00000
E00000
E00000
E00000
E00000
E00000
E00000
ENDCHAR
STARTCHAR 0394
ENCODING 916
SWIDTH 740 0
DWIDTH 37 0
BBX 35 37 1 0
BITMAP
0000400000
0000600000
0000E00000
0000F00000
0001F00000
0001F80000
0003F80000
0003BC0000
00073C0000
00071E0000
00061E0000
000E0F0000
000C0F0000
001C078000
0018078000
0038038000
003003C000
007001C000
006001E000
00E000E000
00C000F000
01C0007000
01C0007800
0380003800
0380003C00
0700001C00
0700001E00
0E00001E00
0E00000F00
1C00000F00
1C00000780
3800000780
38000003C0
70000003C0
7FFFFFFFE0
FFFFFFFFE0
FFFFFFFFE0
ENDCHAR
STARTCHAR 0395
ENCODING 917
SWIDTH 540 0
DWIDTH 27 0
BBX 20 36 5 0
BITMAP
FFFFF0
FFFFF0
FFFFF0
E00000
E00000
E00000
E00000
E00000
E00000
E00000
E00000
E00000
E00000
E00000
E00000
FFFFF0
FFFFF0
FFFFF0
E00000
E00000
E00000
E00000
E00000
E00000
E00000
E00000
E00000
E00000
E00000
E00000
E00000
E00000
E00000
FFFFF0
FFFFF0
FFFFF0
ENDCHAR
STARTCHAR 0396
ENCODING 918
SWIDTH 480 0
DWIDTH 24 0
BBX 19 36 2 0
BITMAP
7FFFE0
7FFFC0
7FFFC0
000380
000380
000780
000700
000700
000E00
000E00
001C00
001C00
003C00
003800
007800
007000
007000
00E000
00E000
01C000
01C000
03C000
038000
078000
070000
070000
0E0000
0E0000
1C0000
1C0000
3C0000
380000
380000
7FFFE0
7FFFE0
FFFFE0
ENDCHAR
STARTCHAR 0397
ENCODING 919
SWIDTH 680 0
DWIDTH 34 0
BBX 24 36 5 0
BITMAP
E00007
E00007
E00007
E00007
E00007
E00007
E00007
E00007
E00007
E00007
E00007
E00007
E00007
E00007
E00007
E00007
FFFFFF
FFFFFF
FFFFFF
E00007
E00007
E00007
E00007
E00007
E00007
E00007
E00007
E00007
E00007
E00007
E00007
E00007
E00007
E00007
E00007
E00007
ENDCHAR
STARTCHAR 0398
ENCODING 920
SWIDTH 860 0
DWIDTH 43 0
BBX 37 38 3 -1
BITMAP
0003FE0000
001FFFC000
007FFFF000
00FE03F800
03F0007E00
07C0001F00
0F80000F80
0F00000780
1E000003C0
3C000001E0
38000000E0
78000000F0
7000000070
7000000070
F000000078
E000000038
E000000038
E07FFFF038
E07FFFF038
E07FFFF038
E000000038
E000000038
E000000038
F000000078
7000000070
7000000070
78000000F0
38000000E0
3C000001E0
1E000003C0
0F00000780
0F80000F80
07C0001F00
03F0007E00
00FC03F800
007FFFF000
001FFFC000
0003FE0000
ENDCHAR
STARTCHAR 0399
ENCODING 921
SWIDTH 260 0
DWIDTH 13 0
BBX 3 36 5 0
BITMAP
E0
E0
E0
E0
E0
E0
E0
E0
E0
E0
E0
E0
E0
E0
E0
E0
E0
E0
E0
E0
E0
E0
E0
E0
E0
E0
E0
E0
E0
E0
E0
E0
E0
E0
E0
E0
ENDCHAR
STARTCHAR 039A
ENCODING 922
SWIDTH 600 0
DWIDTH 30 0
BBX 24 36 5 0
BITMAP
E0001E
E0007C
E000F8
E001E0
E003C0
E00780
E00F00
E01E00
E07C00
E0F000
E1E000
E3C000
E78000
EF0000
FE0000
FC0000
F80000
FC0000
FE0000
EF0000
E78000
E3C000
E1E000
E0F000
E07800
E03C00
E01E00
E00F00
E00780
E003C0
E001E0
E000F0
E00078
E0003C
E0001E
E0000F
ENDCHAR
STARTCHAR 039B
ENCODING 923
SWIDTH 700 0
DWIDTH 35 0
BBX 31 36 2 0
BITMAP
00010000
00018000
00038000
0003C000
0003C000
0007C000
0007E000
000FE000
000EF000
001CF000
001C7800
00187800
00383800
00303C00
00701C00
00701E00
00E01E00
00E00F00
00C00F00
01C00700
01800780
03800380
038003C0
070003C0
070001E0
060001E0
0E0000E0
0C0000F0
1C000070
1C000078
38000078
3800003C
7000003C
7000001C
6000001E
E000000E
ENDCHAR
STARTCHAR 039C
ENCODING 924
SWIDTH 900 0
DWIDTH 45 0
BBX 39 36 3 0
BITMAP
0400000020
0400000060
0600000060
0E000000E0
0E000000E0
0F000001E0
0F000001E0
0F800003F0
0F800003F0
0FC0000770
1DC0000770
1DE0000E70
1CE0000E70
1CF0000C70
1C70001C78
1C78001C78
1C38003878
183C003838
381C007038
381E007038
380E00E038
380E00E03C
380701C03C
380701C03C
380383803C
700383801C
7001C7001C
7001C7001C
7001EF001E
7000EE001E
7000FE001E
70007C001E
F0007C000E
E00038000E
E00038000E
E00010000E
ENDCHAR
STARTCHAR 039D
ENCODING 925
SWIDTH 740 0
DWIDTH 37 0
BBX 27 36 5 0
BITMAP
800000E0
C00000E0
E00000E0
E00000E0
F00000E0
F80000E0
FC0000E0
FE0000E0
EF0000E0
E70000E0
E78000E0
E3C000E0
E1E000E0
E0F000E0
E07800E0
E07800E0
E03C00E0
E01E00E0
E00F00E0
E00780E0
E00380E0
E003C0E0
E001E0E0
E000F0E0
E00078E0
E0003CE0
E0001CE0
E0001EE0
E0000FE0
E00007E0
E00003E0
E00001E0
E00001E0
E00000E0
E0000060
E0000020
ENDCHAR
STARTCHAR 039E
ENCODING 926
SWIDTH 540 0
DWIDTH 27 0
BBX 21 36 3 0
BITMAP
FFFFF8
FFFFF8
FFFFF8
000000
000000
000000
000000
000000
000000
000000
000000
000000
000000
000000
000000
FFFFF8
FFFFF8
FFFFF8
000000
000000
000000
000000
000000
000000
000000
000000
000000
000000
000000
000000
000000
000000
000000
FFFFF8
FFFFF8
FFFFF8
ENDCHAR
STARTCHAR 039F
ENCODING 927
SWIDTH 860 0
DWIDTH 43 0
BBX 37 38 3 -1
BITMAP
0003FE0000
001FFFC000
007FFFF000
00FE03F800
03F0007E00
07C0001F00
0F80000F80
0F00000780
1E000003C0
3C000001E0
38000000E0
78000000F0
7000000070
7000000070
7000000078
E000000038
E000000038
E000000038
E000000038
E000000038
E000000038
E000000038
E000000038
F000000078
7000000070
7000000070
78000000F0
38000000E0
3C000001E0
1E000003C0
0F00000780
0F80000F80
07C0001F00
03F0007E00
00FC03F800
007FFFF000
001FFFC000
0003FE0000
ENDCHAR
STARTCHAR 03A0
ENCODING 928
SWIDTH 680 0
DWIDTH 34 0
BBX 24 36 5 0
BITMAP
FFFFFF
FFFFFF
FFFFFF
E00007
E00007
E00007
E00007
E00007
E00007
E00007
E00007
E00007
E00007
E00007
E00007
E00007
E00007
E00007
E00007
E00007
E00007
E00007
E00007
E00007
E00007
E00007
E00007
E00007
E00007
E00007
E00007
E00007
E00007
E00007
E00007
E00007
ENDCHAR
STARTCHAR 03A1
ENCODING 929
SWIDTH 600 0
DWIDTH 30 0
BBX 22 36 5 0
BITMAP
FFFE00
FFFFC0
FFFFE0
E001F0
E00078
E00038
E0003C
E0001C
E0001C
E0001C
E0001C
E0001C
E0003C
E00038
E00078
E001F0
FFFFE0
FFFF80
FFFC00
E00000
E00000
E00000
E00000
E00000
E00000
E00000
E00000
E00000
E00000
E00000
E00000
E00000
E00000
E00000
E00000
E00000
ENDCHAR
STARTCHAR 03A3
ENCODING 931
SWIDTH 500 0
DWIDTH 25 0
BBX 21 36 2 0
BITMAP
FFFFF8
FFFFF8
7FFFF8
380000
3C0000
1C0000
0E0000
0F0000
070000
078000
03C000
01C000
01E000
00E000
007000
007800
003800
003C00
001C00
003800
007000
007000
00E000
01E000
01C000
038000
038000
070000
0F0000
0E0000
1C0000
1C0000
380000
7FFFF8
7FFFF8
FFFFF8
ENDCHAR
STARTCHAR 03A4
ENCODING 932
SWIDTH 420 0
DWIDTH 21 0
BBX 19 36 1 0
BITMAP
FFFFE0
FFFFE0
FFFFE0
00E000
00E000
00E000
00E000
00E000
00E000
00E000
00E000
00E000
00E000
00E000
00E000
00E000
00E000
00E000
00E000
00E000
00E000
00E000
00E000
00E000
00E000
00E000
00E000
00E000
00E000
00E000
00E000
00E000
00E000
00E000
00E000
00E000
ENDCHAR
STARTCHAR 03A5
ENCODING 933
SWIDTH 620 0
DWIDTH 31 0
BBX 27 36 2 0
BITMAP
F00000E0
700001C0
78000380
3C000380
1C000700
1E000E00
0F000E00
07001C00
07803800
03C03800
01C07000
01E0F000
00F0E000
0071C000
007BC000
003B8000
003F0000
001F0000
000E0000
000E0000
000E0000
000E0000
000E0000
000E0000
000E0000
000E0000
000E0000
000E0000
000E0000
000E0000
000E0000
000E0000
000E0000
000E0000
000E0000
000E0000
ENDCHAR
STARTCHAR 03A6
ENCODING 934
SWIDTH 860 0
DWIDTH 43 0
BBX 37 36 3 0
BITMAP
0000700000
0000700000
0000700000
0007FF0000
003FFFE000
01FFFFFC00
03F870FE00
0FC0701F80
1F007007C0
1C007003C0
38007001E0
78007000F0
7000700070
7000700070
E000700038
E000700038
E000700038
E000700038
E000700038
E000700038
E000700038
F000700070
7000700070
78007000F0
3C007000E0
3E007001C0
1F007007C0
0FC0701F80
03F870FE00
01FFFFFC00
007FFFF000
0007FF0000
0000700000
0000700000
0000700000
0000700000
ENDCHAR
STARTCHAR 03A7
ENCODING 935
SWIDTH 600 0
DWIDTH 30 0
BBX 27 36 1 0
BITMAP
E00000E0
F00001C0
780001C0
38000380
3C000700
1E000F00
0E000E00
0F001C00
07803C00
03C03800
01C07000
01E0E000
00F0E000
0071C000
007B8000
003F8000
001F0000
001E0000
000F0000
001F0000
003F8000
003BC000
0071C000
00E1E000
00E0F000
01C07000
03807800
07803C00
07001E00
0E000E00
1E000F00
1C000780
38000380
700003C0
700001E0
E00000E0
ENDCHAR
STARTCHAR 03A8
ENCODING 936
SWIDTH 800 0
DWIDTH 40 0
BBX 34 36 3 0
BITMAP
E000E001C0
E000E001C0
E000E001C0
E000E001C0
E000E001C0
E000E001C0
E000E001C0
E000E001C0
E000E001C0
E000E001C0
E000E001C0
E000E001C0
E000E001C0
E000E001C0
E000E001C0
E000E001C0
E000E001C0
7000E00380
7000E00380
7800E00780
3C00E00700
3E00E01F00
1F80E03E00
0FF0E3FC00
03FFFFF000
00FFFFC000
000FFE0000
0000E00000
0000E00000
0000E00000
0000E00000
0000E00000
0000E00000
0000E00000
0000E00000
0000E00000
ENDCHAR
STARTCHAR 03A9
ENCODING 937
SWIDTH 840 0
DWIDTH 42 0
BBX 36 37 3 0
BITMAP
0007FE0000
003FFFC000
00FFFFF000
01FC03F800
07E0007E00
0F80001F00
1E00000780
1C00000380
3C000003C0
38000001C0
70000000E0
70000000E0
F0000000E0
E000000070
E000000070
E000000070
E000000070
E000000070
E000000070
E000000070
E0000000F0
70000000E0
70000000E0
78000001E0
38000001C0
3C000003C0
1E00000780
0F00000F00
0780001E00
03C0003C00
01F000F800
00F801F000
003E07C000
001E078000
7FFE07FFE0
7FFE07FFE0
7FFE07FFE0
ENDCHAR
STARTCHAR 03AA
ENCODING 938
SWIDTH 260 0
DWIDTH 13 0
BBX 16 46 -2 0
BITMAP
781E
FC3F
FC3F
FC3F
FC3F
781E
0000
0000
0000
0000
01C0
01C0
01C0
01C0
01C0
01C0
01C0
01C0
01C0
01C0
01C0
01C0
01C0
01C0
01C0
01C0
01C0
01C0
01C0
01C0
01C0
01C0
01C0
01C0
01C0
01C0
01C0
01C0
01C0
01C0
01C0
01C0
01C0
01C0
01C0
01C0
ENDCHAR
STARTCHAR 03AB
ENCODING 939
SWIDTH 620 0
DWIDTH 31 0
BBX 27 46 2 0
BITMAP
01E07800
03F0FC00
03F0FC00
03F0FC00
03F0FC00
01E07800
00000000
00000000
00000000
00000000
F00000E0
700001C0
78000380
3C000380
1C000700
1E000E00
0F000E00
07001C00
07803800
03C03800
01C07000
01E0F000
00F0E000
0071C000
007BC000
003B8000
003F0000
001F0000
000E0000
000E0000
000E0000
000E0000
000E0000
000E0000
000E0000
000E0000
000E0000
000E0000
000E0000
000E0000
000E0000
000E0000
000E0000
000E0000
000E0000
000E0000
ENDCHAR
STARTCHAR 03AC
ENCODING 940
SWIDTH 680 0
DWIDTH 34 0
BBX 28 39 2 0
BITMAP
000F0000
000F0000
000F0000
000F0000
00060000
00060000
00060000
00060000
00000000
00000000
00000000
00000000
003FC070
00FFF870
03FFFE70
07E07F70
0F000FF0
1E0007F0
3C0003F0
780001F0
700000F0
700000F0
E0000070
E0000070
E0000070
E0000070
E0000070
E0000070
E0000070
700000F0
700000F0
780001F0
3C0003F0
1E0007F0
0F000FF0
07E07F70
03FFFE70
01FFF870
003FC070
ENDCHAR
STARTCHAR 03AD
ENCODING 941
SWIDTH 420 0
DWIDTH 21 0
BBX 18 39 2 0
BITMAP
01E000
01E000
01E000
01E000
00C000
00C000
00C000
00C000
000000
000000
000000
000000
03F800
0FFE00
1FFF80
3C0F80
780300
700000
700000
700000
700000
380000
3C0000
0FE000
1FE000
3FE000
7C0000
780000
F00000
E00000
E00000
E00000
E00000
F00000
700180
7C0FC0
3FFF80
0FFF00
03F800
ENDCHAR
STARTCHAR 03AE
ENCODING 942
SWIDTH 620 0
DWIDTH 31 0
BBX 23 49 4 -10
BITMAP
003C00
003C00
003C00
003C00
001800
001800
001800
001800
000000
000000
000000
000000
E03F00
E1FFC0
E3FFF0
E7C0F8
EF0078
FC003C
F8001C
F8001C
F0000E
F0000E
E0000E
E0000E
E0000E
E0000E
E0000E
E0000E
E0000E
E0000E
E0000E
E0000E
E0000E
E0000E
E0000E
E0000E
E0000E
E0000E
E0000E
00000E
00000E
00000E
00000E
00000E
00000E
00000E
00000E
00000E
00000E
ENDCHAR
STARTCHAR 03AF
ENCODING 943
SWIDTH 220 0
DWIDTH 11 0
BBX 4 39 4 0
BITMAP
F0
F0
F0
F0
60
60
60
60
00
00
00
00
E0
E0
E0
E0
E0
E0
E0
E0
E0
E0
E0
E0
E0
E0
E0
E0
E0
E0
E0
E0
E0
E0
E0
E0
E0
E0
E0
ENDCHAR
STARTCHAR 03B0
ENCODING 944
SWIDTH 600 0
DWIDTH 30 0
BBX 24 40 4 -1
BITMAP
007800
007800
007800
0C78C0
1E31E0
1E31E0
0C30C0
003000
000000
000000
000000
000000
E00180
E001C0
E003E0
E001F0
E000F8
E0007C
E0003C
E0001E
E0000E
E0000E
E0000F
E00007
E00007
E00007
E00007
E00007
E00007
E00007
E0000F
60000E
70000E
70001E
38003C
3C0078
1F01F0
0FFFE0
07FFC0
00FE00
ENDCHAR
STARTCHAR 03B1
ENCODING 945
SWIDTH 680 0
DWIDTH 34 0
BBX 28 27 2 0
BITMAP
003FC070
00FFF870
03FFFE70
07E07F70
0F000FF0
1E0007F0
3C0003F0
780001F0
700000F0
700000F0
E0000070
E0000070
E0000070
E0000070
E0000070
E0000070
E0000070
700000F0
700000F0
780001F0
3C0003F0
1E0007F0
0F000FF0
07E07F70
03FFFE70
01FFF870
003FC070
ENDCHAR
STARTCHAR 03B2
ENCODING 946
SWIDTH 600 0
DWIDTH 30 0
BBX 24 47 4 -10
BITMAP
01FC00
0FFF00
1FFF80
3E07C0
7801C0
7001E0
F000E0
E000E0
E000E0
E000E0
E001C0
E001C0
E00780
E01F00
E1FC00
E1FFC0
E1FFF0
E003F8
E0007C
E0003E
E0001E
E0000E
E0000F
E00007
E00007
E00007
E00007
E00007
E0000F
F0000E
F8001E
F8003C
FE0078
EF81F8
E7FFE0
E3FFC0
E0FE00
E00000
E00000
E00000
E00000
E00000
E00000
E00000
E00000
E00000
E00000
ENDCHAR
STARTCHAR 03B3
ENCODING 947
SWIDTH 560 0
DWIDTH 28 0
BBX 25 37 1 -10
BITMAP
E0000380
F0000780
70000700
78000F00
38000E00
3C000E00
1C001C00
1E001C00
0E003800
0F003800
07007000
07807000
0380E000
03C0E000
01C1C000
01E1C000
00E38000
00F38000
00770000
007F0000
003E0000
003E0000
003C0000
001C0000
001C0000
001C0000
001C0000
001C0000
001C0000
001C0000
001C0000
001C0000
001C0000
001C0000
001C0000
001C0000
001C0000
ENDCHAR
STARTCHAR 03B4
ENCODING 948
SWIDTH 580 0
DWIDTH 29 0
BBX 25 37 2 0
BITMAP
001FE000
007FF800
00FFF800
01F01000
03C00000
07800000
07000000
07000000
07000000
07000000
07800000
03C00000
03F00000
01FC0000
00FF0000
01FFE000
07FFF000
0F80FC00
1E003E00
3C001E00
78000F00
70000700
F0000780
E0000380
E0000380
E0000380
E0000380
E0000380
F0000780
70000700
78000F00
3C001E00
3E003E00
1F80FC00
07FFF000
03FFE000
007F0000
ENDCHAR
STARTCHAR 03B5
ENCODING 949
SWIDTH 420 0
DWIDTH 21 0
BBX 18 27 2 0
BITMAP
03F800
0FFE00
1FFF80
3C0F80
780300
700000
700000
700000
700000
380000
3C0000
0FE000
1FE000
3FE000
7C0000
780000
F00000
E00000
E00000
E00000
E00000
F00000
700180
7C0FC0
3FFF80
0FFF00
03F800
ENDCHAR
STARTCHAR 03B6
ENCODING 950
SWIDTH 460 0
DWIDTH 23 0
BBX 20 47 2 -10
BITMAP
1FFFE0
1FFFE0
1FFFE0
0003C0
000780
000F00
001E00
003C00
007800
00F000
01E000
03C000
078000
0F0000
1E0000
1C0000
3C0000
380000
700000
700000
700000
E00000
E00000
E00000
E00000
E00000
E00000
E00000
F00000
700000
780000
3C0000
1E0000
1FE000
07FE00
01FF80
003FE0
0003E0
0000F0
000070
000070
000070
0000F0
0001E0
00FFC0
01FF80
01FE00
ENDCHAR
STARTCHAR 03B7
ENCODING 951
SWIDTH 620 0
DWIDTH 31 0
BBX 23 37 4 -10
BITMAP
E03F00
E1FFC0
E3FFF0
E7C0F8
EF0078
FC003C
F8001C
F8001C
F0000E
F0000E
E0000E
E0000E
E0000E
E0000E
E0000E
E0000E
E0000E
E0000E
E0000E
E0000E
E0000E
E0000E
E0000E
E0000E
E0000E
E0000E
E0000E
00000E
00000E
00000E
00000E
00000E
00000E
00000E
00000E
00000E
00000E
ENDCHAR
STARTCHAR 03B8
ENCODING 952
SWIDTH 660 0
DWIDTH 33 0
BBX 29 37 2 0
BITMAP
001FC000
00FFF800
03FFFE00
07E03F00
0F800F80
1F000780
1E0003C0
3C0001E0
380000E0
780000F0
70000070
70000070
70000070
E0000038
E0000038
E0000038
E0000038
FFFFFFF8
FFFFFFF8
FFFFFFF8
E0000038
E0000038
E0000038
E0000038
70000070
70000070
70000070
780000F0
380000E0
3C0001E0
1C0001C0
1E0003C0
0F800F80
07E03F00
03FFFE00
00FFF800
001FC000
ENDCHAR
STARTCHAR 03B9
ENCODING 953
SWIDTH 220 0
DWIDTH 11 0
BBX 3 27 4 0
BITMAP
E0
E0
E0
E0
E0
E0
E0
E0
E0
E0
E0
E0
E0
E0
E0
E0
E0
E0
E0
E0
E0
E0
E0
E0
E0
E0
E0
ENDCHAR
STARTCHAR 03BA
ENCODING 954
SWIDTH 500 0
DWIDTH 25 0
BBX 21 27 4 0
BITMAP
E001E0
E003C0
E00780
E00F00
E01E00
E03C00
E07800
E0F000
E1E000
E7C000
EF0000
FE0000
FC0000
FC0000
FE0000
EF0000
E7C000
E3E000
E0F000
E07800
E03C00
E01E00
E00F00
E00780
E003C0
E001F0
E000F8
ENDCHAR
STARTCHAR 03BB
ENCODING 955
SWIDTH 540 0
DWIDTH 27 0
BBX 25 37 1 0
BITMAP
07000000
07800000
03800000
03C00000
01C00000
01E00000
00E00000
00F00000
00700000
00780000
00380000
003C0000
001C0000
003C0000
003E0000
007E0000
007F0000
00E70000
00E78000
00C38000
01C3C000
01C1C000
0381E000
0380E000
0700F000
0700F000
0E007800
0E007800
0C003C00
1C003C00
1C001E00
38001E00
38000F00
70000F00
70000780
E0000780
E0000380
ENDCHAR
STARTCHAR 03BC
ENCODING 956
SWIDTH 620 0
DWIDTH 31 0
BBX 23 37 4 -10
BITMAP
E0000E
E0000E
E0000E
E0000E
E0000E
E0000E
E0000E
E0000E
E0000E
E0000E
E0000E
E0000E
E0000E
E0000E
E0000E
E0000E
E0000E
E0001E
E0001E
F0003E
F0003E
F8007E
FC01EE
FE07CE
FFFF8E
EFFF0E
E3F80E
E00000
E00000
E00000
E00000
E00000
E00000
E00000
E00000
E00000
E00000
ENDCHAR
STARTCHAR 03BD
ENCODING 957
SWIDTH 560 0
DWIDTH 28 0
BBX 25 27 1 0
BITMAP
E0000380
70000700
70000700
38000E00
38000E00
3C001E00
1C001C00
1E003C00
0E003800
0E003800
07007000
07007000
0380E000
0380E000
03C1E000
01C1C000
01E3C000
00E38000
00E38000
00770000
00770000
003E0000
003E0000
003E0000
001C0000
001C0000
00080000
ENDCHAR
STARTCHAR 03BE
ENCODING 958
SWIDTH 460 0
DWIDTH 23 0
BBX 20 47 2 -10
BITMAP
007FC0
03FFF0
07FFE0
0F8060
1E0000
3C0000
380000
380000
380000
380000
380000
1C0000
1E0000
0F0000
07E000
01FFC0
01FFC0
07FFC0
0F8000
1E0000
380000
700000
700000
E00000
E00000
E00000
E00000
E00000
E00000
700000
700000
780000
3E0000
1FC000
0FFE00
03FF80
003FE0
0003F0
0000F0
000070
000070
000070
0000F0
0001E0
00FFC0
00FF80
01FE00
ENDCHAR
STARTCHAR 03BF
ENCODING 959
SWIDTH 660 0
DWIDTH 33 0
BBX 29 27 2 0
BITMAP
003FC000
00FFF800
03FFFE00
07E03F00
0F800F80
1E0003C0
3C0001E0
780000E0
70000070
70000070
E0000078
E0000038
E0000038
E0000038
E0000038
E0000038
E0000038
70000070
70000070
780000F0
3C0001E0
1E0003C0
0F000780
07E03F00
03FFFE00
00FFF800
003FE000
ENDCHAR
STARTCHAR 03C0
ENCODING 960
SWIDTH 680 0
DWIDTH 34 0
BBX 32 27 1 0
BITMAP
FFFFFFFF
FFFFFFFF
FFFFFFFF
038001C0
038001C0
038001C0
038001C0
038001C0
038001C0
038001C0
038001C0
038001C0
038001C0
038001C0
038001C0
038001C0
038001C0
038001C0
038001C0
038001C0
038001C0
038001C0
038001C0
038001C0
038001C0
038001C0
038001C0
ENDCHAR
STARTCHAR 03C1
ENCODING 961
SWIDTH 680 0
DWIDTH 34 0
BBX 28 37 4 -10
BITMAP
003FC000
01FFF800
03FFFC00
07E07E00
1F000F00
1E000780
3C0003C0
780001E0
700000E0
700000E0
E0000070
E0000070
E0000070
E0000070
E0000070
E0000070
E0000070
F00000E0
F00000E0
F80001E0
FC0003C0
FE000780
EF000F80
E7C03E00
E3FFFC00
E0FFF800
E03FC000
E0000000
E0000000
E0000000
E0000000
E0000000
E0000000
E0000000
E0000000
E0000000
E0000000
ENDCHAR
STARTCHAR 03C2
ENCODING 962
SWIDTH 580 0
DWIDTH 29 0
BBX 25 37 2 -10
BITMAP
003FC000
01FFF000
03FFFC00
0FC07E00
1F001F00
1E000F80
3C000700
78000200
70000000
70000000
E0000000
E0000000
E0000000
E0000000
E0000000
E0000000
E0000000
F0000000
70000000
78000000
3C000000
3E000000
1F800000
0FF80000
03FFC000
00FFF800
0007FC00
00007E00
00001E00
00000E00
00000E00
00000E00
00001E00
00003C00
001FF800
003FF000
003FC000
ENDCHAR
STARTCHAR 03C3
ENCODING 963
SWIDTH 720 0
DWIDTH 36 0
BBX 32 27 2 0
BITMAP
003FFFFF
01FFFFFF
03FFFFFF
0FC07E00
1F001F00
1E000F80
3C000780
780003C0
700001C0
700001C0
E00000E0
E00000E0
E00000E0
E00000E0
E00000E0
E00000E0
E00000E0
700001C0
700001C0
780003C0
3C000780
3E000700
1F001F00
0FC07E00
07FFF800
01FFF000
003F8000
ENDCHAR
STARTCHAR 03C4
ENCODING 964
SWIDTH 400 0
DWIDTH 20 0
BBX 18 27 1 0
BITMAP
FFFFC0
FFFFC0
FFFFC0
01C000
01C000
01C000
01C000
01C000
01C000
01C000
01C000
01C000
01C000
01C000
01C000
01C000
01C000
01C000
01C000
01C000
01C000
01C000
01C000
01C000
01C000
01C000
01C000
ENDCHAR
STARTCHAR 03C5
ENCODING 965
SWIDTH 600 0
DWIDTH 30 0
BBX 24 28 4 -1
BITMAP
E00180
E001C0
E003E0
E001F0
E000F8
E0007C
E0003C
E0001E
E0000E
E0000E
E0000F
E00007
E00007
E00007
E00007
E00007
E00007
E00007
E0000F
60000E
70000E
70001E
38003C
3C0078
1F01F0
0FFFE0
07FFC0
00FE00
ENDCHAR
STARTCHAR 03C6
ENCODING 966
SWIDTH 760 0
DWIDTH 38 0
BBX 34 37 2 -10
BITMAP
0001FC0000
00E1FFC000
03E1FFF000
07F1C3F800
0FC1C07C00
1F01C01E00
3C01C00F00
3801C00780
7801C00380
7001C00380
F001C001C0
E001C001C0
E001C001C0
E001C001C0
E001C001C0
E001C001C0
E001C001C0
7001C00380
7001C00380
7801C00780
3801C00F00
1E01C01E00
1F01C07C00
07F1C3F800
03FFFFF000
00FFFF8000
001FFC0000
0001C00000
0001C00000
0001C00000
0001C00000
0001C00000
0001C00000
0001C00000
0001C00000
0001C00000
0001C00000
ENDCHAR
STARTCHAR 03C7
ENCODING 967
SWIDTH 480 0
DWIDTH 24 0
BBX 24 37 0 -10
BITMAP
70000E
78001C
38001C
3C0038
1C0038
0E0070
0F00F0
0700E0
0781E0
0381C0
03C380
01C380
01E700
00E700
007E00
007E00
003C00
003800
003C00
003E00
007E00
00E700
00E700
01C380
01C3C0
0381C0
0381E0
0700E0
0F00F0
0E0070
1E0078
1C0038
38001C
38001E
70000E
70000F
E00007
ENDCHAR
STARTCHAR 03C8
ENCODING 968
SWIDTH 740 0
DWIDTH 37 0
BBX 29 37 4 -10
BITMAP
E0070038
E0070038
E0070038
E0070038
E0070038
E0070038
E0070038
E0070038
E0070038
E0070038
E0070038
E0070038
E0070038
E0070038
E0070038
E0070038
E0070038
E0070038
70070070
70070070
780700F0
3C0701E0
1E0703C0
1FC71F80
07FFFF00
03FFFC00
007FF000
00070000
00070000
00070000
00070000
00070000
00070000
00070000
00070000
00070000
00070000
ENDCHAR
STARTCHAR 03C9
ENCODING 969
SWIDTH 860 0
DWIDTH 43 0
BBX 39 27 2 0
BITMAP
000F01E000
007F01FC00
01FF01FF00
03F8003F80
0FC00007E0
1F000001F0
1E000000F0
3C00000078
780000003C
700000001C
700000001C
E00000000E
E00038000E
E00038000E
E00038000E
E00038000E
E00038000E
E00038000E
F00038001E
70007C001C
70007C001C
7800EE0038
3C01EF0078
1F03EF81F0
0FFFC7FFE0
07FF83FFC0
00FE00FE00
ENDCHAR
STARTCHAR 03CA
ENCODING 970
SWIDTH 220 0
DWIDTH 11 0
BBX 16 37 -2 0
BITMAP
781E
FC3F
FC3F
FC3F
FC3F
781E
0000
0000
0000
0000
0380
0380
0380
0380
0380
0380
0380
0380
0380
0380
0380
0380
0380
0380
0380
0380
0380
0380
0380
0380
0380
0380
0380
0380
0380
0380
0380
ENDCHAR
STARTCHAR 03CB
ENCODING 971
SWIDTH 600 0
DWIDTH 30 0
BBX 24 38 4 -1
BITMAP
0781E0
0FC3F0
0FC3F0
0FC3F0
0FC3F0
0781E0
000000
000000
000000
000000
E00180
E001C0
E003E0
E001F0
E000F8
E0007C
E0003C
E0001E
E0000E
E0000E
E0000F
E00007
E00007
E00007
E00007
E00007
E00007
E00007
E0000F
60000E
70000E
70001E
38003C
3C0078
1F01F0
0FFFE0
07FFC0
00FE00
ENDCHAR
STARTCHAR 03CC
ENCODING 972
SWIDTH 660 0
DWIDTH 33 0
BBX 29 39 2 0
BITMAP
00078000
00078000
00078000
00078000
00030000
00030000
00030000
00030000
00000000
00000000
00000000
00000000
003FC000
00FFF800
03FFFE00
07E03F00
0F800F80
1E0003C0
3C0001E0
780000E0
70000070
70000070
E0000078
E0000038
E0000038
E0000038
E0000038
E0000038
E0000038
70000070
70000070
780000F0
3C0001E0
1E0003C0
0F000780
07E03F00
03FFFE00
00FFF800
003FE000
ENDCHAR
STARTCHAR 03CD
ENCODING 973
SWIDTH 600 0
DWIDTH 30 0
BBX 24 40 4 -1
BITMAP
007800
007800
007800
007800
003000
003000
003000
003000
000000
000000
000000
000000
E00180
E001C0
E003E0
E001F0
E000F8
E0007C
E0003C
E0001E
E0000E
E0000E
E0000F
E00007
E00007
E00007
E00007
E00007
E00007
E00007
E0000F
60000E
70000E
70001E
38003C
3C0078
1F01F0
0FFFE0
07FFC0
00FE00
ENDCHAR
STARTCHAR 03CE
ENCODING 974
SWIDTH 860 0
DWIDTH 43 0
BBX 39 39 2 0
BITMAP
00003C0000
00003C0000
00003C0000
00003C0000
0000180000
0000180000
0000180000
0000180000
0000000000
0000000000
0000000000
0000000000
000F01E000
007F01FC00
01FF01FF00
03F8003F80
0FC00007E0
1F000001F0
1E000000F0
3C00000078
780000003C
700000001C
700000001C
E00000000E
E00038000E
E00038000E
E00038000E
E00038000E
E00038000E
E00038000E
F00038001E
70007C001C
70007C001C
7800EE0038
3C01EF0078
1F03EF81F0
0FFFC7FFE0
07FF83FFC0
00FE00FE00
ENDCHAR
STARTCHAR 0401
ENCODING 1025
SWIDTH 540 0
DWIDTH 27 0
BBX 20 46 5 0
BITMAP
1E0780
3F0FC0
3F0FC0
3F0FC0
3F0FC0
1E0780
000000
000000
000000
000000
FFFFF0
FFFFF0
FFFFF0
E00000
E00000
E00000
E00000
E00000
E00000
E00000
E00000
E00000
E00000
E00000
E00000
FFFFF0
FFFFF0
FFFFF0
E00000
E00000
E00000
E00000
E00000
E00000
E00000
E00000
E00000
E00000
E00000
E00000
E00000
E00000
E00000
FFFFF0
FFFFF0
FFFFF0
ENDCHAR
STARTCHAR 0402
ENCODING 1026
SWIDTH 680 0
DWIDTH 34 0
BBX 30 37 1 -1
BITMAP
FFFFE000
FFFFE000
FFFFE000
00E00000
00E00000
00E00000
00E00000
00E00000
00E00000
00E00000
00E00000
00E00000
00E00000
00E00000
00E00000
00E00000
00FFFC00
00FFFF80
00FFFFE0
00E003F0
00E000F0
00E00038
00E00038
00E0001C
00E0001C
00E0001C
00E0001C
00E0001C
00E0001C
00E0001C
00E0003C
00E00038
00E00078
00E0E0F0
00E1FFF0
00E1FFC0
00003F00
ENDCHAR
STARTCHAR 0403
ENCODING 1027
SWIDTH 460 0
DWIDTH 23 0
BBX 17 48 5 0
BITMAP
001F00
003E00
007C00
007800
00F000
00E000
01C000
03C000
000000
000000
000000
000000
FFFF80
FFFF80
FFFF80
E00000
E00000
E00000
E00000
E00000
E00000
E00000
E00000
E00000
E00000
E00000
E00000
E00000
E00000
E00000
E00000
E00000
E00000
E00000
E00000
E00000
E00000
E00000
E00000
E00000
E00000
E00000
E00000
E00000
E00000
E00000
E00000
E00000
ENDCHAR
STARTCHAR 0404
ENCODING 1028
SWIDTH 820 0
DWIDTH 41 0
BBX 35 38 3 -1
BITMAP
0001FF0000
001FFFE000
007FFFFC00
00FE01FE00
01F0003F00
07C0000FC0
07800003C0
0F000001E0
1E000000C0
3C00000000
3800000000
7800000000
7000000000
7000000000
F000000000
E000000000
E000000000
FFFFF80000
FFFFF80000
FFFFF80000
E000000000
E000000000
E000000000
F000000000
7000000000
7000000000
7800000000
3800000000
3C00000000
1E00000080
0F000001E0
0F800003E0
07C0000FC0
03F0001F80
00FE00FE00
007FFFFC00
001FFFF000
0003FF0000
ENDCHAR
STARTCHAR 0405
ENCODING 1029
SWIDTH 500 0
DWIDTH 25 0
BBX 21 38 1 -1
BITMAP
00FE00
03FF80
0FFFC0
0F07F0
1C01F8
3C0070
380020
380000
380000
380000
3C0000
1C0000
1E0000
0F0000
07C000
03E000
01F000
00FC00
003E00
001F00
000F80
0003C0
0001E0
0000F0
000070
000078
000038
000038
000038
200038
700038
F80070
7C00F0
3E01E0
1F03E0
0FFFC0
07FF00
01FC00
ENDCHAR
STARTCHAR 0406
ENCODING 1030
SWIDTH 260 0
DWIDTH 13 0
BBX 3 36 5 0
BITMAP
E0
E0
E0
E0
E0
E0
E0
E0
E0
E0
E0
E0
E0
E0
E0
E0
E0
E0
E0
E0
E0
E0
E0
E0
E0
E0
E0
E0
E0
E0
E0
E0
E0
E0
E0
E0
ENDCHAR
STARTCHAR 0407
ENCODING 1031
SWIDTH 260 0
DWIDTH 13 0
BBX 16 46 -2 0
BITMAP
781E
FC3F
FC3F
FC3F
FC3F
781E
0000
0000
0000
0000
01C0
01C0
01C0
01C0
01C0
01C0
01C0
01C0
01C0
01C0
01C0
01C0
01C0
01C0
01C0
01C0
01C0
01C0
01C0
01C0
01C0
01C0
01C0
01C0
01C0
01C0
01C0
01C0
01C0
01C0
01C0
01C0
01C0
01C0
01C0
01C0
ENDCHAR
STARTCHAR 0408
ENCODING 1032
SWIDTH 480 0
DWIDTH 24 0
BBX 17 37 2 -1
BITMAP
000380
000380
000380
000380
000380
000380
000380
000380
000380
000380
000380
000380
000380
000380
000380
000380
000380
000380
000380
000380
000380
000380
000380
000380
000380
000380
000380
000380
000380
000380
000780
200700
700F00
FE1F00
7FFE00
3FFC00
07F000
ENDCHAR
STARTCHAR 0409
ENCODING 1033
SWIDTH 1060 0
DWIDTH 53 0
BBX 49 36 1 0
BITMAP
00004000000000
0000C000000000
0000E000000000
0001E000000000
0001F000000000
0003F000000000
0003F800000000
00073800000000
00073800000000
000E1C00000000
000E1C00000000
000C0E00000000
001C0E00000000
00180F00000000
00380700000000
00300780000000
007003FFFF0000
006003FFFFF000
00E001FFFFFC00
00C001C0007E00
01C000E0001E00
01C000E0000700
03800070000700
03800070000380
07000038000380
07000038000380
0E00003C000380
0E00001C000380
1C00001E000380
1C00000E000700
3800000F000700
38000007000F00
70000007007E00
70000003FFFC00
E0000003FFF000
E0000001FF8000
ENDCHAR
STARTCHAR 040A
ENCODING 1034
SWIDTH 1040 0
DWIDTH 52 0
BBX 44 36 5 0
BITMAP
E00003800000
E00003800000
E00003800000
E00003800000
E00003800000
E00003800000
E00003800000
E00003800000
E00003800000
E00003800000
E00003800000
E00003800000
E00003800000
E00003800000
E00003800000
E00003800000
FFFFFFFFF000
FFFFFFFFFE00
FFFFFFFFFF80
E00003800FC0
E000038001E0
E000038000E0
E000038000F0
E00003800070
E00003800070
E00003800070
E00003800070
E00003800070
E00003800070
E000038000F0
E000038000E0
E000038001E0
E000038007C0
E00003FFFF80
E00003FFFF00
E00003FFF800
ENDCHAR
STARTCHAR 040B
ENCODING 1035
SWIDTH 680 0
DWIDTH 34 0
BBX 30 36 1 0
BITMAP
FFFFE000
FFFFE000
FFFFE000
00E00000
00E00000
00E00000
00E00000
00E00000
00E00000
00E00000
00E00000
00E00000
00E00000
00E00000
00E00000
00E00000
00FFFF00
00FFFFC0
00FFFFF0
00E001F0
00E00078
00E00038
00E0001C
00E0001C
00E0001C
00E0001C
00E0001C
00E0001C
00E0001C
00E0001C
00E0001C
00E0001C
00E0001C
00E0001C
00E0001C
00E0001C
ENDCHAR
STARTCHAR 040C
ENCODING 1036
SWIDTH 600 0
DWIDTH 30 0
BBX 24 48 5 0
BITMAP
0007C0
000F80
001F00
001E00
003C00
003800
007000
00F000
000000
000000
000000
000000
E0001E
E0007C
E000F8
E001E0
E003C0
E00780
E00F00
E01E00
E07C00
E0F000
E1E000
E3C000
E78000
EF0000
FE0000
FC0000
F80000
FC0000
FE0000
EF0000
E78000
E3C000
E1E000
E0F000
E07800
E03C00
E01E00
E00F00
E00780
E003C0
E001E0
E000F0
E00078
E0003C
E0001E
E0000F
ENDCHAR
STARTCHAR 040E
ENCODING 1038
SWIDTH 640 0
DWIDTH 32 0
BBX 28 47 2 -1
BITMAP
07001C00
07803C00
03E0F800
01FFF000
00FFE000
003F8000
00000000
00000000
00000000
00000000
E0000070
F0000070
F00000E0
780000E0
780001E0
380001C0
3C0003C0
1C000380
1E000380
0E000700
0F000700
07000F00
07800E00
03801E00
03C01C00
01C01C00
01E03800
01E03800
00F07800
00F07000
0078F000
0078E000
003CE000
003DC000
001FC000
001FC000
000F8000
000F8000
00070000
00070000
000E0000
700E0000
F81E0000
7C3C0000
3FF80000
1FF80000
07E00000
ENDCHAR
STARTCHAR 040F
ENCODING 1039
SWIDTH 640 0
DWIDTH 32 0
BBX 22 41 5 -5
BITMAP
E0001C
E0001C
E0001C
E0001C
E0001C
E0001C
E0001C
E0001C
E0001C
E0001C
E0001C
E0001C
E0001C
E0001C
E0001C
E0001C
E0001C
E0001C
E0001C
E0001C
E0001C
E0001C
E0001C
E0001C
E0001C
E0001C
E0001C
E0001C
E0001C
E0001C
E0001C
E0001C
E0001C
FFFFFC
FFFFFC
FFFFFC
003800
003800
003800
003800
003800
ENDCHAR
STARTCHAR 0410
ENCODING 1040
SWIDTH 700 0
DWIDTH 35 0
BBX 31 36 2 0
BITMAP
00010000
00018000
00038000
0003C000
0003C000
0007C000
0007E000
000EE000
000EF000
001C7000
001C7800
00187800
00383800
00303C00
00701C00
00701E00
00E00E00
00E00F00
00C00F00
01C00700
01800780
03FFFF80
03FFFFC0
07FFFFC0
070001E0
070001E0
0E0000E0
0E0000F0
1C000070
1C000078
38000078
3800003C
7800003C
7000001C
7000001E
E000000E
ENDCHAR
STARTCHAR 0411
ENCODING 1041
SWIDTH 580 0
DWIDTH 29 0
BBX 21 36 5 0
BITMAP
FFFFC0
FFFFC0
FFFFC0
E00000
E00000
E00000
E00000
E00000
E00000
E00000
E00000
E00000
E00000
E00000
E00000
E00000
FFF000
FFFE00
FFFF80
E00FC0
E001E0
E000F0
E00070
E00078
E00038
E00038
E00038
E00038
E00038
E00070
E000F0
E001E0
E007E0
FFFFC0
FFFF00
FFFC00
ENDCHAR
STARTCHAR 0412
ENCODING 1042
SWIDTH 580 0
DWIDTH 29 0
BBX 21 36 5 0
BITMAP
FFF000
FFFC00
FFFE00
E01F00
E00780
E00380
E001C0
E001C0
E001C0
E001C0
E001C0
E003C0
E00780
E00F80
E03F00
FFFE00
FFFE00
FFFF80
E00FC0
E003E0
E000F0
E00070
E00078
E00038
E00038
E00038
E00038
E00038
E00078
E00070
E000F0
E001E0
E007C0
FFFF80
FFFF00
FFF800
ENDCHAR
STARTCHAR 0413
ENCODING 1043
SWIDTH 460 0
DWIDTH 23 0
BBX 17 36 5 0
BITMAP
FFFF80
FFFF80
FFFF80
E00000
E00000
E00000
E00000
E00000
E00000
E00000
E00000
E00000
E00000
E00000
E00000
E00000
E00000
E00000
E00000
E00000
E00000
E00000
E00000
E00000
E00000
E00000
E00000
E00000
E00000
E00000
E00000
E00000
E00000
E00000
E00000
E00000
ENDCHAR
STARTCHAR 0414
ENCODING 1044
SWIDTH 740 0
DWIDTH 37 0
BBX 35 42 1 -5
BITMAP
0000400000
0000C00000
0000E00000
0001E00000
0001F00000
0003F00000
0003F00000
0003380000
0007380000
00071C0000
000E1C0000
000E1E0000
000C0E0000
001C0E0000
0018070000
0038070000
0038038000
0070038000
007003C000
006001C000
00E001E000
00E000E000
01C000E000
01C0007000
0380007000
0380003800
0300003800
0700003C00
0700001C00
0E00001E00
0E00000E00
0C00000E00
1C00000700
1800000700
FFFFFFFFE0
FFFFFFFFE0
FFFFFFFFE0
E0000000E0
E0000000E0
E0000000E0
E0000000E0
E0000000E0
ENDCHAR
STARTCHAR 0415
ENCODING 1045
SWIDTH 540 0
DWIDTH 27 0
BBX 20 36 5 0
BITMAP
FFFFF0
FFFFF0
FFFFF0
E00000
E00000
E00000
E00000
E00000
E00000
E00000
E00000
E00000
E00000
E00000
E00000
FFFFF0
FFFFF0
FFFFF0
E00000
E00000
E00000
E00000
E00000
E00000
E00000
E00000
E00000
E00000
E00000
E00000
E00000
E00000
E00000
FFFFF0
FFFFF0
FFFFF0
ENDCHAR
STARTCHAR 0416
ENCODING 1046
SWIDTH 940 0
DWIDTH 47 0
BBX 41 36 3 0
BITMAP
78001C000F00
3C001C001E00
1E001C003C00
0F001C007800
07801C00F000
03C01C00E000
01E01C01C000
01F01C038000
00F01C070000
00781C0F0000
003C1C1E0000
001E1C3C0000
000F1C780000
00079CF00000
0003DDE00000
0001FFC00000
0000FF800000
0001FFC00000
0003FFE00000
00039CF00000
00071C780000
000E1C380000
001C1C3C0000
003C1C1E0000
00781C0F0000
00F01C078000
00E01C03C000
01C01C01E000
03801C00E000
07001C00F000
0F001C007800
1E001C003C00
3C001C001E00
38001C000F00
70001C000780
E0001C000780
ENDCHAR
STARTCHAR 0417
ENCODING 1047
SWIDTH 580 0
DWIDTH 29 0
BBX 23 38 3 -1
BITMAP
00FC00
07FF80
0FFFC0
1F03E0
3C00F0
180070
000078
000038
000038
000038
000038
000038
000038
000070
000070
0000E0
0003C0
007F80
007F80
007FE0
0001F0
000078
00003C
00001C
00001E
00000E
00000E
00000E
00000E
20000E
E0001E
F0001C
78003C
3C0078
1F81F0
0FFFE0
07FFC0
00FE00
ENDCHAR
STARTCHAR 0418
ENCODING 1048
SWIDTH 740 0
DWIDTH 37 0
BBX 27 36 5 0
BITMAP
E0000020
E0000060
E00000E0
E00001E0
E00001E0
E00003E0
E00007E0
E0000FE0
E0001EE0
E0001CE0
E00038E0
E00070E0
E000F0E0
E001E0E0
E001C0E0
E00380E0
E00700E0
E00F00E0
E01E00E0
E01C00E0
E03800E0
E07000E0
E0F000E0
E1E000E0
E1C000E0
E38000E0
E70000E0
EF0000E0
FE0000E0
FC0000E0
F80000E0
F00000E0
F00000E0
E00000E0
C00000E0
800000E0
ENDCHAR
STARTCHAR 0419
ENCODING 1049
SWIDTH 740 0
DWIDTH 37 0
BBX 27 46 5 0
BITMAP
07001C00
07803C00
03E0F800
01FFF000
00FFE000
003F8000
00000000
00000000
00000000
00000000
E0000020
E0000060
E00000E0
E00001E0
E00001E0
E00003E0
E00007E0
E0000FE0
E0001EE0
E0001CE0
E00038E0
E00070E0
E000F0E0
E001E0E0
E001C0E0
E00380E0
E00700E0
E00F00E0
E01E00E0
E01C00E0
E03800E0
E07000E0
E0F000E0
E1E000E0
E1C000E0
E38000E0
E70000E0
EF0000E0
FE0000E0
FC0000E0
F80000E0
F00000E0
F00000E0
E00000E0
C00000E0
800000E0
ENDCHAR
STARTCHAR 041A
ENCODING 1050
SWIDTH 600 0
DWIDTH 30 0
BBX 24 36 5 0
BITMAP
E0001E
E0007C
E000F8
E001E0
E003C0
E00780
E00F00
E01E00
E07C00
E0F000
E1E000
E3C000
E78000
EF0000
FE0000
FC0000
F80000
FC0000
FE0000
EF0000
E78000
E3C000
E1E000
E0F000
E07800
E03C00
E01E00
E00F00
E00780
E003C0
E001E0
E000F0
E00078
E0003C
E0001E
E0000F
ENDCHAR
STARTCHAR 041B
ENCODING 1051
SWIDTH 700 0
DWIDTH 35 0
BBX 31 36 2 0
BITMAP
00010000
00018000
00038000
0003C000
0003C000
0007C000
0007E000
000FE000
000EF000
001CF000
001C7800
00187800
00383800
00303C00
00701C00
00701E00
00E01E00
00E00F00
00C00F00
01C00700
01800780
03800380
038003C0
070003C0
070001E0
060001E0
0E0000E0
0C0000F0
1C000070
1C000078
38000078
3800003C
7000003C
7000001C
6000001E
E000000E
ENDCHAR
STARTCHAR 041C
ENCODING 1052
SWIDTH 900 0
DWIDTH 45 0
BBX 39 36 3 0
BITMAP
0400000020
0400000060
0600000060
0E000000E0
0E000000E0
0F000001E0
0F000001E0
0F800003F0
0F800003F0
0FC0000770
1DC0000770
1DE0000E70
1CE0000E70
1CF0000C70
1C70001C78
1C78001C78
1C38003878
183C003838
381C007038
381E007038
380E00E038
380E00E03C
380701C03C
380701C03C
380383803C
700383801C
7001C7001C
7001C7001C
7001EF001E
7000EE001E
7000FE001E
70007C001E
F0007C000E
E00038000E
E00038000E
E00010000E
ENDCHAR
STARTCHAR 041D
ENCODING 1053
SWIDTH 680 0
DWIDTH 34 0
BBX 24 36 5 0
BITMAP
E00007
E00007
E00007
E00007
E00007
E00007
E00007
E00007
E00007
E00007
E00007
E00007
E00007
E00007
E00007
E00007
FFFFFF
FFFFFF
FFFFFF
E00007
E00007
E00007
E00007
E00007
E00007
E00007
E00007
E00007
E00007
E00007
E00007
E00007
E00007
E00007
E00007
E00007
ENDCHAR
STARTCHAR 041E
ENCODING 1054
SWIDTH 860 0
DWIDTH 43 0
BBX 37 38 3 -1
BITMAP
0003FE0000
001FFFC000
007FFFF000
00FE03F800
03F0007E00
07C0001F00
0F80000F80
0F00000780
1E000003C0
3C000001E0
38000000E0
78000000F0
7000000070
7000000070
7000000078
E000000038
E000000038
E000000038
E000000038
E000000038
E000000038
E000000038
E000000038
F000000078
7000000070
7000000070
78000000F0
38000000E0
3C000001E0
1E000003C0
0F00000780
0F80000F80
07C0001F00
03F0007E00
00FC03F800
007FFFF000
001FFFC000
0003FE0000
ENDCHAR
STARTCHAR 041F
ENCODING 1055
SWIDTH 680 0
DWIDTH 34 0
BBX 24 36 5 0
BITMAP
FFFFFF
FFFFFF
FFFFFF
E00007
E00007
E00007
E00007
E00007
E00007
E00007
E00007
E00007
E00007
E00007
E00007
E00007
E00007
E00007
E00007
E00007
E00007
E00007
E00007
E00007
E00007
E00007
E00007
E00007
E00007
E00007
E00007
E00007
E00007
E00007
E00007
E00007
ENDCHAR
STARTCHAR 0420
ENCODING 1056
SWIDTH 600 0
DWIDTH 30 0
BBX 22 36 5 0
BITMAP
FFFE00
FFFFC0
FFFFE0
E001F0
E00078
E00038
E0003C
E0001C
E0001C
E0001C
E0001C
E0001C
E0003C
E00038
E00078
E001F0
FFFFE0
FFFF80
FFFC00
E00000
E00000
E00000
E00000
E00000
E00000
E00000
E00000
E00000
E00000
E00000
E00000
E00000
E00000
E00000
E00000
E00000
ENDCHAR
STARTCHAR 0421
ENCODING 1057
SWIDTH 820 0
DWIDTH 41 0
BBX 35 38 3 -1
BITMAP
0001FF0000
001FFFF000
007FFFFC00
00FE01FE00
01F0003F80
07C0000FC0
0F800003E0
0F000001C0
1E00000080
3C00000000
3800000000
7800000000
7000000000
7000000000
F000000000
E000000000
E000000000
E000000000
E000000000
E000000000
E000000000
E000000000
E000000000
F000000000
7000000000
7000000000
7800000000
3800000000
3C00000000
1E00000080
0F000001C0
0F800003E0
07C0000FC0
03F0003F80
00FE01FE00
007FFFFC00
001FFFF000
0003FF0000
ENDCHAR
STARTCHAR 0422
ENCODING 1058
SWIDTH 420 0
DWIDTH 21 0
BBX 19 36 1 0
BITMAP
FFFFE0
FFFFE0
FFFFE0
00E000
00E000
00E000
00E000
00E000
00E000
00E000
00E000
00E000
00E000
00E000
00E000
00E000
00E000
00E000
00E000
00E000
00E000
00E000
00E000
00E000
00E000
00E000
00E000
00E000
00E000
00E000
00E000
00E000
00E000
00E000
00E000
00E000
ENDCHAR
STARTCHAR 0423
ENCODING 1059
SWIDTH 640 0
DWIDTH 32 0
BBX 28 37 2 -1
BITMAP
E0000070
F0000070
F00000E0
780000E0
780001E0
380001C0
3C0003C0
1C000380
1E000380
0E000700
0F000700
07000F00
07800E00
03801E00
03C01C00
01C01C00
01E03800
01E03800
00F07800
00F07000
0078F000
0078E000
003CE000
003DC000
001FC000
001FC000
000F8000
000F8000
00070000
00070000
000E0000
700E0000
F81E0000
7C3C0000
3FF80000
1FF80000
07E00000
ENDCHAR
STARTCHAR 0424
ENCODING 1060
SWIDTH 880 0
DWIDTH 44 0
BBX 38 36 3 0
BITMAP
0000700000
0000700000
0000700000
0000700000
0000700000
007FFFF800
03FFFFFF00
0FFFFFFFC0
1F807007E0
3C007001F0
7800700078
7000700038
F000700038
E00070001C
E00070001C
E00070001C
E00070001C
E00070001C
E00070003C
7000700038
7800700078
3C007000F0
3F007003E0
1FFFFFFFC0
07FFFFFF80
00FFFFFC00
0000700000
0000700000
0000700000
0000700000
0000700000
0000700000
0000700000
0000700000
0000700000
0000700000
ENDCHAR
STARTCHAR 0425
ENCODING 1061
SWIDTH 600 0
DWIDTH 30 0
BBX 27 36 1 0
BITMAP
E00000E0
F00001C0
780001C0
38000380
3C000700
1E000F00
0E000E00
0F001C00
07803C00
03C03800
01C07000
01E0E000
00F0E000
0071C000
007B8000
003F8000
001F0000
001E0000
000F0000
001F0000
003F8000
003BC000
0071C000
00E1E000
00E0F000
01C07000
03807800
07803C00
07001E00
0E000E00
1E000F00
1C000780
38000380
700003C0
700001E0
E00000E0
ENDCHAR
STARTCHAR 0426
ENCODING 1062
SWIDTH 700 0
DWIDTH 35 0
BBX 29 41 5 -5
BITMAP
E0000E00
E0000E00
E0000E00
E0000E00
E0000E00
E0000E00
E0000E00
E0000E00
E0000E00
E0000E00
E0000E00
E0000E00
E0000E00
E0000E00
E0000E00
E0000E00
E0000E00
E0000E00
E0000E00
E0000E00
E0000E00
E0000E00
E0000E00
E0000E00
E0000E00
E0000E00
E0000E00
E0000E00
E0000E00
E0000E00
E0000E00
E0000E00
E0000E00
FFFFFFF8
FFFFFFF8
FFFFFFF8
00000038
00000038
00000038
00000038
00000038
ENDCHAR
STARTCHAR 0427
ENCODING 1063
SWIDTH 540 0
DWIDTH 27 0
BBX 21 36 1 0
BITMAP
E00038
E00038
E00038
E00038
E00038
E00038
E00038
E00038
E00038
E00038
E00038
E00038
700038
700038
780038
3E0038
1FFFF8
07FFF8
01FFF8
000038
000038
000038
000038
000038
000038
000038
000038
000038
000038
000038
000038
000038
000038
000038
000038
000038
ENDCHAR
STARTCHAR 0428
ENCODING 1064
SWIDTH 1000 0
DWIDTH 50 0
BBX 40 36 5 0
BITMAP
E000380007
E000380007
E000380007
E000380007
E000380007
E000380007
E000380007
E000380007
E000380007
E000380007
E000380007
E000380007
E000380007
E000380007
E000380007
E000380007
E000380007
E000380007
E000380007
E000380007
E000380007
E000380007
E000380007
E000380007
E000380007
E000380007
E000380007
E000380007
E000380007
E000380007
E000380007
E000380007
E000380007
FFFFFFFFFF
FFFFFFFFFF
FFFFFFFFFF
ENDCHAR
STARTCHAR 0429
ENCODING 1065
SWIDTH 1060 0
DWIDTH 53 0
BBX 47 41 5 -5
BITMAP
E00038000700
E00038000700
E00038000700
E00038000700
E00038000700
E00038000700
E00038000700
E00038000700
E00038000700
E00038000700
E00038000700
E00038000700
E00038000700
E00038000700
E00038000700
E00038000700
E00038000700
E00038000700
E00038000700
E00038000700
E00038000700
E00038000700
E00038000700
E00038000700
E00038000700
E00038000700
E00038000700
E00038000700
E00038000700
E00038000700
E00038000700
E00038000700
E00038000700
FFFFFFFFFFFE
FFFFFFFFFFFE
FFFFFFFFFFFE
00000000000E
00000000000E
00000000000E
00000000000E
00000000000E
ENDCHAR
STARTCHAR 042A
ENCODING 1066
SWIDTH 680 0
DWIDTH 34 0
BBX 30 36 1 0
BITMAP
FFC00000
FFC00000
FFC00000
01C00000
01C00000
01C00000
01C00000
01C00000
01C00000
01C00000
01C00000
01C00000
01C00000
01C00000
01C00000
01C00000
01FFFC00
01FFFF80
01FFFFE0
01C003F0
01C000F8
01C00078
01C0003C
01C0001C
01C0001C
01C0001C
01C0001C
01C0001C
01C0001C
01C00038
01C00038
01C00078
01C003F0
01FFFFE0
01FFFF80
01FFFC00
ENDCHAR
STARTCHAR 042B
ENCODING 1067
SWIDTH 800 0
DWIDTH 40 0
BBX 30 36 5 0
BITMAP
E000001C
E000001C
E000001C
E000001C
E000001C
E000001C
E000001C
E000001C
E000001C
E000001C
E000001C
E000001C
E000001C
E000001C
E000001C
E000001C
FFFE001C
FFFFC01C
FFFFF01C
E001F81C
E0007C1C
E0003C1C
E0001E1C
E0000E1C
E0000E1C
E0000E1C
E0000E1C
E0000E1C
E0000E1C
E0001C1C
E0001C1C
E0003C1C
E001F81C
FFFFF01C
FFFFC01C
FFFE001C
ENDCHAR
STARTCHAR 042C
ENCODING 1068
SWIDTH 600 0
DWIDTH 30 0
BBX 22 36 5 0
BITMAP
E00000
E00000
E00000
E00000
E00000
E00000
E00000
E00000
E00000
E00000
E00000
E00000
E00000
E00000
E00000
E00000
FFFC00
FFFFC0
FFFFE0
E003F0
E00078
E00038
E0003C
E0001C
E0001C
E0001C
E0001C
E0001C
E0001C
E0003C
E00038
E00078
E003F0
FFFFE0
FFFFC0
FFFE00
ENDCHAR
STARTCHAR 042D
ENCODING 1069
SWIDTH 820 0
DWIDTH 41 0
BBX 35 38 3 -1
BITMAP
001FF00000
00FFFE0000
07FFFF8000
0FF00FE000
1F8001F000
7E00007800
7800003C00
F000001E00
6000000F00
0000000780
0000000380
00000003C0
00000001C0
00000001C0
00000001E0
00000000E0
00000000E0
0003FFFFE0
0003FFFFE0
0003FFFFE0
00000000E0
00000000E0
00000000E0
00000001C0
00000001C0
00000001C0
00000003C0
0000000380
0000000780
2000000F00
F000001E00
F800003E00
7E00007C00
3F0001F800
0FE00FE000
07FFFFC000
01FFFF0000
001FF00000
ENDCHAR
STARTCHAR 042E
ENCODING 1070
SWIDTH 1100 0
DWIDTH 55 0
BBX 47 38 5 -1
BITMAP
000000FF0000
E0000FFFF000
E0003FFFF800
E0007F00FE00
E001F8001F00
E003E0000780
E007C00003C0
E007800001E0
E00F000000F0
E01E00000078
E01C00000038
E03C0000003C
E0380000001C
E0380000001C
E0780000001C
E0700000000E
E0700000000E
FFF00000000E
FFF00000000E
FFF00000000E
E0700000000E
E0700000000E
E0700000000E
E0380000001E
E0380000001C
E0380000001C
E01C0000003C
E01C00000038
E01E00000078
E00F000000F0
E007800001E0
E003C00003C0
E003E0000780
E000F8001F00
E0007F00FE00
E0003FFFFC00
E0000FFFF000
000000FF8000
ENDCHAR
STARTCHAR 042F
ENCODING 1071
SWIDTH 580 0
DWIDTH 29 0
BBX 22 36 2 0
BITMAP
01FFFC
0FFFFC
1FFFFC
3E001C
78001C
70001C
F0001C
E0001C
E0001C
E0001C
E0001C
E0001C
F0001C
70001C
78001C
3E001C
1FFFFC
07FFFC
00FFFC
000F1C
000E1C
001E1C
003C1C
00781C
00F01C
00E01C
01E01C
03C01C
07801C
07001C
0F001C
1E001C
3C001C
38001C
78001C
F0001C
ENDCHAR
STARTCHAR 0430
ENCODING 1072
SWIDTH 680 0
DWIDTH 34 0
BBX 28 27 2 0
BITMAP
003FC070
00FFF870
03FFFE70
07E07F70
0F000FF0
1E0007F0
3C0003F0
780001F0
700000F0
700000F0
E0000070
E0000070
E0000070
E0000070
E0000070
E0000070
E0000070
700000F0
700000F0
780001F0
3C0003F0
1E0007F0
0F000FF0
07E07F70
03FFFE70
01FFF870
003FC070
ENDCHAR
STARTCHAR 0431
ENCODING 1073
SWIDTH 660 0
DWIDTH 33 0
BBX 29 37 2 0
BITMAP
0003FFE0
007FFFE0
01FFFFE0
07F80000
0F800000
1F000000
1E000000
3C000000
78000000
78000000
701FE000
707FF800
F1FFFE00
F3F03F00
E7800780
EF0003C0
EE0001E0
FC0000F0
F8000070
F8000070
F8000038
F0000038
F0000038
F0000038
F0000038
70000038
70000038
78000070
38000070
3C0000F0
1E0001E0
1F0003C0
0F800780
07E01F00
01FFFE00
00FFFC00
001FE000
ENDCHAR
STARTCHAR 0432
ENCODING 1074
SWIDTH 460 0
DWIDTH 23 0
BBX 17 27 4 0
BITMAP
FFE000
FFF000
FFF800
E03C00
E01E00
E00E00
E00E00
E00E00
E00E00
E00E00
E01C00
E03C00
FFF800
FFF800
FFFE00
E01F00
E00700
E00380
E00380
E00380
E00380
E00380
E00780
E00F00
FFFE00
FFFC00
FFF000
ENDCHAR
STARTCHAR 0433
ENCODING 1075
SWIDTH 360 0
DWIDTH 18 0
BBX 13 27 4 0
BITMAP
FFF8
FFF8
FFF8
E000
E000
E000
E000
E000
E000
E000
E000
E000
E000
E000
E000
E000
E000
E000
E000
E000
E000
E000
E000
E000
E000
E000
E000
ENDCHAR
STARTCHAR 0434
ENCODING 1076
SWIDTH 600 0
DWIDTH 30 0
BBX 28 31 1 -4
BITMAP
00060000
00070000
000F0000
000F0000
001F8000
001F8000
0019C000
0039C000
0039E000
0070E000
0070F000
00E07000
00E07000
01C03800
01C03800
01C03C00
03801C00
03801E00
07000E00
07000F00
0E000700
0E000780
1E000780
1C000380
FFFFFFF0
FFFFFFF0
FFFFFFF0
E0000070
E0000070
E0000070
E0000070
ENDCHAR
STARTCHAR 0435
ENCODING 1077
SWIDTH 660 0
DWIDTH 33 0
BBX 29 27 2 0
BITMAP
003FE000
00FFF800
03FFFE00
07E03F00
0F000780
1E0003C0
3C0000E0
780000E0
70000070
70000070
F0000038
FFFFFFF8
FFFFFFF8
FFFFFFF8
E0000000
E0000000
E0000000
70000000
70000040
780000F0
3C0001E0
1E0003E0
1F000FC0
0FC03F80
03FFFF00
01FFFC00
003FE000
ENDCHAR
STARTCHAR 0436
ENCODING 1078
SWIDTH 760 0
DWIDTH 38 0
BBX 39 27 -1 0
BITMAP
780038003C
3E00380078
1F003800F0
0F803803C0
07C0380780
01E0380F00
00F0381E00
0078383C00
003C387800
001E38F000
000F39E000
0007BBC000
0003FF8000
0007FFC000
000F7CE000
001E38F000
003C387800
0078383C00
00F0381E00
01E0380F00
03C0380780
07803803C0
0F003801E0
1E003800F0
3C00380078
780038003C
F00038001E
ENDCHAR
STARTCHAR 0437
ENCODING 1079
SWIDTH 420 0
DWIDTH 21 0
BBX 18 27 1 0
BITMAP
03F000
1FFC00
3FFE00
7C0F00
300780
000380
000380
000380
000380
000700
001F00
01FC00
01FC00
01FF00
000F80
000780
0003C0
0001C0
0001C0
0001C0
0001C0
2003C0
700380
FC0F80
7FFF00
1FFE00
07F000
ENDCHAR
STARTCHAR 0438
ENCODING 1080
SWIDTH 620 0
DWIDTH 31 0
BBX 23 27 4 0
BITMAP
E00002
E00006
E0000E
E0001E
E0003E
E0007E
E0006E
E000CE
E0018E
E0030E
E0060E
E00C0E
E01C0E
E0380E
E0700E
E0600E
E0C00E
E1800E
E3000E
E6000E
EC000E
FC000E
F8000E
F0000E
E0000E
C0000E
80000E
ENDCHAR
STARTCHAR 0439
ENCODING 1081
SWIDTH 620 0
DWIDTH 31 0
BBX 23 37 4 0
BITMAP
1C0070
1E00F0
0F83E0
07FFC0
03FF80
00FE00
000000
000000
000000
000000
E00002
E00006
E0000E
E0001E
E0003E
E0007E
E0006E
E000CE
E0018E
E0030E
E0060E
E00C0E
E01C0E
E0380E
E0700E
E0600E
E0C00E
E1800E
E3000E
E6000E
EC000E
FC000E
F8000E
F0000E
E0000E
C0000E
80000E
ENDCHAR
STARTCHAR 043A
ENCODING 1082
SWIDTH 500 0
DWIDTH 25 0
BBX 21 27 4 0
BITMAP
E000E0
E003C0
E00780
E00F00
E01E00
E03C00
E07800
E0F000
E1E000
E3C000
E78000
EE0000
FC0000
FE0000
FF0000
E78000
E3C000
E1E000
E0F000
E07800
E01C00
E00F00
E00780
E003C0
E001E0
E000F0
E00078
ENDCHAR
STARTCHAR 043B
ENCODING 1083
SWIDTH 560 0
DWIDTH 28 0
BBX 26 27 1 0
BITMAP
000C0000
000C0000
001E0000
001E0000
003F0000
003F0000
00778000
00738000
00F3C000
00E1C000
00E1E000
01C0E000
01C0F000
03807000
03807800
07003800
07003C00
0E003C00
0E001E00
1C001E00
1C000F00
38000F00
38000780
70000780
70000380
E00003C0
E00001C0
ENDCHAR
STARTCHAR 043C
ENCODING 1084
SWIDTH 880 0
DWIDTH 44 0
BBX 42 27 1 0
BITMAP
006000018000
006000018000
007000038000
00F00003C000
00F80007C000
00F80007C000
01FC000FE000
01DC000EE000
01DE001CE000
038E001CF000
038F00387000
078700387800
070780783800
070380703800
0E03C0F03C00
0E01C0E01C00
0E01E1E01C00
1C00E1C01E00
1C00F3C00E00
380073800F00
38007F800700
38003F000700
70003F000780
70001E000380
70001E000380
E0000C0001C0
E0000C0001C0
ENDCHAR
STARTCHAR 043D
ENCODING 1085
SWIDTH 600 0
DWIDTH 30 0
BBX 22 27 4 0
BITMAP
E0001C
E0001C
E0001C
E0001C
E0001C
E0001C
E0001C
E0001C
E0001C
E0001C
E0001C
FFFFFC
FFFFFC
FFFFFC
E0001C
E0001C
E0001C
E0001C
E0001C
E0001C
E0001C
E0001C
E0001C
E0001C
E0001C
E0001C
E0001C
ENDCHAR
STARTCHAR 043E
ENCODING 1086
SWIDTH 660 0
DWIDTH 33 0
BBX 29 27 2 0
BITMAP
003FC000
00FFF800
03FFFE00
07E03F00
0F800F80
1E0003C0
3C0001E0
780000E0
70000070
70000070
E0000078
E0000038
E0000038
E0000038
E0000038
E0000038
E0000038
70000070
70000070
780000F0
3C0001E0
1E0003C0
0F000780
07E03F00
03FFFE00
00FFF800
003FE000
ENDCHAR
STARTCHAR 043F
ENCODING 1087
SWIDTH 600 0
DWIDTH 30 0
BBX 22 27 4 0
BITMAP
FFFFFC
FFFFFC
FFFFFC
E0001C
E0001C
E0001C
E0001C
E0001C
E0001C
E0001C
E0001C
E0001C
E0001C
E0001C
E0001C
E0001C
E0001C
E0001C
E0001C
E0001C
E0001C
E0001C
E0001C
E0001C
E0001C
E0001C
E0001C
ENDCHAR
STARTCHAR 0440
ENCODING 1088
SWIDTH 680 0
DWIDTH 34 0
BBX 28 37 4 -10
BITMAP
E03FC000
E1FFF000
E7FFFC00
EFE07E00
FF000F00
FE000780
FC0003C0
F80001E0
F00000E0
F00000E0
E0000070
E0000070
E0000070
E0000070
E0000070
E0000070
E00000F0
F00000E0
F00000E0
F80001E0
FC0003C0
FE000780
EF000F00
E7E07E00
E3FFFC00
E0FFF800
E03FC000
E0000000
E0000000
E0000000
E0000000
E0000000
E0000000
E0000000
E0000000
E0000000
E0000000
ENDCHAR
STARTCHAR 0441
ENCODING 1089
SWIDTH 640 0
DWIDTH 32 0
BBX 28 27 2 0
BITMAP
001FE000
00FFFC00
03FFFF00
07E01FC0
0F8007E0
1E0001E0
3C0000F0
38000040
70000000
70000000
E0000000
E0000000
E0000000
E0000000
E0000000
E0000000
E0000000
70000000
70000000
78000040
3C0000F0
1E0001E0
0F8007E0
07E01FC0
03FFFF00
00FFFC00
001FF000
ENDCHAR
STARTCHAR 0442
ENCODING 1090
SWIDTH 380 0
DWIDTH 19 0
BBX 17 27 1 0
BITMAP
FFFF80
FFFF80
FFFF80
01C000
01C000
01C000
01C000
01C000
01C000
01C000
01C000
01C000
01C000
01C000
01C000
01C000
01C000
01C000
01C000
01C000
01C000
01C000
01C000
01C000
01C000
01C000
01C000
ENDCHAR
STARTCHAR 0443
ENCODING 1091
SWIDTH 540 0
DWIDTH 27 0
BBX 26 37 0 -10
BITMAP
E00001C0
F0000380
70000380
78000700
38000700
3C000E00
1C000E00
1E001E00
0E001C00
0F003C00
07003800
07807800
03807000
03C07000
01C0E000
01E0E000
00E1C000
00F1C000
0073C000
007B8000
007F8000
003F0000
003F0000
001E0000
001E0000
001C0000
001C0000
00380000
00380000
00700000
00700000
00F00000
00E00000
01E00000
01C00000
03C00000
03800000
ENDCHAR
STARTCHAR 0444
ENCODING 1092
SWIDTH 1080 0
DWIDTH 54 0
BBX 50 47 2 -10
BITMAP
000001C0000000
000001C0000000
000001C0000000
000001C0000000
000001C0000000
000001C0000000
000001C0000000
000001C0000000
000001C0000000
000001C0000000
003F81C0FF0000
01FFF1C3FFE000
07FFF9CFFFF000
0FC07DDF81FC00
1F001FFC003E00
3E000FF8001E00
3C0007F0000F00
780003E0000780
700003E0000380
700003E0000380
E00001C00001C0
E00001C00001C0
E00001C00001C0
E00001C00001C0
E00001C00001C0
E00001C00001C0
E00001C00001C0
700001C0000380
700003E0000380
780003E0000780
3C0007F0000F00
3E000FF8001E00
1F001FFC003E00
0FC07DDF81FC00
03FFF9CFFFF000
01FFE1C3FFE000
003F81C0FF0000
000001C0000000
000001C0000000
000001C0000000
000001C0000000
000001C0000000
000001C0000000
000001C0000000
000001C0000000
000001C0000000
000001C0000000
ENDCHAR
STARTCHAR 0445
ENCODING 1093
SWIDTH 480 0
DWIDTH 24 0
BBX 24 27 0 0
BITMAP
78001E
3C003C
1C0038
0E0070
0F00F0
0700E0
0381C0
03C3C0
01E780
00E700
007E00
007E00
003C00
003C00
007E00
00FF00
00E700
01C380
03C3C0
0781E0
0700E0
0E0070
1E0078
1C0038
38001C
78001E
F0000F
ENDCHAR
STARTCHAR 0446
ENCODING 1094
SWIDTH 660 0
DWIDTH 33 0
BBX 28 31 4 -4
BITMAP
E0001C00
E0001C00
E0001C00
E0001C00
E0001C00
E0001C00
E0001C00
E0001C00
E0001C00
E0001C00
E0001C00
E0001C00
E0001C00
E0001C00
E0001C00
E0001C00
E0001C00
E0001C00
E0001C00
E0001C00
E0001C00
E0001C00
E0001C00
E0001C00
FFFFFFF0
FFFFFFF0
FFFFFFF0
00000070
00000070
00000070
00000070
ENDCHAR
STARTCHAR 0447
ENCODING 1095
SWIDTH 460 0
DWIDTH 23 0
BBX 17 27 2 0
BITMAP
E00380
E00380
E00380
E00380
E00380
E00380
E00380
E00380
E00380
F00380
700380
7C0380
3FFF80
1FFF80
07FF80
000380
000380
000380
000380
000380
000380
000380
000380
000380
000380
000380
000380
ENDCHAR
STARTCHAR 0448
ENCODING 1096
SWIDTH 940 0
DWIDTH 47 0
BBX 39 27 4 0
BITMAP
E00038000E
E00038000E
E00038000E
E00038000E
E00038000E
E00038000E
E00038000E
E00038000E
E00038000E
E00038000E
E00038000E
E00038000E
E00038000E
E00038000E
E00038000E
E00038000E
E00038000E
E00038000E
E00038000E
E00038000E
E00038000E
E00038000E
E00038000E
E00038000E
FFFFFFFFFE
FFFFFFFFFE
FFFFFFFFFE
ENDCHAR
STARTCHAR 0449
ENCODING 1097
SWIDTH 1000 0
DWIDTH 50 0
BBX 45 31 4 -4
BITMAP
E00038000E00
E00038000E00
E00038000E00
E00038000E00
E00038000E00
E00038000E00
E00038000E00
E00038000E00
E00038000E00
E00038000E00
E00038000E00
E00038000E00
E00038000E00
E00038000E00
E00038000E00
E00038000E00
E00038000E00
E00038000E00
E00038000E00
E00038000E00
E00038000E00
E00038000E00
E00038000E00
E00038000E00
FFFFFFFFFFF8
FFFFFFFFFFF8
FFFFFFFFFFF8
000000000038
000000000038
000000000038
000000000038
ENDCHAR
STARTCHAR 044A
ENCODING 1098
SWIDTH 520 0
DWIDTH 26 0
BBX 23 27 1 0
BITMAP
FF0000
FF0000
FF0000
070000
070000
070000
070000
070000
070000
070000
070000
07FF80
07FFE0
07FFF8
0700FC
07003C
07001E
07000E
07000E
07000E
07000E
07001E
07003C
0700FC
07FFF8
07FFF0
07FF80
ENDCHAR
STARTCHAR 044B
ENCODING 1099
SWIDTH 680 0
DWIDTH 34 0
BBX 26 27 4 0
BITMAP
E00001C0
E00001C0
E00001C0
E00001C0
E00001C0
E00001C0
E00001C0
E00001C0
E00001C0
E00001C0
E00001C0
FFF001C0
FFFC01C0
FFFF01C0
E00F01C0
E00781C0
E003C1C0
E001C1C0
E001C1C0
E001C1C0
E001C1C0
E003C1C0
E00781C0
E01F81C0
FFFF01C0
FFFE01C0
FFF801C0
ENDCHAR
STARTCHAR 044C
ENCODING 1100
SWIDTH 480 0
DWIDTH 24 0
BBX 18 27 4 0
BITMAP
E00000
E00000
E00000
E00000
E00000
E00000
E00000
E00000
E00000
E00000
E00000
FFF000
FFFC00
FFFF00
E00F00
E00780
E003C0
E001C0
E001C0
E001C0
E001C0
E003C0
E00780
E01F80
FFFF00
FFFE00
FFF800
ENDCHAR
STARTCHAR 044D
ENCODING 1101
SWIDTH 640 0
DWIDTH 32 0
BBX 28 27 2 0
BITMAP
00FF8000
07FFF000
1FFFFC00
3F807E00
7C001F00
F8000780
700003C0
200001C0
000000E0
000000E0
00000070
000FFFF0
000FFFF0
000FFFF0
00000070
00000070
000000F0
000000E0
000001E0
200001E0
700003C0
F8000780
7C001F00
3F807E00
1FFFFC00
07FFF000
00FF8000
ENDCHAR
STARTCHAR 044E
ENCODING 1102
SWIDTH 840 0
DWIDTH 42 0
BBX 36 27 4 0
BITMAP
E0003FC000
E001FFF000
E003FFFC00
E00FE07E00
E01F000F00
E03E000780
E03C0003C0
E0780001E0
E0700000E0
E0F00000E0
E0E0000070
FFE0000070
FFE0000070
FFE0000070
E0E0000070
E0E0000070
E0E0000070
E0700000E0
E0700000E0
E0780001E0
E03C0003C0
E01E000780
E00F000F80
E007C03E00
E003FFFC00
E001FFF800
E0003FC000
ENDCHAR
STARTCHAR 044F
ENCODING 1103
SWIDTH 440 0
DWIDTH 22 0
BBX 17 27 1 0
BITMAP
03FF80
0FFF80
1FFF80
3E0380
780380
700380
700380
700380
700380
700380
380380
3C0380
1FFF80
07FF80
00FF80
00F380
00E380
01C380
03C380
078380
070380
0E0380
1E0380
3C0380
380380
700380
E00380
ENDCHAR
STARTCHAR 0451
ENCODING 1105
SWIDTH 660 0
DWIDTH 33 0
BBX 29 37 2 0
BITMAP
00F03C00
01F87E00
01F87E00
01F87E00
01F87E00
00F03C00
00000000
00000000
00000000
00000000
003FE000
00FFF800
03FFFE00
07E03F00
0F000780
1E0003C0
3C0000E0
780000E0
70000070
70000070
F0000038
FFFFFFF8
FFFFFFF8
FFFFFFF8
E0000000
E0000000
E0000000
70000000
70000040
780000F0
3C0001E0
1E0003E0
1F000FC0
0FC03F80
03FFFF00
01FFFC00
003FE000
ENDCHAR
STARTCHAR 0452
ENCODING 1106
SWIDTH 620 0
DWIDTH 31 0
BBX 27 47 0 -10
BITMAP
0E000000
0E000000
0E000000
0E000000
FFFFE000
FFFFE000
FFFFE000
0E000000
0E000000
0E000000
0E03F000
0E1FFC00
0E3FFF00
0E7C0F80
0EF00780
0FC003C0
0F8001C0
0F8001E0
0F0000E0
0F0000E0
0E0000E0
0E0000E0
0E0000E0
0E0000E0
0E0000E0
0E0000E0
0E0000E0
0E0000E0
0E0000E0
0E0000E0
0E0000E0
0E0000E0
0E0000E0
0E0000E0
0E0000E0
0E0000E0
0E0000E0
000000E0
000000E0
000000E0
000000E0
000000E0
000000E0
000001E0
00001FC0
00001FC0
00000F80
ENDCHAR
STARTCHAR 0453
ENCODING 1107
SWIDTH 360 0
DWIDTH 18 0
BBX 13 39 4 0
BITMAP
00F8
01F0
03E0
03C0
0780
0700
0E00
1E00
0000
0000
0000
0000
FFF8
FFF8
FFF8
E000
E000
E000
E000
E000
E000
E000
E000
E000
E000
E000
E000
E000
E000
E000
E000
E000
E000
E000
E000
E000
E000
E000
E000
ENDCHAR
STARTCHAR 0454
ENCODING 1108
SWIDTH 640 0
DWIDTH 32 0
BBX 28 27 2 0
BITMAP
001FF000
00FFFE00
03FFFF80
07E01FC0
0F8003E0
1E0001F0
3C0000E0
38000040
70000000
70000000
E0000000
FFFF0000
FFFF0000
FFFF0000
E0000000
E0000000
F0000000
70000000
78000000
78000040
3C0000E0
1E0001F0
0F8003E0
07E01FC0
03FFFF80
00FFFE00
001FF000
ENDCHAR
STARTCHAR 0455
ENCODING 1109
SWIDTH 380 0
DWIDTH 19 0
BBX 16 27 1 0
BITMAP
07E0
0FF8
1FFE
3C3F
780E
7004
7000
7000
7800
3C00
3E00
1F80
0FE0
03F0
00FC
003E
001E
000F
0007
0007
0007
2007
700E
F83E
7FFC
3FF8
07E0
ENDCHAR
STARTCHAR 0456
ENCODING 1110
SWIDTH 180 0
DWIDTH 9 0
BBX 5 37 2 0
BITMAP
70
F8
F8
F8
F8
70
00
00
00
00
70
70
70
70
70
70
70
70
70
70
70
70
70
70
70
70
70
70
70
70
70
70
70
70
70
70
70
ENDCHAR
STARTCHAR 0457
ENCODING 1111
SWIDTH 220 0
DWIDTH 11 0
BBX 16 37 -2 0
BITMAP
781E
FC3F
FC3F
FC3F
FC3F
781E
0000
0000
0000
0000
0380
0380
0380
0380
0380
0380
0380
0380
0380
0380
0380
0380
0380
0380
0380
0380
0380
0380
0380
0380
0380
0380
0380
0380
0380
0380
0380
ENDCHAR
STARTCHAR 0458
ENCODING 1112
SWIDTH 180 0
DWIDTH 9 0
BBX 9 47 -2 -10
BITMAP
0700
0F80
0F80
0F80
0F80
0700
0000
0000
0000
0000
0700
0700
0700
0700
0700
0700
0700
0700
0700
0700
0700
0700
0700
0700
0700
0700
0700
0700
0700
0700
0700
0700
0700
0700
0700
0700
0700
0700
0700
0700
0700
0700
0700
0F00
FE00
FE00
7C00
ENDCHAR
STARTCHAR 0459
ENCODING 1113
SWIDTH 800 0
DWIDTH 40 0
BBX 37 27 1 0
BITMAP
0008000000
001C000000
001C000000
003E000000
003E000000
003F000000
0077000000
0077800000
00E3800000
00E3800000
01C1C00000
01C1FFFE00
03C1FFFFC0
0380FFFFE0
0780F001F0
07007000F0
0700780078
0E00380038
0E00380038
1C001C0038
1C001C0038
38000E0078
38000E0070
78000F01F0
700007FFE0
F00007FFC0
E00003FF00
ENDCHAR
STARTCHAR 045A
ENCODING 1114
SWIDTH 840 0
DWIDTH 42 0
BBX 36 27 4 0
BITMAP
E000380000
E000380000
E000380000
E000380000
E000380000
E000380000
E000380000
E000380000
E000380000
E000380000
E000380000
FFFFFFFC00
FFFFFFFF00
FFFFFFFFC0
E0003807C0
E0003801E0
E0003800F0
E000380070
E000380070
E000380070
E000380070
E0003800F0
E0003801E0
E0003807E0
E0003FFFC0
E0003FFF80
E0003FFC00
ENDCHAR
STARTCHAR 045B
ENCODING 1115
SWIDTH 620 0
DWIDTH 31 0
BBX 27 37 0 0
BITMAP
0E000000
0E000000
0E000000
0E000000
FFFFE000
FFFFE000
FFFFE000
0E000000
0E000000
0E000000
0E03F000
0E1FFC00
0E3FFF00
0E7C0F80
0EF00780
0FC003C0
0F8001C0
0F8001C0
0F0000E0
0F0000E0
0E0000E0
0E0000E0
0E0000E0
0E0000E0
0E0000E0
0E0000E0
0E0000E0
0E0000E0
0E0000E0
0E0000E0
0E0000E0
0E0000E0
0E0000E0
0E0000E0
0E0000E0
0E0000E0
0E0000E0
ENDCHAR
STARTCHAR 045C
ENCODING 1116
SWIDTH 500 0
DWIDTH 25 0
BBX 21 39 4 0
BITMAP
001F00
003E00
007C00
007800
00F000
00E000
01C000
03C000
000000
000000
000000
000000
E000E0
E003C0
E00780
E00F00
E01E00
E03C00
E07800
E0F000
E1E000
E3C000
E78000
EE0000
FC0000
FE0000
FF0000
E78000
E3C000
E1E000
E0F000
E07800
E01C00
E00F00
E00780
E003C0
E001E0
E000F0
E00078
ENDCHAR
STARTCHAR 045E
ENCODING 1118
SWIDTH 540 0
DWIDTH 27 0
BBX 26 47 0 -10
BITMAP
0E003800
0F007800
07C1F000
03FFE000
01FFC000
007F0000
00000000
00000000
00000000
00000000
E00001C0
F0000380
70000380
78000700
38000700
3C000E00
1C000E00
1E001E00
0E001C00
0F003C00
07003800
07807800
03807000
03C07000
01C0E000
01E0E000
00E1C000
00F1C000
0073C000
007B8000
007F8000
003F0000
003F0000
001E0000
001E0000
001C0000
001C0000
00380000
00380000
00700000
00700000
00F00000
00E00000
01E00000
01C00000
03C00000
03800000
ENDCHAR
STARTCHAR 045F
ENCODING 1119
SWIDTH 600 0
DWIDTH 30 0
BBX 22 31 4 -4
BITMAP
E0001C
E0001C
E0001C
E0001C
E0001C
E0001C
E0001C
E0001C
E0001C
E0001C
E0001C
E0001C
E0001C
E0001C
E0001C
E0001C
E0001C
E0001C
E0001C
E0001C
E0001C
E0001C
E0001C
E0001C
FFFFFC
FFFFFC
FFFFFC
007000
007000
007000
007000
ENDCHAR
STARTCHAR 0490
ENCODING 1168
SWIDTH 400 0
DWIDTH 20 0
BBX 14 41 5 0
BITMAP
001C
001C
001C
001C
001C
FFFC
FFFC
FFFC
E000
E000
E000
E000
E000
E000
E000
E000
E000
E000
E000
E000
E000
E000
E000
E000
E000
E000
E000
E000
E000
E000
E000
E000
E000
E000
E000
E000
E000
E000
E000
E000
E000
ENDCHAR
STARTCHAR 0491
ENCODING 1169
SWIDTH 360 0
DWIDTH 18 0
BBX 13 30 4 0
BITMAP
0038
0038
0038
FFF8
FFF8
FFF8
E000
E000
E000
E000
E000
E000
E000
E000
E000
E000
E000
E000
E000
E000
E000
E000
E000
E000
E000
E000
E000
E000
E000
E000
ENDCHAR
STARTCHAR 1E80
ENCODING 7808
SWIDTH 940 0
DWIDTH 47 0
BBX 43 48 2 0
BITMAP
0001F0000000
0000F8000000
00007C000000
00003C000000
00001E000000
00000E000000
000007000000
000007800000
000000000000
000000000000
000000000000
000000000000
E000040000E0
E0000E0000E0
F0000E0001C0
F0000E0001C0
70001F0001C0
78001F000380
78001F800380
38003B800380
38003B800380
3C007BC00700
3C0071C00700
1C0071C00700
1E00E0E00700
1E00E0E00E00
1E00E0F00E00
0E01C0700E00
0F01C0700C00
0F0380781C00
070380381C00
078380381C00
0787001C3800
0787001C3800
0386001E3800
03CE000E3000
03CE000E7000
01DC000F7000
01FC00077000
01F800076000
01F80003E000
00F80003E000
00F00003E000
00F00001C000
00E00001C000
00600000C000
006000008000
004000008000
ENDCHAR
STARTCHAR 1E81
ENCODING 7809
SWIDTH 840 0
DWIDTH 42 0
BBX 41 39 0 0
BITMAP
0003E0000000
0001F0000000
0000F8000000
000078000000
00003C000000
00001C000000
00000E000000
00000F000000
000000000000
000000000000
000000000000
000000000000
E00008000380
F0000C000700
70001C000700
78001E000F00
78003E000E00
3C003E000E00
3C0037001C00
1C0077001C00
1E0077803C00
0E00E3803800
0F00E3803800
0F01C1C07000
0701C1C07000
078181E0F000
038380E0E000
03C380E0E000
01C70071C000
01E70071C000
01EE007B8000
00EE003B8000
00FC003F8000
007C001F0000
007C001F0000
0078000E0000
0038000E0000
0030000E0000
001000040000
ENDCHAR
STARTCHAR 1E82
ENCODING 7810
SWIDTH 940 0
DWIDTH 47 0
BBX 43 48 2 0
BITMAP
000000F80000
000001F00000
000003E00000
000003C00000
000007800000
000007000000
00000E000000
00001E000000
000000000000
000000000000
000000000000
000000000000
E000040000E0
E0000E0000E0
F0000E0001C0
F0000E0001C0
70001F0001C0
78001F000380
78001F800380
38003B800380
38003B800380
3C007BC00700
3C0071C00700
1C0071C00700
1E00E0E00700
1E00E0E00E00
1E00E0F00E00
0E01C0700E00
0F01C0700C00
0F0380781C00
070380381C00
078380381C00
0787001C3800
0787001C3800
0386001E3800
03CE000E3000
03CE000E7000
01DC000F7000
01FC00077000
01F800076000
01F80003E000
00F80003E000
00F00003E000
00F00001C000
00E00001C000
00600000C000
006000008000
004000008000
ENDCHAR
STARTCHAR 1E83
ENCODING 7811
SWIDTH 840 0
DWIDTH 42 0
BBX 41 39 0 0
BITMAP
000003E00000
000007C00000
00000F800000
00000F000000
00001E000000
00001C000000
000038000000
000078000000
000000000000
000000000000
000000000000
000000000000
E00008000380
F0000C000700
70001C000700
78001E000F00
78003E000E00
3C003E000E00
3C0037001C00
1C0077001C00
1E0077803C00
0E00E3803800
0F00E3803800
0F01C1C07000
0701C1C07000
078181E0F000
038380E0E000
03C380E0E000
01C70071C000
01E70071C000
01EE007B8000
00EE003B8000
00FC003F8000
007C001F0000
007C001F0000
0078000E0000
0038000E0000
0030000E0000
001000040000
ENDCHAR
STARTCHAR 1E84
ENCODING 7812
SWIDTH 960 0
DWIDTH 48 0
BBX 43 46 2 0
BITMAP
0003C0F00000
0007E1F80000
0007E1F80000
0007E1F80000
0007E1F80000
0003C0F00000
000000000000
000000000000
000000000000
000000000000
E000040000E0
E0000E0000E0
F0000E0001C0
F0000E0001C0
70001F0001C0
78001F000380
78001F800380
38003B800380
38003B800380
3C007BC00700
3C0071C00700
1C0071C00700
1E00E0E00700
1E00E0E00E00
1E00E0F00E00
0E01C0700E00
0F01C0700C00
0F0380781C00
070380381C00
078380381C00
0787001C3800
0787001C3800
0386001E3800
03CE000E3000
03CE000E7000
01DC000F7000
01FC00077000
01F800076000
01F80003E000
00F80003E000
00F00003E000
00F00001C000
00E00001C000
00600000C000
006000008000
004000008000
ENDCHAR
STARTCHAR 1E85
ENCODING 7813
SWIDTH 840 0
DWIDTH 42 0
BBX 41 37 0 0
BITMAP
000781E00000
000FC3F00000
000FC3F00000
000FC3F00000
000FC3F00000
000781E00000
000000000000
000000000000
000000000000
000000000000
E00008000380
F0000C000700
70001C000700
78001E000F00
78003E000E00
3C003E000E00
3C0037001C00
1C0077001C00
1E0077803C00
0E00E3803800
0F00E3803800
0F01C1C07000
0701C1C07000
078181E0F000
038380E0E000
03C380E0E000
01C70071C000
01E70071C000
01EE007B8000
00EE003B8000
00FC003F8000
007C001F0000
007C001F0000
0078000E0000
0038000E0000
0030000E0000
001000040000
ENDCHAR
STARTCHAR 1EF2
ENCODING 7922
SWIDTH 620 0
DWIDTH 31 0
BBX 27 48 2 0
BITMAP
03E00000
01F00000
00F80000
00780000
003C0000
001C0000
000E0000
000F0000
00000000
00000000
00000000
00000000
F00000E0
700001C0
78000380
3C000380
1C000700
1E000E00
0F000E00
07001C00
07803800
03C03800
01C07000
01E0F000
00F0E000
0071C000
007BC000
003B8000
003F0000
001F0000
000E0000
000E0000
000E0000
000E0000
000E0000
000E0000
000E0000
000E0000
000E0000
000E0000
000E0000
000E0000
000E0000
000E0000
000E0000
000E0000
000E0000
000E0000
ENDCHAR
STARTCHAR 1EF3
ENCODING 7923
SWIDTH 540 0
DWIDTH 27 0
BBX 26 49 0 -10
BITMAP
03E00000
01F00000
00F80000
00780000
003C0000
001C0000
000E0000
000F0000
00000000
00000000
00000000
00000000
E00001C0
F0000380
70000380
78000700
38000700
3C000E00
1C000E00
1E001E00
0E001C00
0F003C00
07003800
07807800
03807000
03C07000
01C0E000
01E0E000
00E1C000
00F1C000
0073C000
007B8000
007F8000
003F0000
003F0000
001E0000
001E0000
001C0000
001C0000
00380000
00380000
00700000
00700000
00F00000
00E00000
01E00000
01C00000
03C00000
03800000
ENDCHAR
STARTCHAR 2013
ENCODING 8211
SWIDTH 500 0
DWIDTH 25 0
BBX 26 3 -1 12
BITMAP
FFFFFFC0
FFFFFFC0
FFFFFFC0
ENDCHAR
STARTCHAR 2014
ENCODING 8212
SWIDTH 1000 0
DWIDTH 50 0
BBX 51 3 -1 12
BITMAP
FFFFFFFFFFFFE0
FFFFFFFFFFFFE0
FFFFFFFFFFFFE0
ENDCHAR
STARTCHAR 2015
ENCODING 8213
SWIDTH 760 0
DWIDTH 38 0
BBX 39 3 -1 12
BITMAP
FFFFFFFFFE
FFFFFFFFFE
FFFFFFFFFE
ENDCHAR
STARTCHAR 2017
ENCODING 8215
SWIDTH 500 0
DWIDTH 25 0
BBX 27 8 -1 -11
BITMAP
FFFFFFE0
FFFFFFE0
FFFFFFE0
00000000
00000000
FFFFFFE0
FFFFFFE0
FFFFFFE0
ENDCHAR
STARTCHAR 2018
ENCODING 8216
SWIDTH 360 0
DWIDTH 18 0
BBX 4 14 7 23
BITMAP
20
60
60
60
C0
C0
C0
F0
F0
F0
F0
F0
F0
F0
ENDCHAR
STARTCHAR 2019
ENCODING 8217
SWIDTH 360 0
DWIDTH 18 0
BBX 4 14 6 23
BITMAP
F0
F0
F0
F0
F0
F0
F0
30
30
30
60
60
60
40
ENDCHAR
STARTCHAR 201A
ENCODING 8218
SWIDTH 360 0
DWIDTH 18 0
BBX 4 14 6 -7
BITMAP
F0
F0
F0
F0
F0
F0
F0
30
30
30
60
60
60
40
ENDCHAR
STARTCHAR 201B
ENCODING 8219
SWIDTH 360 0
DWIDTH 18 0
BBX 4 14 6 23
BITMAP
F0
F0
F0
F0
F0
F0
F0
C0
C0
C0
60
60
60
20
ENDCHAR
STARTCHAR 201C
ENCODING 8220
SWIDTH 500 0
DWIDTH 25 0
BBX 15 14 5 23
BITMAP
2004
600C
600C
600C
C018
C018
C018
F01E
F01E
F01E
F01E
F01E
F01E
F01E
ENDCHAR
STARTCHAR 201D
ENCODING 8221
SWIDTH 480 0
DWIDTH 24 0
BBX 15 14 4 23
BITMAP
F01E
F01E
F01E
F01E
F01E
F01E
F01E
3006
3006
3006
600C
600C
600C
4008
ENDCHAR
STARTCHAR 201E
ENCODING 8222
SWIDTH 500 0
DWIDTH 25 0
BBX 15 14 4 -7
BITMAP
F01E
F01E
F01E
F01E
F01E
F01E
F01E
3006
3006
3006
600C
600C
600C
4008
ENDCHAR
STARTCHAR 2020
ENCODING 8224
SWIDTH 560 0
DWIDTH 28 0
BBX 19 45 4 -8
BITMAP
00E000
00E000
00E000
00E000
00E000
00E000
004000
004000
004000
004000
004000
F843E0
FFFFE0
F843E0
004000
004000
004000
004000
004000
004000
004000
004000
004000
004000
004000
004000
004000
004000
004000
00E000
00E000
00E000
00E000
00E000
00E000
00E000
00E000
00E000
00E000
00E000
00E000
00E000
00E000
00E000
00E000
ENDCHAR
STARTCHAR 2021
ENCODING 8225
SWIDTH 540 0
DWIDTH 27 0
BBX 19 45 4 -8
BITMAP
00E000
00E000
00E000
00E000
00E000
004000
004000
004000
F843E0
FFFFE0
F843E0
004000
004000
004000
004000
004000
00E000
00E000
00E000
00E000
00E000
00E000
00E000
00E000
00E000
00E000
00E000
00E000
00E000
004000
004000
004000
004000
004000
F843E0
FFFFE0
F843E0
004000
004000
004000
00E000
00E000
00E000
00E000
00E000
ENDCHAR
STARTCHAR 2022
ENCODING 8226
SWIDTH 600 0
DWIDTH 30 0
BBX 15 15 7 11
BITMAP
07C0
1FF0
3FF8
7FFC
7FFC
FFFE
FFFE
FFFE
FFFE
FFFE
7FFC
7FFC
3FF8
1FF0
07C0
ENDCHAR
STARTCHAR 2026
ENCODING 8230
SWIDTH 1020 0
DWIDTH 51 0
BBX 40 6 5 0
BITMAP
78003C001E
FC007E003F
FC007E003F
FC007E003F
FC007E003F
78003C001E
ENDCHAR
STARTCHAR 2030
ENCODING 8240
SWIDTH 1180 0
DWIDTH 59 0
BBX 57 40 1 -2
BITMAP
0000000F80000000
03F000FF00000000
0FFFFFFE00000000
3FFFFFFE00000000
3C1FFF1C00000000
780F003800000000
7007003800000000
E003807000000000
E00380E000000000
E00380E000000000
E00381C000000000
E003838000000000
F007038000000000
780F070000000000
3C1E0E0000000000
3FFE1E0000000000
1FF81C0000000000
03F0380000000000
0000780000000000
0000700000000000
0000E00000000000
0001C00000000000
0001C03E0003E000
000380FF800FF800
000703FFE03FFE00
000703C1E03C1E00
000E0780F0780F00
001C0F0070F00700
001C0E0038E00380
00380E0038E00380
00700E0038E00380
00700E0038E00380
00E00E0038E00380
01C00F0070F00700
01C00780F0780F00
038003C1E03C1E00
070003FFE03FFE00
070000FF800FF800
0E00003E0003E000
1C00000000000000
ENDCHAR
STARTCHAR 2032
ENCODING 8242
SWIDTH 200 0
DWIDTH 10 0
BBX 5 11 3 26
BITMAP
38
38
30
70
70
70
70
60
E0
E0
E0
ENDCHAR
STARTCHAR 2033
ENCODING 8243
SWIDTH 300 0
DWIDTH 15 0
BBX 14 11 1 26
BITMAP
381C
381C
3018
7038
7038
7038
7038
6030
E070
E070
E070
ENDCHAR
STARTCHAR 2039
ENCODING 8249
SWIDTH 240 0
DWIDTH 12 0
BBX 9 27 2 0
BITMAP
0380
0700
0700
0700
0E00
0E00
1C00
1C00
3800
3800
7000
7000
7000
E000
E000
7000
7000
7800
3800
3C00
1C00
1E00
0E00
0F00
0700
0780
0380
ENDCHAR
STARTCHAR 203A
ENCODING 8250
SWIDTH 240 0
DWIDTH 12 0
BBX 9 27 2 0
BITMAP
E000
F000
7000
7800
3800
3C00
1C00
1C00
1E00
0E00
0F00
0700
0780
0380
0380
0700
0700
0E00
0E00
1C00
1C00
1C00
3800
3800
7000
7000
E000
ENDCHAR
STARTCHAR 203C
ENCODING 8252
SWIDTH 540 0
DWIDTH 27 0
BBX 16 37 5 0
BITMAP
700E
700E
700E
700E
700E
700E
700E
700E
700E
700E
700E
700E
700E
700E
700E
700E
700E
700E
700E
700E
700E
700E
700E
700E
700E
700E
700E
0000
0000
0000
0000
700E
F81F
F81F
F81F
F81F
700E
ENDCHAR
STARTCHAR 203E
ENCODING 8254
SWIDTH 560 0
DWIDTH 28 0
BBX 30 2 -1 27
BITMAP
FFFFFFFC
FFFFFFFC
ENDCHAR
STARTCHAR 2044
ENCODING 8260
SWIDTH 160 0
DWIDTH 8 0
BBX 26 37 -9 0
BITMAP
000001C0
00000180
00000300
00000700
00000600
00000E00
00001C00
00001800
00003800
00007000
00006000
0000E000
0000C000
00018000
00038000
00030000
00070000
000E0000
000C0000
001C0000
00380000
00300000
00700000
00600000
00C00000
01C00000
01800000
03800000
07000000
06000000
0E000000
1C000000
18000000
38000000
30000000
60000000
E0000000
ENDCHAR
STARTCHAR 207F
ENCODING 8319
SWIDTH 360 0
DWIDTH 18 0
BBX 14 17 2 14
BITMAP
E3E0
EFF0
FFF8
FC78
F03C
F01C
E01C
E01C
E01C
E01C
E01C
E01C
E01C
E01C
E01C
E01C
E01C
ENDCHAR
STARTCHAR 20A3
ENCODING 8355
SWIDTH 480 0
DWIDTH 24 0
BBX 21 36 0 0
BITMAP
0FFFF8
0FFFF8
0FFFF8
0E0000
0E0000
0E0000
0E0000
0E0000
0E0000
0E0000
0E0000
0E0000
0E0000
0E0000
0E0000
0FFFF8
0FFFF8
0FFFF8
0E0000
0E0000
0E0000
0E0000
0E0000
0E0000
0E0000
0E0000
FFFC00
FFFC00
FFFC00
0E0000
0E0000
0E0000
0E0000
0E0000
0E0000
0E0000
ENDCHAR
STARTCHAR 20A4
ENCODING 8356
SWIDTH 560 0
DWIDTH 28 0
BBX 25 38 1 -1
BITMAP
001F8000
007FE000
01FFF000
01E07800
03C03C00
07801C00
07000E00
07000E00
07000E00
07000000
07000000
07000000
03800000
7FFFF000
7FFFF000
7FFFF000
01C00000
01C00000
01C00000
7FFFF000
7FFFF000
7FFFF000
00E00000
00E00000
00E00000
00E00000
00E00000
00E00000
1EE00000
3FE00380
7FE00380
F3E00380
E1F80780
E3FC0700
E3BF0F00
FF9FFE00
7F07FE00
3C00F800
ENDCHAR
STARTCHAR 20A7
ENCODING 8359
SWIDTH 1080 0
DWIDTH 54 0
BBX 47 37 4 0
BITMAP
000000E00000
FFFE00E00000
FFFFC0E00000
FFFFE0E00000
E003F0E00000
E00078E00000
E00038E00000
E0003CE00000
E0001CE00000
E0001CE00000
E0001FFFFFC0
E0001FFFFFF0
E0001FFFFFFC
E00038E0787E
E00038E0F01C
E00078E0E008
E001F0E0E000
FFFFE0E0E000
FFFF80E0E000
FFFC00E07000
E00000E07C00
E00000E03E00
E00000E01FC0
E00000E007E0
E00000E001F8
E00000E0007C
E00000E0001C
E00000E0001E
E00000E0000E
E00000E0000E
E00000E0000E
E00000E0401E
E00000E0E01C
E00000E1F07C
E00000E0FFF8
E00000E07FF0
E00000E00FC0
ENDCHAR
STARTCHAR 20AC
ENCODING 8364
SWIDTH 560 0
DWIDTH 28 0
BBX 26 38 1 -1
BITMAP
00003FC0
0001FFC0
0007FF80
001FC000
003E0000
007C0000
00F00000
01E00000
03C00000
03800000
07800000
07000000
0F000000
0E000000
7FFFFE00
FFFFFE00
FFFFFC00
1C000000
1C000000
1C000000
1C000000
7FFFF800
FFFFF800
FFFFF000
0E000000
0E000000
0F000000
07000000
07800000
03C00000
01E00000
01F00000
00F80000
007E0000
001FC000
000FFFC0
0003FFC0
00003FC0
ENDCHAR
ENDFONT
